SplineFontDB: 3.2
FontName: KoreeneSans-Light
FullName: Koreene Sans Light
FamilyName: Koreene Sans Light
Weight: Light
Copyright: (C) Copyright HanYang I&C Co.,Ltd. All rights reserved.
Version: 2.50; ttfautohint (v1.8.4.7-5d5b-dirty)
ItalicAngle: 0
UnderlinePosition: -122
UnderlineWidth: 45
Ascent: 819
Descent: 205
InvalidEm: 0
sfntRevision: 0x00020147
LayerCount: 2
Layer: 0 1 "Back" 1
Layer: 1 1 "Fore" 0
XUID: [1021 531 -1996577725 4250921]
StyleMap: 0x0040
FSType: 0
OS2Version: 4
OS2_WeightWidthSlopeOnly: 0
OS2_UseTypoMetrics: 1
CreationTime: 1068260456
ModificationTime: 1702473895
PfmFamily: 81
TTFWeight: 300
TTFWidth: 5
LineGap: 256
VLineGap: 0
Panose: 0 0 0 0 0 0 0 0 0 0
OS2TypoAscent: 970
OS2TypoAOffset: 0
OS2TypoDescent: -235
OS2TypoDOffset: 0
OS2TypoLinegap: 256
OS2WinAscent: 1098
OS2WinAOffset: 0
OS2WinDescent: 363
OS2WinDOffset: 0
HheadAscent: 970
HheadAOffset: 0
HheadDescent: -235
HheadDOffset: 0
OS2SubXSize: 205
OS2SubYSize: 205
OS2SubXOff: 0
OS2SubYOff: 287
OS2SupXSize: 205
OS2SupYSize: 205
OS2SupXOff: 0
OS2SupYOff: 963
OS2StrikeYSize: 102
OS2StrikeYPos: 512
OS2CapHeight: 735
OS2XHeight: 525
OS2Vendor: 'HY  '
OS2CodePages: 2000019f.00000000
OS2UnicodeRanges: e10002ff.4000001b.00000000.00000000
Lookup: 1 0 0 "'aalt' Access All Alternates lookup 0" { "'aalt' Access All Alternates lookup 0 subtable"  } ['aalt' ('DFLT' <'dflt' > 'cyrl' <'dflt' > 'grek' <'dflt' > 'hang' <'dflt' > 'jamo' <'dflt' > 'latn' <'dflt' > ) ]
Lookup: 3 0 0 "'aalt' Access All Alternates lookup 1" { "'aalt' Access All Alternates lookup 1 subtable"  } ['aalt' ('DFLT' <'dflt' > 'cyrl' <'dflt' > 'grek' <'dflt' > 'hang' <'dflt' > 'jamo' <'dflt' > 'latn' <'dflt' > ) ]
Lookup: 1 0 0 "'locl' Localized Forms in Latin lookup 2" { "'locl' Localized Forms in Latin lookup 2 subtable"  } ['locl' ('latn' <'MOL ' > ) ]
Lookup: 1 0 0 "'locl' Localized Forms in Latin lookup 3" { "'locl' Localized Forms in Latin lookup 3 subtable"  } ['locl' ('latn' <'ROM ' > ) ]

StartChar: exclam
Encoding: 33 33 4
Width: 312
GlyphClass: 2
Flags: W
LayerCount: 2
Fore
SplineSet
101 -9 m 1,0,-1
 101 94 l 1,1,-1
 212 94 l 1,2,-1
 212 -9 l 1,3,-1
 101 -9 l 1,0,-1
185 206 m 1,4,-1
 129 206 l 1,5,-1
 121 736 l 1,6,-1
 193 736 l 1,7,-1
 185 206 l 1,4,-1
EndSplineSet
EndChar

StartChar: quotedbl
Encoding: 34 34 5
Width: 478
GlyphClass: 2
Flags: W
LayerCount: 2
Fore
SplineSet
265 544 m 1,0,-1
 349 828 l 1,1,-1
 441 828 l 1,2,-1
 317 544 l 1,3,-1
 265 544 l 1,0,-1
69 544 m 1,4,-1
 152 828 l 1,5,-1
 245 828 l 1,6,-1
 120 544 l 1,7,-1
 69 544 l 1,4,-1
EndSplineSet
EndChar

StartChar: numbersign
Encoding: 35 35 6
Width: 703
GlyphClass: 2
Flags: W
LayerCount: 2
Fore
SplineSet
48 207 m 1,0,-1
 48 255 l 1,1,-1
 179 255 l 1,2,-1
 207 460 l 1,3,-1
 81 460 l 1,4,-1
 81 507 l 1,5,-1
 214 507 l 1,6,-1
 241 710 l 1,7,-1
 297 710 l 1,8,-1
 269 507 l 1,9,-1
 477 507 l 1,10,-1
 504 710 l 1,11,-1
 560 710 l 1,12,-1
 532 507 l 1,13,-1
 656 507 l 1,14,-1
 656 460 l 1,15,-1
 526 460 l 1,16,-1
 499 255 l 1,17,-1
 624 255 l 1,18,-1
 624 207 l 1,19,-1
 492 207 l 1,20,-1
 465 3 l 1,21,-1
 407 3 l 1,22,-1
 435 207 l 1,23,-1
 229 207 l 1,24,-1
 202 3 l 1,25,-1
 144 3 l 1,26,-1
 172 207 l 1,27,-1
 48 207 l 1,0,-1
236 255 m 1,28,-1
 442 255 l 1,29,-1
 470 460 l 1,30,-1
 263 460 l 1,31,-1
 236 255 l 1,28,-1
EndSplineSet
EndChar

StartChar: dollar
Encoding: 36 36 7
Width: 590
GlyphClass: 2
Flags: W
LayerCount: 2
Fore
SplineSet
69 128 m 1,0,-1
 117 153 l 1,1,2
 146 108 146 108 197 80.5 c 128,-1,3
 248 53 248 53 297 53 c 0,4,5
 366 53 366 53 410.5 85 c 128,-1,6
 455 117 455 117 455 185 c 0,7,8
 455 220 455 220 441 247 c 128,-1,9
 427 274 427 274 398.5 293.5 c 128,-1,10
 370 313 370 313 340 327 c 128,-1,11
 310 341 310 341 266 359 c 0,12,13
 249 366 249 366 240 369 c 0,14,15
 165 400 165 400 125.5 442.5 c 128,-1,16
 86 485 86 485 86 556 c 0,17,18
 86 623 86 623 135 674.5 c 128,-1,19
 184 726 184 726 267 732 c 1,20,-1
 267 815 l 1,21,-1
 326 815 l 1,22,-1
 326 731 l 1,23,24
 379 729 379 729 427.5 696 c 128,-1,25
 476 663 476 663 495 623 c 1,26,-1
 447 600 l 1,27,28
 389 682 389 682 296 682 c 0,29,30
 228 682 228 682 188.5 646 c 128,-1,31
 149 610 149 610 149 555 c 0,32,33
 149 523 149 523 161 498.5 c 128,-1,34
 173 474 173 474 200 455 c 128,-1,35
 227 436 227 436 252 424 c 128,-1,36
 277 412 277 412 322 394 c 0,37,38
 357 380 357 380 379 370 c 128,-1,39
 401 360 401 360 430.5 341.5 c 128,-1,40
 460 323 460 323 477 303.5 c 128,-1,41
 494 284 494 284 506.5 255 c 128,-1,42
 519 226 519 226 519 191 c 0,43,44
 519 104 519 104 464 56 c 128,-1,45
 409 8 409 8 326 1 c 1,46,-1
 326 -77 l 1,47,-1
 267 -77 l 1,48,-1
 267 2 l 1,49,50
 213 5 213 5 156.5 38.5 c 128,-1,51
 100 72 100 72 69 128 c 1,0,-1
EndSplineSet
EndChar

StartChar: percent
Encoding: 37 37 8
Width: 974
GlyphClass: 2
Flags: W
LayerCount: 2
Fore
SplineSet
533 158 m 0,0,1
 533 235 533 235 585 283.5 c 128,-1,2
 637 332 637 332 716 332 c 256,3,4
 795 332 795 332 847.5 283.5 c 128,-1,5
 900 235 900 235 900 158 c 0,6,7
 900 80 900 80 847 31 c 128,-1,8
 794 -18 794 -18 716 -18 c 256,9,10
 638 -18 638 -18 585.5 30.5 c 128,-1,11
 533 79 533 79 533 158 c 0,0,1
592 158 m 0,12,13
 592 101 592 101 628.5 66.5 c 128,-1,14
 665 32 665 32 716 32 c 256,15,16
 767 32 767 32 804 67 c 128,-1,17
 841 102 841 102 841 158 c 256,18,19
 841 214 841 214 805 248 c 128,-1,20
 769 282 769 282 716 282 c 0,21,22
 665 282 665 282 628.5 248 c 128,-1,23
 592 214 592 214 592 158 c 0,12,13
75 578 m 0,24,25
 75 655 75 655 127.5 704 c 128,-1,26
 180 753 180 753 259 753 c 256,27,28
 338 753 338 753 390 704.5 c 128,-1,29
 442 656 442 656 442 578 c 256,30,31
 442 500 442 500 389.5 452 c 128,-1,32
 337 404 337 404 259 404 c 256,33,34
 181 404 181 404 128 452 c 128,-1,35
 75 500 75 500 75 578 c 0,24,25
134 578 m 256,36,37
 134 522 134 522 171 487.5 c 128,-1,38
 208 453 208 453 259 453 c 256,39,40
 310 453 310 453 346.5 487.5 c 128,-1,41
 383 522 383 522 383 578 c 256,42,43
 383 634 383 634 347 669 c 128,-1,44
 311 704 311 704 259 704 c 0,45,46
 208 704 208 704 171 669 c 128,-1,47
 134 634 134 634 134 578 c 256,36,37
189 -2 m 1,48,-1
 720 737 l 1,49,-1
 785 737 l 1,50,-1
 254 -2 l 1,51,-1
 189 -2 l 1,48,-1
EndSplineSet
EndChar

StartChar: ampersand
Encoding: 38 38 9
Width: 643
GlyphClass: 2
Flags: W
LayerCount: 2
Fore
SplineSet
130 184 m 0,0,1
 130 117 130 117 175 75.5 c 128,-1,2
 220 34 220 34 290 34 c 0,3,4
 391 34 391 34 467 133 c 1,5,-1
 274 390 l 1,6,7
 211 350 211 350 170.5 301.5 c 128,-1,8
 130 253 130 253 130 184 c 0,0,1
67 183 m 0,9,10
 67 330 67 330 241 436 c 1,11,12
 238 440 238 440 228.5 453.5 c 128,-1,13
 219 467 219 467 216 471 c 128,-1,14
 213 475 213 475 205 486.5 c 128,-1,15
 197 498 197 498 194.5 503 c 128,-1,16
 192 508 192 508 186 518 c 128,-1,17
 180 528 180 528 178 533.5 c 128,-1,18
 176 539 176 539 172.5 548 c 128,-1,19
 169 557 169 557 167.5 564 c 128,-1,20
 166 571 166 571 165 579.5 c 128,-1,21
 164 588 164 588 164 597 c 0,22,23
 164 658 164 658 211 701.5 c 128,-1,24
 258 745 258 745 340 745 c 0,25,26
 468 745 468 745 527 625 c 1,27,-1
 478 603 l 1,28,29
 460 638 460 638 423.5 665.5 c 128,-1,30
 387 693 387 693 344 693 c 0,31,32
 291 693 291 693 259.5 664.5 c 128,-1,33
 228 636 228 636 228 596 c 256,34,35
 228 556 228 556 285 472 c 128,-1,36
 342 388 342 388 468 224 c 0,37,38
 489 198 489 198 499 184 c 1,39,40
 534 252 534 252 547 338 c 1,41,-1
 604 328 l 1,42,43
 589 221 589 221 540 134 c 1,44,-1
 643 0 l 1,45,-1
 569 0 l 1,46,-1
 503 85 l 1,47,48
 419 -18 419 -18 287 -18 c 0,49,50
 184 -18 184 -18 125.5 39.5 c 128,-1,51
 67 97 67 97 67 183 c 0,9,10
EndSplineSet
EndChar

StartChar: quotesingle
Encoding: 39 39 10
Width: 289
GlyphClass: 2
Flags: W
LayerCount: 2
Fore
SplineSet
75 544 m 1,0,-1
 158 828 l 1,1,-1
 251 828 l 1,2,-1
 126 544 l 1,3,-1
 75 544 l 1,0,-1
EndSplineSet
EndChar

StartChar: parenleft
Encoding: 40 40 11
Width: 454
GlyphClass: 2
Flags: W
LayerCount: 2
Fore
SplineSet
161 351 m 0,0,1
 161 639 161 639 333 855 c 1,2,-1
 377 830 l 1,3,4
 342 778 342 778 323.5 745.5 c 128,-1,5
 305 713 305 713 277 650.5 c 128,-1,6
 249 588 249 588 236 514 c 128,-1,7
 223 440 223 440 223 351 c 0,8,9
 223 261 223 261 236.5 185.5 c 128,-1,10
 250 110 250 110 278.5 47.5 c 128,-1,11
 307 -15 307 -15 325 -45.5 c 128,-1,12
 343 -76 343 -76 377 -127 c 1,13,-1
 333 -152 l 1,14,15
 161 68 161 68 161 351 c 0,0,1
EndSplineSet
Substitution2: "'sups' Superscript lookup 5 subtable" uni207D
Substitution2: "'aalt' Access All Alternates lookup 0 subtable" uni207D
EndChar

StartChar: parenright
Encoding: 41 41 12
Width: 454
GlyphClass: 2
Flags: W
LayerCount: 2
Fore
SplineSet
77 -127 m 1,0,1
 111 -77 111 -77 134 -36 c 128,-1,2
 157 5 157 5 181.5 64.5 c 128,-1,3
 206 124 206 124 218.5 196 c 128,-1,4
 231 268 231 268 231 351 c 0,5,6
 231 438 231 438 218.5 511 c 128,-1,7
 206 584 206 584 180 644.5 c 128,-1,8
 154 705 154 705 132.5 742 c 128,-1,9
 111 779 111 779 77 830 c 1,10,-1
 121 855 l 1,11,12
 293 641 293 641 293 351 c 0,13,14
 293 69 293 69 121 -152 c 1,15,-1
 77 -127 l 1,0,1
EndSplineSet
Substitution2: "'sups' Superscript lookup 5 subtable" uni207E
Substitution2: "'aalt' Access All Alternates lookup 0 subtable" uni207E
EndChar

StartChar: asterisk
Encoding: 42 42 13
Width: 560
GlyphClass: 2
Flags: W
LayerCount: 2
Fore
SplineSet
30 422 m 1,0,-1
 52 475 l 1,1,-1
 256 397 l 1,2,-1
 249 598 l 1,3,-1
 311 598 l 1,4,-1
 304 397 l 1,5,-1
 508 475 l 1,6,-1
 530 422 l 1,7,-1
 320 348 l 1,8,-1
 477 173 l 1,9,-1
 430 137 l 1,10,-1
 280 321 l 1,11,-1
 130 138 l 1,12,-1
 83 173 l 1,13,-1
 240 348 l 1,14,-1
 30 422 l 1,0,-1
EndSplineSet
EndChar

StartChar: plus
Encoding: 43 43 14
Width: 560
GlyphClass: 2
Flags: W
LayerCount: 2
Fore
SplineSet
31 336 m 1,0,-1
 31 390 l 1,1,-1
 250 390 l 1,2,-1
 250 604 l 1,3,-1
 310 604 l 1,4,-1
 310 390 l 1,5,-1
 528 390 l 1,6,-1
 528 336 l 1,7,-1
 310 336 l 1,8,-1
 310 114 l 1,9,-1
 250 114 l 1,10,-1
 250 336 l 1,11,-1
 31 336 l 1,0,-1
EndSplineSet
Substitution2: "'sups' Superscript lookup 5 subtable" uni207A
Substitution2: "'aalt' Access All Alternates lookup 0 subtable" uni207A
EndChar

StartChar: comma
Encoding: 44 44 15
Width: 275
GlyphClass: 2
Flags: W
LayerCount: 2
Fore
SplineSet
20 -177 m 1,0,-1
 104 106 l 1,1,-1
 196 106 l 1,2,-1
 71 -177 l 1,3,-1
 20 -177 l 1,0,-1
EndSplineSet
EndChar

StartChar: hyphen
Encoding: 45 45 16
Width: 392
GlyphClass: 2
Flags: W
LayerCount: 2
Fore
SplineSet
36 336 m 1,0,-1
 36 390 l 1,1,-1
 356 390 l 1,2,-1
 356 336 l 1,3,-1
 36 336 l 1,0,-1
EndSplineSet
EndChar

StartChar: period
Encoding: 46 46 17
Width: 275
GlyphClass: 2
Flags: W
LayerCount: 2
Fore
SplineSet
82 0 m 1,0,-1
 82 106 l 1,1,-1
 194 106 l 1,2,-1
 194 0 l 1,3,-1
 82 0 l 1,0,-1
EndSplineSet
EndChar

StartChar: slash
Encoding: 47 47 18
Width: 330
GlyphClass: 2
Flags: W
LayerCount: 2
Fore
SplineSet
-11 -60 m 1,0,-1
 276 786 l 1,1,-1
 341 786 l 1,2,-1
 54 -60 l 1,3,-1
 -11 -60 l 1,0,-1
EndSplineSet
EndChar

StartChar: zero
Encoding: 48 48 19
Width: 550
GlyphClass: 2
Flags: W
LayerCount: 2
Fore
SplineSet
114 367 m 0,0,1
 114 213 114 213 154.5 123.5 c 128,-1,2
 195 34 195 34 277 34 c 0,3,4
 321 34 321 34 353 61 c 128,-1,5
 385 88 385 88 402.5 135.5 c 128,-1,6
 420 183 420 183 428 240.5 c 128,-1,7
 436 298 436 298 436 367 c 0,8,9
 436 522 436 522 396 611.5 c 128,-1,10
 356 701 356 701 275 701 c 0,11,12
 196 701 196 701 155 613 c 128,-1,13
 114 525 114 525 114 367 c 0,0,1
49 367 m 0,14,15
 49 565 49 565 112.5 659 c 128,-1,16
 176 753 176 753 275 753 c 0,17,18
 381 753 381 753 441 654.5 c 128,-1,19
 501 556 501 556 501 367 c 0,20,21
 501 285 501 285 488 217 c 128,-1,22
 475 149 475 149 449 95.5 c 128,-1,23
 423 42 423 42 379 12 c 128,-1,24
 335 -18 335 -18 277 -18 c 0,25,26
 176 -18 176 -18 112.5 79.5 c 128,-1,27
 49 177 49 177 49 367 c 0,14,15
EndSplineSet
EndChar

StartChar: one
Encoding: 49 49 20
Width: 550
GlyphClass: 2
Flags: W
LayerCount: 2
Fore
SplineSet
104 578 m 1,0,-1
 104 627 l 1,1,-1
 136 627 l 2,2,3
 217 627 217 627 245.5 649.5 c 128,-1,4
 274 672 274 672 274 719 c 2,5,-1
 274 745 l 1,6,-1
 328 745 l 1,7,-1
 328 -11 l 1,8,-1
 263 -11 l 1,9,-1
 263 578 l 1,10,-1
 104 578 l 1,0,-1
EndSplineSet
Substitution2: "'subs' Subscript lookup 6 subtable" uni2081
Substitution2: "'sups' Superscript lookup 5 subtable" onesuperior
Substitution2: "'sinf' Scientific Inferiors lookup 4 subtable" uni2081
AlternateSubs2: "'aalt' Access All Alternates lookup 1 subtable" uni2081 onesuperior
EndChar

StartChar: two
Encoding: 50 50 21
Width: 550
GlyphClass: 2
Flags: W
LayerCount: 2
Fore
SplineSet
50 575 m 1,0,1
 98 753 98 753 273 753 c 0,2,3
 365 753 365 753 424.5 700 c 128,-1,4
 484 647 484 647 484 552 c 0,5,6
 484 442 484 442 369 334 c 0,7,8
 247 220 247 220 197.5 164 c 128,-1,9
 148 108 148 108 129 52 c 1,10,-1
 484 52 l 1,11,-1
 484 0 l 1,12,-1
 53 0 l 1,13,14
 53 29 53 29 61 57.5 c 128,-1,15
 69 86 69 86 92 120 c 128,-1,16
 115 154 115 154 131 176 c 128,-1,17
 147 198 147 198 188.5 239.5 c 128,-1,18
 230 281 230 281 247.5 297.5 c 128,-1,19
 265 314 265 314 317 363 c 0,20,21
 419 460 419 460 419 553 c 0,22,23
 419 624 419 624 379 662.5 c 128,-1,24
 339 701 339 701 271 701 c 0,25,26
 206 701 206 701 164.5 663 c 128,-1,27
 123 625 123 625 106 560 c 1,28,-1
 50 575 l 1,0,1
EndSplineSet
Substitution2: "'subs' Subscript lookup 6 subtable" uni2082
Substitution2: "'sups' Superscript lookup 5 subtable" twosuperior
Substitution2: "'sinf' Scientific Inferiors lookup 4 subtable" uni2082
AlternateSubs2: "'aalt' Access All Alternates lookup 1 subtable" uni2082 twosuperior
EndChar

StartChar: three
Encoding: 51 51 22
Width: 550
GlyphClass: 2
Flags: W
LayerCount: 2
Fore
SplineSet
36 119 m 1,0,-1
 89 141 l 1,1,2
 147 34 147 34 261 34 c 0,3,4
 335 34 335 34 385 77 c 128,-1,5
 435 120 435 120 435 202 c 0,6,7
 435 279 435 279 381 321 c 128,-1,8
 327 363 327 363 250 363 c 0,9,10
 216 363 216 363 194 361 c 1,11,-1
 194 414 l 1,12,13
 214 412 214 412 246 412 c 0,14,15
 316 412 316 412 361 452 c 128,-1,16
 406 492 406 492 406 561 c 0,17,18
 406 622 406 622 365 661.5 c 128,-1,19
 324 701 324 701 259 701 c 0,20,21
 160 701 160 701 110 588 c 1,22,-1
 56 606 l 1,23,24
 80 670 80 670 131 711.5 c 128,-1,25
 182 753 182 753 262 753 c 0,26,27
 358 753 358 753 414 699.5 c 128,-1,28
 470 646 470 646 470 566 c 0,29,30
 470 500 470 500 434 455 c 128,-1,31
 398 410 398 410 347 392 c 1,32,33
 408 377 408 377 454 329 c 128,-1,34
 500 281 500 281 500 202 c 0,35,36
 500 96 500 96 434.5 39 c 128,-1,37
 369 -18 369 -18 262 -18 c 0,38,39
 180 -18 180 -18 122.5 21 c 128,-1,40
 65 60 65 60 36 119 c 1,0,-1
EndSplineSet
Substitution2: "'subs' Subscript lookup 6 subtable" uni2083
Substitution2: "'sups' Superscript lookup 5 subtable" threesuperior
Substitution2: "'sinf' Scientific Inferiors lookup 4 subtable" uni2083
AlternateSubs2: "'aalt' Access All Alternates lookup 1 subtable" uni2083 threesuperior
EndChar

StartChar: four
Encoding: 52 52 23
Width: 550
GlyphClass: 2
Flags: W
LayerCount: 2
Fore
SplineSet
21 223 m 1,0,-1
 364 746 l 1,1,-1
 423 746 l 1,2,-1
 423 225 l 1,3,-1
 535 225 l 1,4,-1
 535 172 l 1,5,-1
 423 172 l 1,6,-1
 423 -11 l 1,7,-1
 360 -11 l 1,8,-1
 360 172 l 1,9,-1
 21 172 l 1,10,-1
 21 223 l 1,0,-1
83 225 m 1,11,-1
 360 225 l 1,12,-1
 360 535 l 2,13,14
 360 594 360 594 363 654 c 1,15,-1
 360 654 l 1,16,-1
 295 550 l 1,17,-1
 83 225 l 1,11,-1
EndSplineSet
Substitution2: "'subs' Subscript lookup 6 subtable" uni2084
Substitution2: "'sups' Superscript lookup 5 subtable" uni2074
Substitution2: "'sinf' Scientific Inferiors lookup 4 subtable" uni2084
AlternateSubs2: "'aalt' Access All Alternates lookup 1 subtable" uni2084 uni2074
EndChar

StartChar: five
Encoding: 53 53 24
Width: 550
GlyphClass: 2
Flags: W
LayerCount: 2
Fore
SplineSet
46 112 m 1,0,-1
 98 133 l 1,1,2
 122 88 122 88 163.5 61 c 128,-1,3
 205 34 205 34 255 34 c 0,4,5
 334 34 334 34 378.5 85.5 c 128,-1,6
 423 137 423 137 423 217 c 0,7,8
 423 299 423 299 376 350 c 128,-1,9
 329 401 329 401 253 401 c 0,10,11
 215 401 215 401 174.5 383.5 c 128,-1,12
 134 366 134 366 105 336 c 1,13,-1
 67 351 l 1,14,-1
 105 735 l 1,15,-1
 444 735 l 1,16,-1
 444 683 l 1,17,-1
 163 683 l 1,18,-1
 133 410 l 1,19,20
 195 453 195 453 275 453 c 0,21,22
 369 453 369 453 428.5 389 c 128,-1,23
 488 325 488 325 488 218 c 0,24,25
 488 119 488 119 428 50.5 c 128,-1,26
 368 -18 368 -18 255 -18 c 0,27,28
 112 -18 112 -18 46 112 c 1,0,-1
EndSplineSet
EndChar

StartChar: six
Encoding: 54 54 25
Width: 550
GlyphClass: 2
Flags: W
LayerCount: 2
Fore
SplineSet
120 227 m 0,0,1
 120 144 120 144 165 89 c 128,-1,2
 210 34 210 34 283 34 c 0,3,4
 354 34 354 34 399.5 88.5 c 128,-1,5
 445 143 445 143 445 227 c 0,6,7
 445 313 445 313 399 367 c 128,-1,8
 353 421 353 421 281 421 c 0,9,10
 212 421 212 421 166 365 c 128,-1,11
 120 309 120 309 120 227 c 0,0,1
50 326 m 0,12,13
 50 406 50 406 63.5 478 c 128,-1,14
 77 550 77 550 105.5 613.5 c 128,-1,15
 134 677 134 677 186.5 715 c 128,-1,16
 239 753 239 753 309 753 c 0,17,18
 434 753 434 753 498 628 c 1,19,-1
 447 609 l 1,20,21
 394 701 394 701 309 701 c 0,22,23
 262 701 262 701 226.5 676 c 128,-1,24
 191 651 191 651 170.5 608.5 c 128,-1,25
 150 566 150 566 139 524.5 c 128,-1,26
 128 483 128 483 122 436 c 0,27,28
 116 388 116 388 113 345 c 1,29,30
 132 403 132 403 179 438.5 c 128,-1,31
 226 474 226 474 291 474 c 0,32,33
 387 474 387 474 447.5 403.5 c 128,-1,34
 508 333 508 333 508 228 c 0,35,36
 508 124 508 124 448.5 53 c 128,-1,37
 389 -18 389 -18 287 -18 c 0,38,39
 184 -18 184 -18 122 52 c 0,40,41
 50 132 50 132 50 326 c 0,12,13
EndSplineSet
EndChar

StartChar: seven
Encoding: 55 55 26
Width: 550
GlyphClass: 2
Flags: W
LayerCount: 2
Fore
SplineSet
36 681 m 1,0,-1
 36 735 l 1,1,-1
 486 735 l 1,2,-1
 486 691 l 1,3,4
 379 514 379 514 312.5 348.5 c 128,-1,5
 246 183 246 183 203 -11 c 1,6,-1
 138 -11 l 1,7,8
 182 193 182 193 248.5 351 c 128,-1,9
 315 509 315 509 413 681 c 1,10,-1
 36 681 l 1,0,-1
EndSplineSet
EndChar

StartChar: eight
Encoding: 56 56 27
Width: 550
GlyphClass: 2
Flags: W
LayerCount: 2
Fore
SplineSet
129 560 m 0,0,1
 129 497 129 497 172 458 c 128,-1,2
 215 419 215 419 275 419 c 0,3,4
 336 419 336 419 378.5 459 c 128,-1,5
 421 499 421 499 421 560 c 0,6,7
 421 622 421 622 379 661.5 c 128,-1,8
 337 701 337 701 275 701 c 0,9,10
 210 701 210 701 169.5 660 c 128,-1,11
 129 619 129 619 129 560 c 0,0,1
40 194 m 0,12,13
 40 274 40 274 82.5 324 c 128,-1,14
 125 374 125 374 188 394 c 1,15,16
 64 441 64 441 64 563 c 0,17,18
 64 642 64 642 123.5 697.5 c 128,-1,19
 183 753 183 753 275 753 c 0,20,21
 365 753 365 753 425 698.5 c 128,-1,22
 485 644 485 644 485 563 c 0,23,24
 485 497 485 497 449 454 c 128,-1,25
 413 411 413 411 362 394 c 1,26,27
 426 375 426 375 468.5 324 c 128,-1,28
 511 273 511 273 511 193 c 0,29,30
 511 101 511 101 444.5 41.5 c 128,-1,31
 378 -18 378 -18 275 -18 c 0,32,33
 175 -18 175 -18 107.5 40 c 128,-1,34
 40 98 40 98 40 194 c 0,12,13
105 198 m 0,35,36
 105 127 105 127 154 80.5 c 128,-1,37
 203 34 203 34 275 34 c 0,38,39
 348 34 348 34 397.5 81 c 128,-1,40
 447 128 447 128 447 198 c 0,41,42
 447 270 447 270 397 318.5 c 128,-1,43
 347 367 347 367 275 367 c 0,44,45
 205 367 205 367 155 319 c 128,-1,46
 105 271 105 271 105 198 c 0,35,36
EndSplineSet
EndChar

StartChar: nine
Encoding: 57 57 28
Width: 550
GlyphClass: 2
Flags: W
LayerCount: 2
Fore
SplineSet
103 509 m 0,0,1
 103 423 103 423 151 370 c 128,-1,2
 199 317 199 317 265 317 c 0,3,4
 332 317 332 317 379 371.5 c 128,-1,5
 426 426 426 426 426 508 c 0,6,7
 426 589 426 589 380.5 645 c 128,-1,8
 335 701 335 701 265 701 c 0,9,10
 196 701 196 701 149.5 647 c 128,-1,11
 103 593 103 593 103 509 c 0,0,1
48 111 m 1,12,-1
 101 131 l 1,13,14
 122 88 122 88 160 61 c 128,-1,15
 198 34 198 34 246 34 c 0,16,17
 297 34 297 34 334 61.5 c 128,-1,18
 371 89 371 89 391.5 139 c 128,-1,19
 412 189 412 189 421 248 c 128,-1,20
 430 307 430 307 431 380 c 1,21,22
 412 334 412 334 366.5 299.5 c 128,-1,23
 321 265 321 265 257 265 c 0,24,25
 168 265 168 265 103.5 331 c 128,-1,26
 39 397 39 397 39 508 c 0,27,28
 39 615 39 615 103.5 684 c 128,-1,29
 168 753 168 753 265 753 c 0,30,31
 349 753 349 753 405 700.5 c 128,-1,32
 461 648 461 648 480 566 c 0,33,34
 493 508 493 508 493 405 c 0,35,36
 493 -18 493 -18 244 -18 c 0,37,38
 174 -18 174 -18 123 20 c 128,-1,39
 72 58 72 58 48 111 c 1,12,-1
EndSplineSet
EndChar

StartChar: colon
Encoding: 58 58 29
Width: 275
GlyphClass: 2
Flags: W
LayerCount: 2
Fore
SplineSet
82 0 m 1,0,-1
 82 107 l 1,1,-1
 194 107 l 1,2,-1
 194 0 l 1,3,-1
 82 0 l 1,0,-1
82 388 m 1,4,-1
 82 495 l 1,5,-1
 194 495 l 1,6,-1
 194 388 l 1,7,-1
 82 388 l 1,4,-1
EndSplineSet
EndChar

StartChar: semicolon
Encoding: 59 59 30
Width: 275
GlyphClass: 2
Flags: W
LayerCount: 2
Fore
SplineSet
20 -183 m 1,0,-1
 104 101 l 1,1,-1
 196 101 l 1,2,-1
 71 -183 l 1,3,-1
 20 -183 l 1,0,-1
81 382 m 1,4,-1
 81 489 l 1,5,-1
 192 489 l 1,6,-1
 192 382 l 1,7,-1
 81 382 l 1,4,-1
EndSplineSet
EndChar

StartChar: less
Encoding: 60 60 31
Width: 560
GlyphClass: 2
Flags: W
LayerCount: 2
Fore
SplineSet
61 327 m 1,0,-1
 61 383 l 1,1,-1
 474 696 l 1,2,-1
 507 650 l 1,3,-1
 121 355 l 1,4,-1
 507 60 l 1,5,-1
 474 14 l 1,6,-1
 61 327 l 1,0,-1
EndSplineSet
EndChar

StartChar: equal
Encoding: 61 61 32
Width: 560
GlyphClass: 2
Flags: W
LayerCount: 2
Fore
SplineSet
51 241 m 1,0,-1
 51 295 l 1,1,-1
 509 295 l 1,2,-1
 509 241 l 1,3,-1
 51 241 l 1,0,-1
51 432 m 1,4,-1
 51 486 l 1,5,-1
 509 486 l 1,6,-1
 509 432 l 1,7,-1
 51 432 l 1,4,-1
EndSplineSet
Substitution2: "'sups' Superscript lookup 5 subtable" uni207C
Substitution2: "'aalt' Access All Alternates lookup 0 subtable" uni207C
EndChar

StartChar: greater
Encoding: 62 62 33
Width: 560
GlyphClass: 2
Flags: W
LayerCount: 2
Fore
SplineSet
86 14 m 1,0,-1
 54 60 l 1,1,-1
 438 355 l 1,2,-1
 54 650 l 1,3,-1
 86 696 l 1,4,-1
 500 383 l 1,5,-1
 500 327 l 1,6,-1
 86 14 l 1,0,-1
EndSplineSet
EndChar

StartChar: question
Encoding: 63 63 34
Width: 550
GlyphClass: 2
Flags: W
LayerCount: 2
Fore
SplineSet
66 600 m 1,0,1
 93 671 93 671 148.5 712 c 128,-1,2
 204 753 204 753 275 753 c 0,3,4
 367 753 367 753 420.5 700 c 128,-1,5
 474 647 474 647 474 558 c 0,6,7
 474 513 474 513 455.5 476 c 128,-1,8
 437 439 437 439 410.5 413.5 c 128,-1,9
 384 388 384 388 357.5 363 c 128,-1,10
 331 338 331 338 312.5 302 c 128,-1,11
 294 266 294 266 294 222 c 2,12,-1
 294 198 l 1,13,-1
 231 198 l 1,14,-1
 231 225 l 2,15,16
 231 274 231 274 249.5 313.5 c 128,-1,17
 268 353 268 353 294 379 c 128,-1,18
 320 405 320 405 346 430 c 128,-1,19
 372 455 372 455 390.5 487.5 c 128,-1,20
 409 520 409 520 409 559 c 0,21,22
 409 623 409 623 373.5 661.5 c 128,-1,23
 338 700 338 700 275 700 c 0,24,25
 173 700 173 700 122 580 c 1,26,-1
 66 600 l 1,0,1
206 -9 m 1,27,-1
 206 94 l 1,28,-1
 318 94 l 1,29,-1
 318 -9 l 1,30,-1
 206 -9 l 1,27,-1
EndSplineSet
EndChar

StartChar: at
Encoding: 64 64 35
Width: 953
GlyphClass: 2
Flags: W
LayerCount: 2
Fore
SplineSet
62 345 m 256,0,1
 62 528 62 528 183.5 644 c 128,-1,2
 305 760 305 760 499 760 c 0,3,4
 674 760 674 760 783 659 c 128,-1,5
 892 558 892 558 892 397 c 0,6,7
 892 257 892 257 837.5 188 c 128,-1,8
 783 119 783 119 709 119 c 0,9,10
 664 119 664 119 631 151.5 c 128,-1,11
 598 184 598 184 596 234 c 1,12,-1
 595 234 l 1,13,14
 579 191 579 191 536 155.5 c 128,-1,15
 493 120 493 120 435 120 c 0,16,17
 365 120 365 120 319 172.5 c 128,-1,18
 273 225 273 225 273 312 c 0,19,20
 273 428 273 428 334.5 495 c 128,-1,21
 396 562 396 562 480 562 c 0,22,23
 529 562 529 562 558.5 540 c 128,-1,24
 588 518 588 518 600 493 c 1,25,-1
 604 553 l 1,26,-1
 653 553 l 1,27,-1
 640 277 l 2,28,29
 640 272 640 272 640 268 c 0,30,31
 640 222 640 222 659.5 195 c 128,-1,32
 679 168 679 168 713 168 c 0,33,34
 768 168 768 168 802.5 227 c 128,-1,35
 837 286 837 286 837 392 c 0,36,37
 837 534 837 534 746 623.5 c 128,-1,38
 655 713 655 713 498 713 c 0,39,40
 333 713 333 713 225.5 611 c 128,-1,41
 118 509 118 509 118 345 c 0,42,43
 118 176 118 176 220 77 c 128,-1,44
 322 -22 322 -22 485 -22 c 0,45,46
 604 -22 604 -22 706 9 c 1,47,-1
 717 -35 l 1,48,49
 613 -68 613 -68 485 -68 c 0,50,51
 293 -68 293 -68 177.5 47 c 128,-1,52
 62 162 62 162 62 345 c 256,0,1
331 312 m 0,53,54
 331 249 331 249 362 210 c 128,-1,55
 393 171 393 171 441 171 c 0,56,57
 464 171 464 171 487.5 181.5 c 128,-1,58
 511 192 511 192 535.5 215 c 128,-1,59
 560 238 560 238 575 285.5 c 128,-1,60
 590 333 590 333 590 397 c 0,61,62
 590 444 590 444 563.5 479 c 128,-1,63
 537 514 537 514 481 514 c 0,64,65
 424 514 424 514 377.5 460 c 128,-1,66
 331 406 331 406 331 312 c 0,53,54
EndSplineSet
EndChar

StartChar: A
Encoding: 65 65 36
Width: 632
GlyphClass: 2
Flags: W
LayerCount: 2
Fore
SplineSet
168 273 m 1,0,-1
 464 273 l 1,1,-1
 365 547 l 2,2,3
 358 568 358 568 341.5 613.5 c 128,-1,4
 325 659 325 659 319 677 c 1,5,-1
 314 677 l 1,6,7
 309 664 309 664 292.5 616.5 c 128,-1,8
 276 569 276 569 269 547 c 2,9,-1
 168 273 l 1,0,-1
-2 0 m 1,10,-1
 277 735 l 1,11,-1
 356 735 l 1,12,-1
 634 0 l 1,13,-1
 564 0 l 1,14,-1
 484 222 l 1,15,-1
 149 222 l 1,16,-1
 68 0 l 1,17,-1
 -2 0 l 1,10,-1
EndSplineSet
Substitution2: "Single Substitution lookup 12 subtable" ordfeminine
EndChar

StartChar: B
Encoding: 66 66 37
Width: 672
GlyphClass: 2
Flags: W
LayerCount: 2
Fore
SplineSet
110 0 m 1,0,-1
 110 735 l 1,1,-1
 377 735 l 2,2,3
 481 735 481 735 536 684.5 c 128,-1,4
 591 634 591 634 591 549 c 0,5,6
 591 487 591 487 559 445 c 128,-1,7
 527 403 527 403 478 385 c 1,8,9
 538 369 538 369 579 320 c 128,-1,10
 620 271 620 271 620 203 c 0,11,12
 620 117 620 117 563.5 58.5 c 128,-1,13
 507 0 507 0 410 0 c 2,14,-1
 110 0 l 1,0,-1
173 54 m 1,15,-1
 395 54 l 2,16,17
 465 54 465 54 510 94.5 c 128,-1,18
 555 135 555 135 555 201 c 0,19,20
 555 265 555 265 509 308.5 c 128,-1,21
 463 352 463 352 390 352 c 2,22,-1
 173 352 l 1,23,-1
 173 54 l 1,15,-1
173 405 m 1,24,-1
 364 405 l 2,25,26
 434 405 434 405 480.5 440 c 128,-1,27
 527 475 527 475 527 544 c 0,28,29
 527 604 527 604 488.5 642.5 c 128,-1,30
 450 681 450 681 369 681 c 2,31,-1
 173 681 l 1,32,-1
 173 405 l 1,24,-1
EndSplineSet
EndChar

StartChar: C
Encoding: 67 67 38
Width: 644
GlyphClass: 2
Flags: W
LayerCount: 2
Fore
SplineSet
55 367 m 256,0,1
 55 547 55 547 141 650 c 128,-1,2
 227 753 227 753 364 753 c 0,3,4
 449 753 449 753 507.5 706.5 c 128,-1,5
 566 660 566 660 594 598 c 1,6,-1
 540 578 l 1,7,8
 476 699 476 699 363 699 c 0,9,10
 252 699 252 699 186 608 c 128,-1,11
 120 517 120 517 120 367 c 0,12,13
 120 214 120 214 187 125.5 c 128,-1,14
 254 37 254 37 363 37 c 0,15,16
 432 37 432 37 481 74 c 128,-1,17
 530 111 530 111 556 167 c 1,18,-1
 613 148 l 1,19,20
 580 77 580 77 518.5 29.5 c 128,-1,21
 457 -18 457 -18 364 -18 c 0,22,23
 227 -18 227 -18 141 84.5 c 128,-1,24
 55 187 55 187 55 367 c 256,0,1
EndSplineSet
EndChar

StartChar: D
Encoding: 68 68 39
Width: 688
GlyphClass: 2
Flags: W
LayerCount: 2
Fore
SplineSet
110 0 m 1,0,-1
 110 735 l 1,1,-1
 303 735 l 2,2,3
 460 735 460 735 550.5 642 c 128,-1,4
 641 549 641 549 641 367 c 0,5,6
 641 192 641 192 552.5 96 c 128,-1,7
 464 0 464 0 302 0 c 2,8,-1
 110 0 l 1,0,-1
173 54 m 1,9,-1
 289 54 l 2,10,11
 422 54 422 54 499 129 c 128,-1,12
 576 204 576 204 576 367 c 0,13,14
 576 532 576 532 500 606.5 c 128,-1,15
 424 681 424 681 291 681 c 2,16,-1
 173 681 l 1,17,-1
 173 54 l 1,9,-1
EndSplineSet
EndChar

StartChar: E
Encoding: 69 69 40
Width: 612
GlyphClass: 2
Flags: W
LayerCount: 2
Fore
SplineSet
110 0 m 1,0,-1
 110 735 l 1,1,-1
 562 735 l 1,2,-1
 562 681 l 1,3,-1
 173 681 l 1,4,-1
 173 407 l 1,5,-1
 525 407 l 1,6,-1
 525 354 l 1,7,-1
 173 354 l 1,8,-1
 173 54 l 1,9,-1
 572 54 l 1,10,-1
 572 0 l 1,11,-1
 110 0 l 1,0,-1
EndSplineSet
EndChar

StartChar: F
Encoding: 70 70 41
Width: 571
GlyphClass: 2
Flags: W
LayerCount: 2
Fore
SplineSet
110 0 m 1,0,-1
 110 735 l 1,1,-1
 547 735 l 1,2,-1
 547 681 l 1,3,-1
 173 681 l 1,4,-1
 173 397 l 1,5,-1
 510 397 l 1,6,-1
 510 344 l 1,7,-1
 173 344 l 1,8,-1
 173 0 l 1,9,-1
 110 0 l 1,0,-1
EndSplineSet
EndChar

StartChar: G
Encoding: 71 71 42
Width: 714
GlyphClass: 2
Flags: W
LayerCount: 2
Fore
SplineSet
55 367 m 0,0,1
 55 539 55 539 139 646 c 128,-1,2
 223 753 223 753 371 753 c 0,3,4
 462 753 462 753 521 707.5 c 128,-1,5
 580 662 580 662 609 603 c 1,6,-1
 555 584 l 1,7,8
 486 699 486 699 371 699 c 0,9,10
 252 699 252 699 186 607.5 c 128,-1,11
 120 516 120 516 120 367 c 0,12,13
 120 213 120 213 187.5 125 c 128,-1,14
 255 37 255 37 368 37 c 0,15,16
 470 37 470 37 523.5 105 c 128,-1,17
 577 173 577 173 577 266 c 2,18,-1
 577 337 l 1,19,-1
 359 337 l 1,20,-1
 359 391 l 1,21,-1
 639 391 l 1,22,-1
 639 0 l 1,23,-1
 592 0 l 1,24,-1
 587 122 l 1,25,26
 530 -18 530 -18 366 -18 c 0,27,28
 225 -18 225 -18 140 85.5 c 128,-1,29
 55 189 55 189 55 367 c 0,0,1
EndSplineSet
EndChar

StartChar: H
Encoding: 72 72 43
Width: 732
GlyphClass: 2
Flags: W
LayerCount: 2
Fore
SplineSet
110 0 m 1,0,-1
 110 735 l 1,1,-1
 173 735 l 1,2,-1
 173 405 l 1,3,-1
 559 405 l 1,4,-1
 559 735 l 1,5,-1
 622 735 l 1,6,-1
 622 0 l 1,7,-1
 559 0 l 1,8,-1
 559 352 l 1,9,-1
 173 352 l 1,10,-1
 173 0 l 1,11,-1
 110 0 l 1,0,-1
EndSplineSet
EndChar

StartChar: I
Encoding: 73 73 44
Width: 283
GlyphClass: 2
Flags: W
LayerCount: 2
Fore
SplineSet
110 0 m 1,0,-1
 110 735 l 1,1,-1
 173 735 l 1,2,-1
 173 0 l 1,3,-1
 110 0 l 1,0,-1
EndSplineSet
EndChar

StartChar: J
Encoding: 74 74 45
Width: 494
GlyphClass: 2
Flags: W
LayerCount: 2
Fore
SplineSet
16 110 m 1,0,-1
 73 132 l 1,1,2
 89 87 89 87 121 62 c 128,-1,3
 153 37 153 37 193 37 c 0,4,5
 194 37 194 37 196 37 c 0,6,7
 321 39 321 39 321 212 c 2,8,-1
 321 735 l 1,9,-1
 384 735 l 1,10,-1
 384 200 l 2,11,12
 384 92 384 92 336.5 37 c 128,-1,13
 289 -18 289 -18 198 -18 c 0,14,15
 63 -18 63 -18 16 110 c 1,0,-1
EndSplineSet
EndChar

StartChar: K
Encoding: 75 75 46
Width: 635
GlyphClass: 2
Flags: W
LayerCount: 2
Fore
SplineSet
110 0 m 1,0,-1
 110 735 l 1,1,-1
 173 735 l 1,2,-1
 173 325 l 1,3,-1
 175 325 l 1,4,-1
 529 735 l 1,5,-1
 614 735 l 1,6,-1
 336 418 l 1,7,-1
 632 0 l 1,8,-1
 552 0 l 1,9,-1
 294 372 l 1,10,-1
 173 234 l 1,11,-1
 173 0 l 1,12,-1
 110 0 l 1,0,-1
EndSplineSet
EndChar

StartChar: L
Encoding: 76 76 47
Width: 538
GlyphClass: 2
Flags: W
LayerCount: 2
Fore
SplineSet
110 0 m 1,0,-1
 110 735 l 1,1,-1
 173 735 l 1,2,-1
 173 54 l 1,3,-1
 529 54 l 1,4,-1
 529 0 l 1,5,-1
 110 0 l 1,0,-1
EndSplineSet
EndChar

StartChar: M
Encoding: 77 77 48
Width: 884
GlyphClass: 2
Flags: W
LayerCount: 2
Fore
SplineSet
110 0 m 1,0,-1
 110 735 l 1,1,-1
 193 735 l 1,2,-1
 370 315 l 2,3,4
 385 279 385 279 408.5 219 c 128,-1,5
 432 159 432 159 440 138 c 1,6,-1
 444 138 l 1,7,8
 480 232 480 232 514 315 c 2,9,-1
 691 735 l 1,10,-1
 775 735 l 1,11,-1
 775 0 l 1,12,-1
 712 0 l 1,13,-1
 712 446 l 2,14,15
 712 520 712 520 720 656 c 1,16,-1
 717 656 l 1,17,-1
 471 59 l 1,18,-1
 414 59 l 1,19,-1
 208 557 l 1,20,-1
 168 656 l 1,21,-1
 164 656 l 1,22,23
 173 519 173 519 173 446 c 2,24,-1
 173 0 l 1,25,-1
 110 0 l 1,0,-1
EndSplineSet
EndChar

StartChar: N
Encoding: 78 78 49
Width: 737
GlyphClass: 2
Flags: W
LayerCount: 2
Fore
SplineSet
110 0 m 1,0,-1
 110 735 l 1,1,-1
 184 735 l 1,2,-1
 481 238 l 1,3,-1
 569 89 l 1,4,-1
 574 89 l 1,5,6
 564 172 564 172 564 286 c 2,7,-1
 564 735 l 1,8,-1
 628 735 l 1,9,-1
 628 0 l 1,10,-1
 554 0 l 1,11,-1
 169 645 l 1,12,-1
 166 645 l 1,13,14
 173 560 173 560 173 442 c 2,15,-1
 173 0 l 1,16,-1
 110 0 l 1,0,-1
EndSplineSet
EndChar

StartChar: O
Encoding: 79 79 50
Width: 709
GlyphClass: 2
Flags: W
LayerCount: 2
Fore
SplineSet
55 367 m 0,0,1
 55 541 55 541 136.5 647 c 128,-1,2
 218 753 218 753 355 753 c 0,3,4
 493 753 493 753 573.5 646.5 c 128,-1,5
 654 540 654 540 654 366 c 0,6,7
 654 191 654 191 573 86.5 c 128,-1,8
 492 -18 492 -18 355 -18 c 0,9,10
 217 -18 217 -18 136 87 c 128,-1,11
 55 192 55 192 55 367 c 0,0,1
120 367 m 0,12,13
 120 217 120 217 183 127 c 128,-1,14
 246 37 246 37 355 37 c 0,15,16
 462 37 462 37 525.5 125.5 c 128,-1,17
 589 214 589 214 589 366 c 256,18,19
 589 518 589 518 527 608.5 c 128,-1,20
 465 699 465 699 355 699 c 0,21,22
 247 699 247 699 183.5 609 c 128,-1,23
 120 519 120 519 120 367 c 0,12,13
EndSplineSet
Substitution2: "Single Substitution lookup 12 subtable" ordmasculine
EndChar

StartChar: P
Encoding: 80 80 51
Width: 655
GlyphClass: 2
Flags: W
LayerCount: 2
Fore
SplineSet
110 0 m 1,0,-1
 110 735 l 1,1,-1
 385 735 l 2,2,3
 489 735 489 735 550.5 677 c 128,-1,4
 612 619 612 619 612 523 c 0,5,6
 612 424 612 424 549 367.5 c 128,-1,7
 486 311 486 311 385 311 c 2,8,-1
 173 311 l 1,9,-1
 173 0 l 1,10,-1
 110 0 l 1,0,-1
173 364 m 1,11,-1
 373 364 l 2,12,13
 454 364 454 364 500.5 404 c 128,-1,14
 547 444 547 444 547 523 c 0,15,16
 547 599 547 599 501 640 c 128,-1,17
 455 681 455 681 371 681 c 2,18,-1
 173 681 l 1,19,-1
 173 364 l 1,11,-1
EndSplineSet
EndChar

StartChar: Q
Encoding: 81 81 52
Width: 708
GlyphClass: 2
Flags: W
LayerCount: 2
Fore
SplineSet
55 366 m 0,0,1
 55 542 55 542 137 647.5 c 128,-1,2
 219 753 219 753 355 753 c 0,3,4
 492 753 492 753 573 646.5 c 128,-1,5
 654 540 654 540 654 366 c 0,6,7
 654 193 654 193 574 88 c 0,8,9
 569 82 569 82 565 77 c 1,10,-1
 653 -14 l 1,11,-1
 611 -51 l 1,12,-1
 525 38 l 1,13,14
 455 -18 455 -18 355 -18 c 0,15,16
 217 -18 217 -18 136 87.5 c 128,-1,17
 55 193 55 193 55 366 c 0,0,1
345 223 m 1,18,-1
 387 261 l 1,19,-1
 522 121 l 1,20,21
 524 124 524 124 526 126 c 0,22,23
 589 215 589 215 589 366 c 0,24,25
 589 522 589 522 525 610.5 c 128,-1,26
 461 699 461 699 355 699 c 0,27,28
 248 699 248 699 184 609.5 c 128,-1,29
 120 520 120 520 120 366 c 0,30,31
 120 215 120 215 183.5 126 c 128,-1,32
 247 37 247 37 355 37 c 0,33,34
 430 37 430 37 483 81 c 1,35,-1
 345 223 l 1,18,-1
EndSplineSet
EndChar

StartChar: R
Encoding: 82 82 53
Width: 665
GlyphClass: 2
Flags: W
LayerCount: 2
Fore
SplineSet
173 379 m 1,0,-1
 386 379 l 2,1,2
 464 379 464 379 506.5 420.5 c 128,-1,3
 549 462 549 462 549 531 c 0,4,5
 549 597 549 597 504.5 639 c 128,-1,6
 460 681 460 681 377 681 c 2,7,-1
 173 681 l 1,8,-1
 173 379 l 1,0,-1
110 0 m 1,9,-1
 110 735 l 1,10,-1
 393 735 l 2,11,12
 499 735 499 735 556.5 677.5 c 128,-1,13
 614 620 614 620 614 535 c 0,14,15
 614 454 614 454 572.5 406.5 c 128,-1,16
 531 359 531 359 481 348 c 1,17,18
 523 328 523 328 544 294 c 128,-1,19
 565 260 565 260 578 203 c 0,20,21
 579 197 579 197 585 173 c 128,-1,22
 591 149 591 149 592 144 c 128,-1,23
 593 139 593 139 598 120 c 128,-1,24
 603 101 603 101 605.5 95 c 128,-1,25
 608 89 608 89 613 73.5 c 128,-1,26
 618 58 618 58 622.5 49 c 128,-1,27
 627 40 627 40 633.5 26.5 c 128,-1,28
 640 13 640 13 648 0 c 1,29,-1
 577 0 l 1,30,31
 561 30 561 30 548.5 64.5 c 128,-1,32
 536 99 536 99 530 122 c 128,-1,33
 524 145 524 145 512 199 c 0,34,35
 499 256 499 256 470 290.5 c 128,-1,36
 441 325 441 325 379 325 c 2,37,-1
 173 325 l 1,38,-1
 173 0 l 1,39,-1
 110 0 l 1,9,-1
EndSplineSet
EndChar

StartChar: S
Encoding: 83 83 54
Width: 611
GlyphClass: 2
Flags: W
LayerCount: 2
Fore
SplineSet
46 130 m 1,0,-1
 105 152 l 1,1,2
 136 99 136 99 190 68 c 128,-1,3
 244 37 244 37 315 37 c 0,4,5
 397 37 397 37 448.5 77 c 128,-1,6
 500 117 500 117 500 187 c 0,7,8
 500 215 500 215 488.5 238.5 c 128,-1,9
 477 262 477 262 461.5 277.5 c 128,-1,10
 446 293 446 293 417.5 308 c 128,-1,11
 389 323 389 323 366.5 331.5 c 128,-1,12
 344 340 344 340 308 352 c 0,13,14
 275 363 275 363 258 368.5 c 128,-1,15
 241 374 241 374 211 386.5 c 128,-1,16
 181 399 181 399 164.5 409 c 128,-1,17
 148 419 148 419 127 435.5 c 128,-1,18
 106 452 106 452 95 469.5 c 128,-1,19
 84 487 84 487 76 511.5 c 128,-1,20
 68 536 68 536 68 564 c 0,21,22
 68 650 68 650 133.5 701.5 c 128,-1,23
 199 753 199 753 310 753 c 0,24,25
 392 753 392 753 454.5 715.5 c 128,-1,26
 517 678 517 678 544 622 c 1,27,-1
 490 603 l 1,28,29
 429 699 429 699 308 699 c 0,30,31
 226 699 226 699 179.5 662 c 128,-1,32
 133 625 133 625 133 564 c 0,33,34
 133 519 133 519 166.5 486 c 128,-1,35
 200 453 200 453 231 439.5 c 128,-1,36
 262 426 262 426 333 403 c 0,37,38
 340 400 340 400 344 399 c 0,39,40
 383 386 383 386 410 375.5 c 128,-1,41
 437 365 437 365 469 347 c 128,-1,42
 501 329 501 329 520 308.5 c 128,-1,43
 539 288 539 288 552 257.5 c 128,-1,44
 565 227 565 227 565 190 c 0,45,46
 565 92 565 92 497 37 c 128,-1,47
 429 -18 429 -18 313 -18 c 0,48,49
 218 -18 218 -18 150.5 22 c 128,-1,50
 83 62 83 62 46 130 c 1,0,-1
EndSplineSet
EndChar

StartChar: T
Encoding: 84 84 55
Width: 547
GlyphClass: 2
Flags: W
LayerCount: 2
Fore
SplineSet
15 681 m 1,0,-1
 15 735 l 1,1,-1
 534 735 l 1,2,-1
 534 681 l 1,3,-1
 306 681 l 1,4,-1
 306 0 l 1,5,-1
 243 0 l 1,6,-1
 243 681 l 1,7,-1
 15 681 l 1,0,-1
EndSplineSet
EndChar

StartChar: U
Encoding: 85 85 56
Width: 730
GlyphClass: 2
Flags: W
LayerCount: 2
Fore
SplineSet
109 261 m 2,0,-1
 109 735 l 1,1,-1
 172 735 l 1,2,-1
 172 264 l 2,3,4
 172 151 172 151 225 94 c 128,-1,5
 278 37 278 37 365 37 c 0,6,7
 454 37 454 37 506.5 95 c 128,-1,8
 559 153 559 153 559 264 c 2,9,-1
 559 735 l 1,10,-1
 622 735 l 1,11,-1
 622 261 l 2,12,13
 622 129 622 129 556 55.5 c 128,-1,14
 490 -18 490 -18 365 -18 c 0,15,16
 243 -18 243 -18 176 54.5 c 128,-1,17
 109 127 109 127 109 261 c 2,0,-1
EndSplineSet
EndChar

StartChar: V
Encoding: 86 86 57
Width: 577
GlyphClass: 2
Flags: W
LayerCount: 2
Fore
SplineSet
-2 735 m 1,0,-1
 68 735 l 1,1,-1
 238 215 l 2,2,3
 243 198 243 198 260 146 c 128,-1,4
 277 94 277 94 286 64 c 1,5,-1
 289 64 l 1,6,7
 298 96 298 96 315.5 149 c 128,-1,8
 333 202 333 202 337 215 c 2,9,-1
 510 735 l 1,10,-1
 581 735 l 1,11,-1
 327 0 l 1,12,-1
 250 0 l 1,13,-1
 -2 735 l 1,0,-1
EndSplineSet
EndChar

StartChar: W
Encoding: 87 87 58
Width: 847
GlyphClass: 2
Flags: W
LayerCount: 2
Fore
SplineSet
11 735 m 1,0,-1
 81 735 l 1,1,-1
 195 220 l 2,2,3
 215 116 215 116 223 71 c 1,4,-1
 228 71 l 1,5,6
 255 195 255 195 261 220 c 2,7,-1
 388 735 l 1,8,-1
 459 735 l 1,9,-1
 587 220 l 2,10,11
 596 182 596 182 621 71 c 1,12,-1
 624 71 l 1,13,14
 626 81 626 81 653 220 c 2,15,-1
 767 735 l 1,16,-1
 837 735 l 1,17,-1
 661 0 l 1,18,-1
 586 0 l 1,19,-1
 459 508 l 2,20,21
 436 604 436 604 426 656 c 1,22,-1
 423 656 l 1,23,24
 418 629 418 629 405.5 577 c 128,-1,25
 393 525 393 525 389 508 c 2,26,-1
 263 0 l 1,27,-1
 188 0 l 1,28,-1
 11 735 l 1,0,-1
EndSplineSet
EndChar

StartChar: X
Encoding: 88 88 59
Width: 559
GlyphClass: 2
Flags: W
LayerCount: 2
Fore
SplineSet
-3 0 m 1,0,-1
 239 378 l 1,1,-1
 9 735 l 1,2,-1
 88 735 l 1,3,-1
 209 540 l 1,4,-1
 278 426 l 1,5,-1
 281 426 l 1,6,7
 294 448 294 448 318.5 487 c 128,-1,8
 343 526 343 526 352 540 c 2,9,-1
 472 735 l 1,10,-1
 551 735 l 1,11,-1
 320 378 l 1,12,-1
 564 0 l 1,13,-1
 486 0 l 1,14,-1
 356 205 l 2,15,16
 342 227 342 227 315 271.5 c 128,-1,17
 288 316 288 316 281 328 c 1,18,-1
 278 328 l 1,19,20
 208 212 208 212 204 205 c 2,21,-1
 75 0 l 1,22,-1
 -3 0 l 1,0,-1
EndSplineSet
EndChar

StartChar: Y
Encoding: 89 89 60
Width: 580
GlyphClass: 2
Flags: W
LayerCount: 2
Fore
SplineSet
-3 735 m 1,0,-1
 73 735 l 1,1,-1
 217 487 l 2,2,3
 231 463 231 463 259 413.5 c 128,-1,4
 287 364 287 364 289 360 c 1,5,-1
 291 360 l 1,6,7
 302 378 302 378 314.5 400 c 128,-1,8
 327 422 327 422 341.5 448 c 128,-1,9
 356 474 356 474 364 487 c 2,10,-1
 507 735 l 1,11,-1
 583 735 l 1,12,-1
 323 303 l 1,13,-1
 323 0 l 1,14,-1
 259 0 l 1,15,-1
 259 303 l 1,16,-1
 -3 735 l 1,0,-1
EndSplineSet
EndChar

StartChar: Z
Encoding: 90 90 61
Width: 614
GlyphClass: 2
Flags: W
LayerCount: 2
Fore
SplineSet
52 48 m 1,0,-1
 477 681 l 1,1,-1
 84 681 l 1,2,-1
 84 735 l 1,3,-1
 554 735 l 1,4,-1
 554 687 l 1,5,-1
 127 54 l 1,6,-1
 565 54 l 1,7,-1
 565 0 l 1,8,-1
 52 0 l 1,9,-1
 52 48 l 1,0,-1
EndSplineSet
EndChar

StartChar: bracketleft
Encoding: 91 91 62
Width: 454
GlyphClass: 2
Flags: W
LayerCount: 2
Fore
SplineSet
161 -131 m 1,0,-1
 161 834 l 1,1,-1
 355 834 l 1,2,-1
 355 783 l 1,3,-1
 222 783 l 1,4,-1
 222 -81 l 1,5,-1
 355 -81 l 1,6,-1
 355 -131 l 1,7,-1
 161 -131 l 1,0,-1
EndSplineSet
EndChar

StartChar: backslash
Encoding: 92 92 63
Width: 312
GlyphClass: 2
Flags: W
LayerCount: 2
Fore
SplineSet
-11 786 m 1,0,-1
 52 786 l 1,1,-1
 325 -60 l 1,2,-1
 262 -60 l 1,3,-1
 -11 786 l 1,0,-1
EndSplineSet
EndChar

StartChar: bracketright
Encoding: 93 93 64
Width: 454
GlyphClass: 2
Flags: W
LayerCount: 2
Fore
SplineSet
100 -81 m 1,0,-1
 232 -81 l 1,1,-1
 232 783 l 1,2,-1
 100 783 l 1,3,-1
 100 834 l 1,4,-1
 294 834 l 1,5,-1
 294 -131 l 1,6,-1
 100 -131 l 1,7,-1
 100 -81 l 1,0,-1
EndSplineSet
EndChar

StartChar: asciicircum
Encoding: 94 94 65
Width: 494
GlyphClass: 2
Flags: W
LayerCount: 2
Fore
SplineSet
22 486 m 1,0,-1
 217 812 l 1,1,-1
 278 812 l 1,2,-1
 473 486 l 1,3,-1
 407 486 l 1,4,-1
 248 761 l 1,5,-1
 212 701 l 1,6,-1
 88 486 l 1,7,-1
 22 486 l 1,0,-1
EndSplineSet
EndChar

StartChar: underscore
Encoding: 95 95 66
Width: 440
GlyphClass: 2
Flags: W
LayerCount: 2
Fore
SplineSet
7 -28 m 1,0,-1
 436 -28 l 1,1,-1
 436 -79 l 1,2,-1
 7 -79 l 1,3,-1
 7 -28 l 1,0,-1
EndSplineSet
EndChar

StartChar: grave
Encoding: 96 96 67
Width: 287
GlyphClass: 2
Flags: W
LayerCount: 2
Fore
SplineSet
162 544 m 1,0,-1
 38 828 l 1,1,-1
 131 828 l 1,2,-1
 213 544 l 1,3,-1
 162 544 l 1,0,-1
EndSplineSet
EndChar

StartChar: a
Encoding: 97 97 68
Width: 556
GlyphClass: 2
Flags: W
LayerCount: 2
Fore
SplineSet
107 130 m 0,0,1
 107 90 107 90 141 61.5 c 128,-1,2
 175 33 175 33 235 33 c 0,3,4
 310 33 310 33 363.5 81.5 c 128,-1,5
 417 130 417 130 417 205 c 2,6,-1
 417 288 l 1,7,8
 372 274 372 274 267 258 c 0,9,10
 183 244 183 244 145 213 c 128,-1,11
 107 182 107 182 107 130 c 0,0,1
45 126 m 0,12,13
 45 198 45 198 98.5 242.5 c 128,-1,14
 152 287 152 287 268 305 c 0,15,16
 384 324 384 324 417 337 c 1,17,-1
 417 367 l 2,18,19
 417 422 417 422 378.5 457.5 c 128,-1,20
 340 493 340 493 270 493 c 0,21,22
 222 493 222 493 177.5 470.5 c 128,-1,23
 133 448 133 448 103 410 c 1,24,-1
 63 442 l 1,25,26
 99 487 99 487 153 515 c 128,-1,27
 207 543 207 543 269 543 c 0,28,29
 378 543 378 543 427.5 489 c 128,-1,30
 477 435 477 435 477 344 c 2,31,-1
 477 0 l 1,32,-1
 418 0 l 1,33,-1
 418 95 l 1,34,35
 401 50 401 50 348.5 16 c 128,-1,36
 296 -18 296 -18 227 -18 c 0,37,38
 142 -18 142 -18 93.5 22.5 c 128,-1,39
 45 63 45 63 45 126 c 0,12,13
EndSplineSet
Substitution2: "Single Substitution lookup 12 subtable" ordfeminine
EndChar

StartChar: b
Encoding: 98 98 69
Width: 585
GlyphClass: 2
Flags: W
LayerCount: 2
Fore
SplineSet
91 0 m 1,0,-1
 91 764 l 1,1,-1
 151 764 l 1,2,-1
 151 418 l 1,3,4
 164 464 164 464 210 503.5 c 128,-1,5
 256 543 256 543 319 543 c 0,6,7
 417 543 417 543 477.5 468.5 c 128,-1,8
 538 394 538 394 538 264 c 0,9,10
 538 124 538 124 472.5 53 c 128,-1,11
 407 -18 407 -18 319 -18 c 0,12,13
 260 -18 260 -18 215 17.5 c 128,-1,14
 170 53 170 53 151 104 c 1,15,-1
 151 0 l 1,16,-1
 91 0 l 1,0,-1
149 264 m 0,17,18
 149 158 149 158 196 95.5 c 128,-1,19
 243 33 243 33 311 33 c 0,20,21
 384 33 384 33 430.5 95 c 128,-1,22
 477 157 477 157 477 264 c 0,23,24
 477 368 477 368 431 430 c 128,-1,25
 385 492 385 492 312 492 c 0,26,27
 245 492 245 492 197 430.5 c 128,-1,28
 149 369 149 369 149 264 c 0,17,18
EndSplineSet
EndChar

StartChar: c
Encoding: 99 99 70
Width: 503
GlyphClass: 2
Flags: W
LayerCount: 2
Fore
SplineSet
48 263 m 0,0,1
 48 387 48 387 110 465 c 128,-1,2
 172 543 172 543 279 543 c 0,3,4
 347 543 347 543 396 505 c 128,-1,5
 445 467 445 467 463 413 c 1,6,-1
 410 398 l 1,7,8
 394 438 394 438 359 465 c 128,-1,9
 324 492 324 492 279 492 c 0,10,11
 202 492 202 492 156 427 c 128,-1,12
 110 362 110 362 110 263 c 0,13,14
 110 158 110 158 157.5 95.5 c 128,-1,15
 205 33 205 33 279 33 c 0,16,17
 327 33 327 33 367 63 c 128,-1,18
 407 93 407 93 425 134 c 1,19,-1
 477 117 l 1,20,21
 455 61 455 61 402 21.5 c 128,-1,22
 349 -18 349 -18 279 -18 c 0,23,24
 176 -18 176 -18 112 58.5 c 128,-1,25
 48 135 48 135 48 263 c 0,0,1
EndSplineSet
EndChar

StartChar: d
Encoding: 100 100 71
Width: 585
GlyphClass: 2
Flags: W
LayerCount: 2
Fore
SplineSet
48 264 m 0,0,1
 48 394 48 394 109.5 468.5 c 128,-1,2
 171 543 171 543 267 543 c 0,3,4
 328 543 328 543 372.5 506 c 128,-1,5
 417 469 417 469 435 419 c 1,6,-1
 435 764 l 1,7,-1
 495 764 l 1,8,-1
 495 0 l 1,9,-1
 437 0 l 1,10,-1
 437 105 l 1,11,12
 417 52 417 52 372.5 17 c 128,-1,13
 328 -18 328 -18 267 -18 c 0,14,15
 180 -18 180 -18 114 53 c 128,-1,16
 48 124 48 124 48 264 c 0,0,1
110 264 m 0,17,18
 110 159 110 159 155.5 96 c 128,-1,19
 201 33 201 33 275 33 c 0,20,21
 343 33 343 33 390 95 c 128,-1,22
 437 157 437 157 437 264 c 0,23,24
 437 369 437 369 389 430.5 c 128,-1,25
 341 492 341 492 274 492 c 0,26,27
 201 492 201 492 155.5 430 c 128,-1,28
 110 368 110 368 110 264 c 0,17,18
EndSplineSet
EndChar

StartChar: e
Encoding: 101 101 72
Width: 556
GlyphClass: 2
Flags: W
LayerCount: 2
Fore
SplineSet
48 266 m 0,0,1
 48 389 48 389 113 466 c 128,-1,2
 178 543 178 543 283 543 c 0,3,4
 389 543 389 543 450 467.5 c 128,-1,5
 511 392 511 392 511 279 c 0,6,7
 511 267 511 267 509 243 c 1,8,-1
 110 243 l 1,9,10
 110 157 110 157 156.5 95 c 128,-1,11
 203 33 203 33 286 33 c 0,12,13
 339 33 339 33 381.5 59 c 128,-1,14
 424 85 424 85 446 127 c 1,15,-1
 498 110 l 1,16,17
 472 54 472 54 418 18 c 128,-1,18
 364 -18 364 -18 286 -18 c 0,19,20
 178 -18 178 -18 113 60.5 c 128,-1,21
 48 139 48 139 48 266 c 0,0,1
111 290 m 1,22,-1
 449 290 l 1,23,24
 449 374 449 374 404 433 c 128,-1,25
 359 492 359 492 283 492 c 0,26,27
 205 492 205 492 159 431.5 c 128,-1,28
 113 371 113 371 111 290 c 1,22,-1
EndSplineSet
EndChar

StartChar: f
Encoding: 102 102 73
Width: 332
GlyphClass: 2
Flags: W
LayerCount: 2
Fore
SplineSet
25 474 m 1,0,-1
 25 525 l 1,1,-1
 119 525 l 1,2,-1
 119 615 l 2,3,4
 119 691 119 691 157.5 727.5 c 128,-1,5
 196 764 196 764 262 764 c 2,6,-1
 323 764 l 1,7,-1
 323 713 l 1,8,-1
 270 713 l 2,9,10
 181 713 181 713 181 607 c 2,11,-1
 181 525 l 1,12,-1
 309 525 l 1,13,-1
 309 474 l 1,14,-1
 181 474 l 1,15,-1
 181 0 l 1,16,-1
 119 0 l 1,17,-1
 119 474 l 1,18,-1
 25 474 l 1,0,-1
EndSplineSet
EndChar

StartChar: g
Encoding: 103 103 74
Width: 574
GlyphClass: 2
Flags: W
LayerCount: 2
Fore
SplineSet
110 272 m 0,0,1
 110 174 110 174 154 113.5 c 128,-1,2
 198 53 198 53 269 53 c 0,3,4
 342 53 342 53 384 111.5 c 128,-1,5
 426 170 426 170 426 274 c 0,6,7
 426 374 426 374 383 433 c 128,-1,8
 340 492 340 492 271 492 c 0,9,10
 197 492 197 492 153.5 430 c 128,-1,11
 110 368 110 368 110 272 c 0,0,1
48 272 m 0,12,13
 48 394 48 394 107 468.5 c 128,-1,14
 166 543 166 543 263 543 c 0,15,16
 327 543 327 543 367.5 508 c 128,-1,17
 408 473 408 473 426 427 c 1,18,-1
 426 525 l 1,19,-1
 486 525 l 1,20,-1
 486 54 l 2,21,22
 486 -94 486 -94 434.5 -166.5 c 128,-1,23
 383 -239 383 -239 269 -239 c 0,24,25
 146 -239 146 -239 79 -147 c 1,26,-1
 123 -118 l 1,27,28
 186 -189 186 -189 270 -189 c 0,29,30
 348 -189 348 -189 387 -131 c 128,-1,31
 426 -73 426 -73 426 29 c 2,32,-1
 426 114 l 1,33,34
 406 65 406 65 365.5 33 c 128,-1,35
 325 1 325 1 265 1 c 0,36,37
 166 1 166 1 107 77 c 128,-1,38
 48 153 48 153 48 272 c 0,12,13
EndSplineSet
EndChar

StartChar: h
Encoding: 104 104 75
Width: 573
GlyphClass: 2
Flags: W
LayerCount: 2
Fore
SplineSet
91 0 m 1,0,-1
 91 764 l 1,1,-1
 151 764 l 1,2,-1
 151 432 l 1,3,-1
 153 432 l 1,4,5
 171 476 171 476 218 509.5 c 128,-1,6
 265 543 265 543 325 543 c 0,7,8
 493 543 493 543 493 340 c 2,9,-1
 493 0 l 1,10,-1
 433 0 l 1,11,-1
 433 329 l 2,12,13
 433 492 433 492 313 492 c 0,14,15
 249 492 249 492 200 439 c 128,-1,16
 151 386 151 386 151 315 c 2,17,-1
 151 0 l 1,18,-1
 91 0 l 1,0,-1
EndSplineSet
Substitution2: "'sups' Superscript lookup 5 subtable" uni02B0
Substitution2: "'aalt' Access All Alternates lookup 0 subtable" uni02B0
EndChar

StartChar: i
Encoding: 105 105 76
Width: 273
GlyphClass: 2
Flags: W
LayerCount: 2
Fore
SplineSet
93 654 m 1,0,-1
 93 746 l 1,1,-1
 180 746 l 1,2,-1
 180 654 l 1,3,-1
 93 654 l 1,0,-1
107 0 m 1,4,-1
 107 525 l 1,5,-1
 168 525 l 1,6,-1
 168 0 l 1,7,-1
 107 0 l 1,4,-1
EndSplineSet
EndChar

StartChar: j
Encoding: 106 106 77
Width: 278
GlyphClass: 2
Flags: W
LayerCount: 2
Fore
SplineSet
96 654 m 1,0,-1
 96 746 l 1,1,-1
 185 746 l 1,2,-1
 185 654 l 1,3,-1
 96 654 l 1,0,-1
-8 -177 m 1,4,-1
 17 -177 l 2,5,6
 111 -177 111 -177 111 -49 c 2,7,-1
 111 525 l 1,8,-1
 171 525 l 1,9,-1
 171 -53 l 2,10,11
 171 -138 171 -138 133.5 -183 c 128,-1,12
 96 -228 96 -228 27 -228 c 2,13,-1
 -8 -228 l 1,14,-1
 -8 -177 l 1,4,-1
EndSplineSet
Substitution2: "'sups' Superscript lookup 5 subtable" uni02B2
Substitution2: "'aalt' Access All Alternates lookup 0 subtable" uni02B2
EndChar

StartChar: k
Encoding: 107 107 78
Width: 503
GlyphClass: 2
Flags: W
LayerCount: 2
Fore
SplineSet
92 0 m 1,0,-1
 92 764 l 1,1,-1
 154 764 l 1,2,-1
 154 243 l 1,3,-1
 402 525 l 1,4,-1
 483 525 l 1,5,-1
 297 317 l 1,6,-1
 507 0 l 1,7,-1
 432 0 l 1,8,-1
 256 273 l 1,9,-1
 154 160 l 1,10,-1
 154 0 l 1,11,-1
 92 0 l 1,0,-1
EndSplineSet
EndChar

StartChar: l
Encoding: 108 108 79
Width: 252
GlyphClass: 2
Flags: W
LayerCount: 2
Fore
SplineSet
96 0 m 1,0,-1
 96 764 l 1,1,-1
 156 764 l 1,2,-1
 156 0 l 1,3,-1
 96 0 l 1,0,-1
EndSplineSet
Substitution2: "'sups' Superscript lookup 5 subtable" uni02E1
Substitution2: "'aalt' Access All Alternates lookup 0 subtable" uni02E1
EndChar

StartChar: m
Encoding: 109 109 80
Width: 842
GlyphClass: 2
Flags: W
LayerCount: 2
Fore
SplineSet
85 0 m 1,0,-1
 85 525 l 1,1,-1
 145 525 l 1,2,-1
 145 439 l 1,3,-1
 146 439 l 1,4,5
 160 478 160 478 200 510.5 c 128,-1,6
 240 543 240 543 301 543 c 0,7,8
 406 543 406 543 439 418 c 1,9,10
 443 431 443 431 453.5 449 c 128,-1,11
 464 467 464 467 484 489.5 c 128,-1,12
 504 512 504 512 538.5 527.5 c 128,-1,13
 573 543 573 543 614 543 c 0,14,15
 693 543 693 543 728 491 c 128,-1,16
 763 439 763 439 763 340 c 2,17,-1
 763 0 l 1,18,-1
 702 0 l 1,19,-1
 702 334 l 2,20,21
 702 412 702 412 680.5 452 c 128,-1,22
 659 492 659 492 599 492 c 256,23,24
 539 492 539 492 497 442 c 128,-1,25
 455 392 455 392 455 314 c 2,26,-1
 455 0 l 1,27,-1
 394 0 l 1,28,-1
 394 334 l 2,29,30
 394 492 394 492 289 492 c 0,31,32
 225 492 225 492 186 443.5 c 128,-1,33
 147 395 147 395 147 319 c 2,34,-1
 147 0 l 1,35,-1
 85 0 l 1,0,-1
EndSplineSet
EndChar

StartChar: n
Encoding: 110 110 81
Width: 568
GlyphClass: 2
Flags: W
LayerCount: 2
Fore
SplineSet
85 0 m 1,0,-1
 85 525 l 1,1,-1
 145 525 l 1,2,-1
 145 426 l 1,3,-1
 146 426 l 1,4,5
 157 466 157 466 205.5 504.5 c 128,-1,6
 254 543 254 543 322 543 c 0,7,8
 393 543 393 543 441 497.5 c 128,-1,9
 489 452 489 452 489 340 c 2,10,-1
 489 0 l 1,11,-1
 427 0 l 1,12,-1
 427 329 l 2,13,14
 427 492 427 492 308 492 c 0,15,16
 244 492 244 492 195.5 440 c 128,-1,17
 147 388 147 388 147 317 c 2,18,-1
 147 0 l 1,19,-1
 85 0 l 1,0,-1
EndSplineSet
Substitution2: "'sups' Superscript lookup 5 subtable" uni207F
Substitution2: "'aalt' Access All Alternates lookup 0 subtable" uni207F
EndChar

StartChar: o
Encoding: 111 111 82
Width: 562
GlyphClass: 2
Flags: W
LayerCount: 2
Fore
SplineSet
110 263 m 0,0,1
 110 159 110 159 158 96 c 128,-1,2
 206 33 206 33 281 33 c 0,3,4
 355 33 355 33 404 96.5 c 128,-1,5
 453 160 453 160 453 263 c 0,6,7
 453 368 453 368 403.5 430 c 128,-1,8
 354 492 354 492 281 492 c 256,9,10
 208 492 208 492 159 430 c 128,-1,11
 110 368 110 368 110 263 c 0,0,1
48 263 m 0,12,13
 48 384 48 384 109.5 463.5 c 128,-1,14
 171 543 171 543 281 543 c 0,15,16
 390 543 390 543 452.5 463.5 c 128,-1,17
 515 384 515 384 515 263 c 0,18,19
 515 191 515 191 491.5 129.5 c 128,-1,20
 468 68 468 68 413.5 25 c 128,-1,21
 359 -18 359 -18 281 -18 c 256,22,23
 203 -18 203 -18 148.5 25 c 128,-1,24
 94 68 94 68 71 129.5 c 128,-1,25
 48 191 48 191 48 263 c 0,12,13
EndSplineSet
Substitution2: "Single Substitution lookup 12 subtable" ordmasculine
EndChar

StartChar: p
Encoding: 112 112 83
Width: 585
GlyphClass: 2
Flags: W
LayerCount: 2
Fore
SplineSet
151 264 m 0,0,1
 151 160 151 160 194.5 96.5 c 128,-1,2
 238 33 238 33 312 33 c 0,3,4
 383 33 383 33 430 95 c 128,-1,5
 477 157 477 157 477 264 c 0,6,7
 477 364 477 364 433 428 c 128,-1,8
 389 492 389 492 312 492 c 0,9,10
 242 492 242 492 196.5 427.5 c 128,-1,11
 151 363 151 363 151 264 c 0,0,1
91 -235 m 1,12,-1
 91 525 l 1,13,-1
 150 525 l 1,14,-1
 150 418 l 1,15,16
 172 475 172 475 216.5 509 c 128,-1,17
 261 543 261 543 319 543 c 0,18,19
 416 543 416 543 477 467 c 128,-1,20
 538 391 538 391 538 264 c 0,21,22
 538 129 538 129 474 55.5 c 128,-1,23
 410 -18 410 -18 319 -18 c 0,24,25
 258 -18 258 -18 215 16 c 128,-1,26
 172 50 172 50 151 103 c 1,27,-1
 151 -235 l 1,28,-1
 91 -235 l 1,12,-1
EndSplineSet
EndChar

StartChar: q
Encoding: 113 113 84
Width: 584
GlyphClass: 2
Flags: W
LayerCount: 2
Fore
SplineSet
110 264 m 0,0,1
 110 158 110 158 156.5 95.5 c 128,-1,2
 203 33 203 33 274 33 c 0,3,4
 347 33 347 33 391 97 c 128,-1,5
 435 161 435 161 435 264 c 0,6,7
 435 365 435 365 389.5 428.5 c 128,-1,8
 344 492 344 492 274 492 c 0,9,10
 196 492 196 492 153 428 c 128,-1,11
 110 364 110 364 110 264 c 0,0,1
48 264 m 0,12,13
 48 391 48 391 109 467 c 128,-1,14
 170 543 170 543 267 543 c 0,15,16
 323 543 323 543 368.5 510 c 128,-1,17
 414 477 414 477 437 419 c 1,18,-1
 437 525 l 1,19,-1
 495 525 l 1,20,-1
 495 -235 l 1,21,-1
 435 -235 l 1,22,-1
 435 104 l 1,23,24
 414 51 414 51 370.5 16.5 c 128,-1,25
 327 -18 327 -18 267 -18 c 0,26,27
 176 -18 176 -18 112 55 c 128,-1,28
 48 128 48 128 48 264 c 0,12,13
EndSplineSet
EndChar

StartChar: r
Encoding: 114 114 85
Width: 369
GlyphClass: 2
Flags: W
LayerCount: 2
Fore
SplineSet
85 0 m 1,0,-1
 85 525 l 1,1,-1
 144 525 l 1,2,-1
 144 442 l 1,3,4
 159 480 159 480 197 511.5 c 128,-1,5
 235 543 235 543 295 543 c 0,6,7
 341 543 341 543 371 529 c 1,8,-1
 371 473 l 1,9,10
 332 488 332 488 295 488 c 0,11,12
 226 488 226 488 186.5 436 c 128,-1,13
 147 384 147 384 147 301 c 2,14,-1
 147 0 l 1,15,-1
 85 0 l 1,0,-1
EndSplineSet
Substitution2: "'sups' Superscript lookup 5 subtable" uni02B3
Substitution2: "'aalt' Access All Alternates lookup 0 subtable" uni02B3
EndChar

StartChar: s
Encoding: 115 115 86
Width: 490
GlyphClass: 2
Flags: W
LayerCount: 2
Fore
SplineSet
40 98 m 1,0,-1
 87 125 l 1,1,2
 146 33 146 33 248 33 c 0,3,4
 311 33 311 33 350 58 c 128,-1,5
 389 83 389 83 389 127 c 0,6,7
 389 147 389 147 379.5 162.5 c 128,-1,8
 370 178 370 178 359 188.5 c 128,-1,9
 348 199 348 199 320.5 210.5 c 128,-1,10
 293 222 293 222 276.5 227.5 c 128,-1,11
 260 233 260 233 220 245 c 0,12,13
 185 256 185 256 160.5 266.5 c 128,-1,14
 136 277 136 277 109.5 295 c 128,-1,15
 83 313 83 313 69 339 c 128,-1,16
 55 365 55 365 55 399 c 0,17,18
 55 464 55 464 107.5 503.5 c 128,-1,19
 160 543 160 543 248 543 c 0,20,21
 311 543 311 543 363 510.5 c 128,-1,22
 415 478 415 478 438 433 c 1,23,-1
 396 406 l 1,24,25
 375 442 375 442 335.5 467 c 128,-1,26
 296 492 296 492 248 492 c 0,27,28
 185 492 185 492 150.5 466.5 c 128,-1,29
 116 441 116 441 116 398 c 0,30,31
 116 366 116 366 140 342 c 128,-1,32
 164 318 164 318 191.5 306.5 c 128,-1,33
 219 295 219 295 263 282 c 0,34,35
 302 271 302 271 329 260.5 c 128,-1,36
 356 250 356 250 387 231.5 c 128,-1,37
 418 213 418 213 434.5 186.5 c 128,-1,38
 451 160 451 160 451 127 c 0,39,40
 451 65 451 65 397.5 23.5 c 128,-1,41
 344 -18 344 -18 248 -18 c 0,42,43
 180 -18 180 -18 126 12.5 c 128,-1,44
 72 43 72 43 40 98 c 1,0,-1
EndSplineSet
Substitution2: "'hist' Historical Forms lookup 11 subtable" longs
Substitution2: "'sups' Superscript lookup 5 subtable" uni02E2
AlternateSubs2: "'aalt' Access All Alternates lookup 1 subtable" uni02E2 longs
EndChar

StartChar: t
Encoding: 116 116 87
Width: 357
GlyphClass: 2
Flags: W
LayerCount: 2
Fore
SplineSet
23 474 m 1,0,-1
 23 525 l 1,1,-1
 119 525 l 1,2,-1
 119 698 l 1,3,-1
 181 698 l 1,4,-1
 181 525 l 1,5,-1
 321 525 l 1,6,-1
 321 474 l 1,7,-1
 181 474 l 1,8,-1
 181 149 l 2,9,10
 181 97 181 97 200.5 74.5 c 128,-1,11
 220 52 220 52 262 52 c 0,12,13
 264 52 264 52 266 52 c 2,14,-1
 321 53 l 1,15,-1
 321 0 l 1,16,-1
 258 0 l 2,17,18
 256 0 256 0 254 0 c 0,19,20
 190 0 190 0 154.5 34.5 c 128,-1,21
 119 69 119 69 119 143 c 2,22,-1
 119 474 l 1,23,-1
 23 474 l 1,0,-1
EndSplineSet
EndChar

StartChar: u
Encoding: 117 117 88
Width: 565
GlyphClass: 2
Flags: W
LayerCount: 2
Fore
SplineSet
80 183 m 2,0,-1
 80 525 l 1,1,-1
 141 525 l 1,2,-1
 141 198 l 2,3,4
 141 33 141 33 265 33 c 0,5,6
 340 33 340 33 380 90 c 128,-1,7
 420 147 420 147 420 225 c 2,8,-1
 420 525 l 1,9,-1
 480 525 l 1,10,-1
 480 0 l 1,11,-1
 421 0 l 1,12,-1
 421 94 l 1,13,14
 418 79 418 79 407 61.5 c 128,-1,15
 396 44 396 44 376.5 25 c 128,-1,16
 357 6 357 6 324 -6 c 128,-1,17
 291 -18 291 -18 250 -18 c 0,18,19
 172 -18 172 -18 126 34.5 c 128,-1,20
 80 87 80 87 80 183 c 2,0,-1
EndSplineSet
EndChar

StartChar: v
Encoding: 118 118 89
Width: 490
GlyphClass: 2
Flags: W
LayerCount: 2
Fore
SplineSet
11 525 m 1,0,-1
 79 525 l 1,1,-1
 203 179 l 1,2,-1
 245 53 l 1,3,-1
 247 53 l 1,4,5
 254 76 254 76 269 118.5 c 128,-1,6
 284 161 284 161 290 179 c 2,7,-1
 411 525 l 1,8,-1
 480 525 l 1,9,-1
 283 0 l 1,10,-1
 208 0 l 1,11,-1
 11 525 l 1,0,-1
EndSplineSet
EndChar

StartChar: w
Encoding: 119 119 90
Width: 708
GlyphClass: 2
Flags: W
LayerCount: 2
Fore
SplineSet
10 525 m 1,0,-1
 78 525 l 1,1,-1
 166 178 l 2,2,3
 182 112 182 112 194 56 c 1,4,-1
 198 56 l 1,5,6
 205 87 205 87 227 178 c 2,7,-1
 318 525 l 1,8,-1
 392 525 l 1,9,-1
 483 175 l 2,10,11
 485 167 485 167 496 124.5 c 128,-1,12
 507 82 507 82 512 56 c 1,13,-1
 515 56 l 1,14,15
 519 75 519 75 529 115 c 128,-1,16
 539 155 539 155 544 178 c 2,17,-1
 631 525 l 1,18,-1
 700 525 l 1,19,-1
 552 0 l 1,20,-1
 475 0 l 1,21,-1
 385 337 l 2,22,23
 369 399 369 399 356 460 c 1,24,-1
 353 460 l 1,25,26
 339 395 339 395 324 337 c 2,27,-1
 235 0 l 1,28,-1
 157 0 l 1,29,-1
 10 525 l 1,0,-1
EndSplineSet
Substitution2: "'sups' Superscript lookup 5 subtable" uni02B7
Substitution2: "'aalt' Access All Alternates lookup 0 subtable" uni02B7
EndChar

StartChar: x
Encoding: 120 120 91
Width: 464
GlyphClass: 2
Flags: W
LayerCount: 2
Fore
SplineSet
5 0 m 1,0,-1
 194 273 l 1,1,-1
 15 525 l 1,2,-1
 88 525 l 1,3,-1
 187 382 l 2,4,5
 193 374 193 374 230 318 c 1,6,-1
 233 318 l 1,7,8
 240 329 240 329 255 352 c 128,-1,9
 270 375 270 375 275 382 c 2,10,-1
 373 525 l 1,11,-1
 446 525 l 1,12,-1
 268 273 l 1,13,-1
 458 0 l 1,14,-1
 385 0 l 1,15,-1
 275 165 l 2,16,17
 236 223 236 223 233 227 c 1,18,-1
 230 227 l 1,19,20
 223 215 223 215 208 194 c 128,-1,21
 193 173 193 173 188 165 c 2,22,-1
 78 0 l 1,23,-1
 5 0 l 1,0,-1
EndSplineSet
Substitution2: "'sups' Superscript lookup 5 subtable" uni02E3
Substitution2: "'aalt' Access All Alternates lookup 0 subtable" uni02E3
EndChar

StartChar: y
Encoding: 121 121 92
Width: 484
GlyphClass: 2
Flags: W
LayerCount: 2
Fore
SplineSet
10 525 m 1,0,-1
 81 525 l 1,1,-1
 199 194 l 2,2,3
 222 129 222 129 244 62 c 1,4,-1
 247 62 l 1,5,6
 255 87 255 87 270.5 132 c 128,-1,7
 286 177 286 177 292 195 c 2,8,-1
 405 525 l 1,9,-1
 475 525 l 1,10,-1
 247 -95 l 2,11,12
 219 -172 219 -172 182 -203.5 c 128,-1,13
 145 -235 145 -235 94 -235 c 2,14,-1
 66 -235 l 1,15,-1
 66 -184 l 1,16,-1
 84 -184 l 2,17,18
 120 -184 120 -184 147 -160.5 c 128,-1,19
 174 -137 174 -137 194 -78 c 2,20,-1
 215 -14 l 1,21,-1
 10 525 l 1,0,-1
EndSplineSet
Substitution2: "'sups' Superscript lookup 5 subtable" uni02B8
Substitution2: "'aalt' Access All Alternates lookup 0 subtable" uni02B8
EndChar

StartChar: z
Encoding: 122 122 93
Width: 476
GlyphClass: 2
Flags: W
LayerCount: 2
Fore
SplineSet
36 0 m 1,0,-1
 36 42 l 1,1,-1
 353 474 l 1,2,-1
 63 474 l 1,3,-1
 63 525 l 1,4,-1
 432 525 l 1,5,-1
 432 485 l 1,6,-1
 113 52 l 1,7,-1
 441 52 l 1,8,-1
 441 0 l 1,9,-1
 36 0 l 1,0,-1
EndSplineSet
EndChar

StartChar: braceleft
Encoding: 123 123 94
Width: 454
GlyphClass: 2
Flags: W
LayerCount: 2
Fore
SplineSet
74 323 m 1,0,-1
 74 371 l 1,1,-1
 100 371 l 2,2,3
 180 371 180 371 180 515 c 2,4,-1
 180 710 l 2,5,6
 180 769 180 769 212 801.5 c 128,-1,7
 244 834 244 834 291 834 c 2,8,-1
 366 834 l 1,9,-1
 366 783 l 1,10,-1
 302 783 l 2,11,12
 276 783 276 783 258.5 762 c 128,-1,13
 241 741 241 741 241 701 c 2,14,-1
 241 504 l 2,15,16
 241 440 241 440 222 404.5 c 128,-1,17
 203 369 203 369 167 347 c 1,18,19
 241 313 241 313 241 201 c 2,20,-1
 241 10 l 2,21,22
 241 -35 241 -35 258 -57.5 c 128,-1,23
 275 -80 275 -80 304 -80 c 2,24,-1
 366 -80 l 1,25,-1
 366 -130 l 1,26,-1
 291 -130 l 2,27,28
 245 -130 245 -130 212.5 -99.5 c 128,-1,29
 180 -69 180 -69 180 -8 c 2,30,-1
 180 188 l 2,31,32
 180 253 180 253 158 288 c 128,-1,33
 136 323 136 323 100 323 c 2,34,-1
 74 323 l 1,0,-1
EndSplineSet
EndChar

StartChar: bar
Encoding: 124 124 95
Width: 257
GlyphClass: 2
Flags: W
LayerCount: 2
Fore
SplineSet
98 -167 m 1,0,-1
 98 867 l 1,1,-1
 160 867 l 1,2,-1
 160 -167 l 1,3,-1
 98 -167 l 1,0,-1
EndSplineSet
EndChar

StartChar: braceright
Encoding: 125 125 96
Width: 454
GlyphClass: 2
Flags: W
LayerCount: 2
Fore
SplineSet
88 -80 m 1,0,-1
 151 -80 l 2,1,2
 213 -80 213 -80 213 10 c 2,3,-1
 213 203 l 2,4,5
 213 260 213 260 234.5 296.5 c 128,-1,6
 256 333 256 333 287 347 c 1,7,8
 252 368 252 368 232.5 403 c 128,-1,9
 213 438 213 438 213 503 c 2,10,-1
 213 701 l 2,11,12
 213 741 213 741 196 762 c 128,-1,13
 179 783 179 783 153 783 c 2,14,-1
 88 783 l 1,15,-1
 88 834 l 1,16,-1
 164 834 l 2,17,18
 211 834 211 834 242.5 801.5 c 128,-1,19
 274 769 274 769 274 710 c 2,20,-1
 274 515 l 2,21,22
 274 442 274 442 295.5 406.5 c 128,-1,23
 317 371 317 371 354 371 c 2,24,-1
 380 371 l 1,25,-1
 380 323 l 1,26,-1
 354 323 l 2,27,28
 317 323 317 323 295.5 287 c 128,-1,29
 274 251 274 251 274 190 c 2,30,-1
 274 -8 l 2,31,32
 274 -69 274 -69 241.5 -99.5 c 128,-1,33
 209 -130 209 -130 163 -130 c 2,34,-1
 88 -130 l 1,35,-1
 88 -80 l 1,0,-1
EndSplineSet
EndChar

StartChar: asciitilde
Encoding: 126 126 97
Width: 751
GlyphClass: 2
Flags: W
LayerCount: 2
Fore
SplineSet
73 311 m 1,0,1
 137 444 137 444 255 444 c 0,2,3
 288 444 288 444 316.5 430.5 c 128,-1,4
 345 417 345 417 366 397.5 c 128,-1,5
 387 378 387 378 407 359 c 128,-1,6
 427 340 427 340 450.5 326.5 c 128,-1,7
 474 313 474 313 499 313 c 0,8,9
 514 313 514 313 527 316.5 c 128,-1,10
 540 320 540 320 550 324.5 c 128,-1,11
 560 329 560 329 570 338 c 128,-1,12
 580 347 580 347 586 353 c 128,-1,13
 592 359 592 359 600 371.5 c 128,-1,14
 608 384 608 384 611 389 c 128,-1,15
 614 394 614 394 621 407.5 c 128,-1,16
 628 421 628 421 629 423 c 1,17,-1
 680 397 l 1,18,19
 609 262 609 262 500 262 c 0,20,21
 459 262 459 262 423 282.5 c 128,-1,22
 387 303 387 303 365.5 327.5 c 128,-1,23
 344 352 344 352 314 372.5 c 128,-1,24
 284 393 284 393 254 393 c 0,25,26
 178 393 178 393 123 285 c 1,27,-1
 73 311 l 1,0,1
EndSplineSet
EndChar

StartChar: exclamdown
Encoding: 161 161 99
Width: 312
GlyphClass: 2
Flags: W
LayerCount: 2
Fore
SplineSet
120 -214 m 1,0,-1
 129 314 l 1,1,-1
 185 314 l 1,2,-1
 193 -214 l 1,3,-1
 120 -214 l 1,0,-1
100 426 m 1,4,-1
 100 529 l 1,5,-1
 212 529 l 1,6,-1
 212 426 l 1,7,-1
 100 426 l 1,4,-1
EndSplineSet
EndChar

StartChar: cent
Encoding: 162 162 100
Width: 502
GlyphClass: 2
Flags: W
LayerCount: 2
Fore
SplineSet
48 263 m 0,0,1
 48 376 48 376 102 455 c 128,-1,2
 156 534 156 534 253 541 c 1,3,-1
 253 620 l 1,4,-1
 311 620 l 1,5,-1
 311 541 l 1,6,7
 369 532 369 532 407.5 496 c 128,-1,8
 446 460 446 460 462 414 c 1,9,-1
 411 398 l 1,10,11
 394 438 394 438 359.5 465 c 128,-1,12
 325 492 325 492 281 492 c 0,13,14
 202 492 202 492 156 427.5 c 128,-1,15
 110 363 110 363 110 263 c 0,16,17
 110 160 110 160 157.5 96.5 c 128,-1,18
 205 33 205 33 281 33 c 0,19,20
 327 33 327 33 366 63 c 128,-1,21
 405 93 405 93 424 134 c 1,22,-1
 476 117 l 1,23,24
 455 69 455 69 413 32.5 c 128,-1,25
 371 -4 371 -4 311 -15 c 1,26,-1
 311 -97 l 1,27,-1
 253 -97 l 1,28,-1
 253 -16 l 1,29,30
 162 -9 162 -9 105 66.5 c 128,-1,31
 48 142 48 142 48 263 c 0,0,1
EndSplineSet
EndChar

StartChar: sterling
Encoding: 163 163 101
Width: 574
GlyphClass: 2
Flags: W
LayerCount: 2
Fore
SplineSet
38 338 m 1,0,-1
 38 392 l 1,1,-1
 150 392 l 1,2,-1
 150 569 l 2,3,4
 150 658 150 658 203.5 706 c 128,-1,5
 257 754 257 754 346 754 c 0,6,7
 408 754 408 754 454 723 c 128,-1,8
 500 692 500 692 521 650 c 1,9,-1
 478 624 l 1,10,11
 458 656 458 656 424 677.5 c 128,-1,12
 390 699 390 699 348 699 c 0,13,14
 286 699 286 699 249 665 c 128,-1,15
 212 631 212 631 212 564 c 2,16,-1
 212 392 l 1,17,-1
 444 392 l 1,18,-1
 444 338 l 1,19,-1
 212 338 l 1,20,-1
 212 207 l 2,21,22
 212 99 212 99 155 54 c 1,23,24
 218 67 218 67 256 67 c 0,25,26
 287 67 287 67 336 51.5 c 128,-1,27
 385 36 385 36 417 36 c 0,28,29
 490 36 490 36 545 67 c 1,30,-1
 564 16 l 1,31,32
 498 -18 498 -18 415 -18 c 0,33,34
 384 -18 384 -18 327 -2 c 128,-1,35
 270 14 270 14 238 14 c 0,36,37
 205 14 205 14 160 7 c 128,-1,38
 115 0 115 0 87 -6 c 2,39,-1
 59 -13 l 1,40,-1
 41 34 l 1,41,42
 96 50 96 50 123 97 c 128,-1,43
 150 144 150 144 150 205 c 2,44,-1
 150 338 l 1,45,-1
 38 338 l 1,0,-1
EndSplineSet
EndChar

StartChar: currency
Encoding: 164 164 102
Width: 630
GlyphClass: 2
Flags: W
LayerCount: 2
Fore
SplineSet
31 141 m 1,0,-1
 141 243 l 1,1,2
 97 294 97 294 97 368 c 0,3,4
 97 441 97 441 140 493 c 1,5,-1
 31 594 l 1,6,-1
 73 634 l 1,7,-1
 180 533 l 1,8,9
 241 579 241 579 316 579 c 0,10,11
 394 579 394 579 453 533 c 1,12,-1
 558 633 l 1,13,-1
 600 593 l 1,14,-1
 492 493 l 1,15,16
 536 441 536 441 536 368 c 0,17,18
 536 297 536 297 492 243 c 1,19,-1
 600 141 l 1,20,-1
 559 101 l 1,21,-1
 452 202 l 1,22,23
 395 156 395 156 316 156 c 0,24,25
 240 156 240 156 180 202 c 1,26,-1
 73 102 l 1,27,-1
 31 141 l 1,0,-1
154 368 m 0,28,29
 154 303 154 303 200 256.5 c 128,-1,30
 246 210 246 210 316 210 c 256,31,32
 386 210 386 210 432.5 256.5 c 128,-1,33
 479 303 479 303 479 368 c 0,34,35
 479 434 479 434 432 480 c 128,-1,36
 385 526 385 526 316 526 c 0,37,38
 246 526 246 526 200 480 c 128,-1,39
 154 434 154 434 154 368 c 0,28,29
EndSplineSet
EndChar

StartChar: yen
Encoding: 165 165 103
Width: 579
GlyphClass: 2
Flags: W
LayerCount: 2
Fore
SplineSet
-3 735 m 1,0,-1
 73 735 l 1,1,-1
 213 520 l 2,2,3
 268 432 268 432 289 396 c 1,4,-1
 291 396 l 1,5,6
 332 462 332 462 367 519 c 2,7,-1
 507 735 l 1,8,-1
 583 735 l 1,9,-1
 355 388 l 1,10,-1
 518 388 l 1,11,-1
 518 341 l 1,12,-1
 322 341 l 1,13,-1
 322 229 l 1,14,-1
 518 229 l 1,15,-1
 518 182 l 1,16,-1
 322 182 l 1,17,-1
 322 0 l 1,18,-1
 259 0 l 1,19,-1
 259 182 l 1,20,-1
 60 182 l 1,21,-1
 60 229 l 1,22,-1
 259 229 l 1,23,-1
 259 341 l 1,24,-1
 60 341 l 1,25,-1
 60 388 l 1,26,-1
 226 388 l 1,27,-1
 -3 735 l 1,0,-1
EndSplineSet
EndChar

StartChar: brokenbar
Encoding: 166 166 104
Width: 257
GlyphClass: 2
Flags: W
LayerCount: 2
Fore
SplineSet
98 465 m 1,0,-1
 98 867 l 1,1,-1
 160 867 l 1,2,-1
 160 465 l 1,3,-1
 98 465 l 1,0,-1
98 -166 m 1,4,-1
 98 233 l 1,5,-1
 160 233 l 1,6,-1
 160 -166 l 1,7,-1
 98 -166 l 1,4,-1
EndSplineSet
EndChar

StartChar: section
Encoding: 167 167 105
Width: 565
GlyphClass: 2
Flags: W
LayerCount: 2
Fore
SplineSet
66 42 m 1,0,-1
 109 73 l 1,1,2
 131 39 131 39 172 18 c 128,-1,3
 213 -3 213 -3 262 -3 c 0,4,5
 325 -3 325 -3 358.5 19 c 128,-1,6
 392 41 392 41 392 79 c 0,7,8
 392 110 392 110 373 128.5 c 128,-1,9
 354 147 354 147 308 167 c 2,10,-1
 200 215 l 2,11,12
 138 242 138 242 108 275 c 128,-1,13
 78 308 78 308 78 355 c 0,14,15
 78 390 78 390 96.5 421.5 c 128,-1,16
 115 453 115 453 133 468.5 c 128,-1,17
 151 484 151 484 181 505 c 1,18,19
 109 558 109 558 109 616 c 0,20,21
 109 679 109 679 158 716 c 128,-1,22
 207 753 207 753 302 753 c 0,23,24
 365 753 365 753 416.5 725.5 c 128,-1,25
 468 698 468 698 497 653 c 1,26,-1
 455 624 l 1,27,28
 394 700 394 700 300 700 c 0,29,30
 234 700 234 700 203 676.5 c 128,-1,31
 172 653 172 653 172 617 c 0,32,33
 172 606 172 606 174.5 596 c 128,-1,34
 177 586 177 586 184 577 c 128,-1,35
 191 568 191 568 197 560.5 c 128,-1,36
 203 553 203 553 216 544.5 c 128,-1,37
 229 536 229 536 237 531 c 128,-1,38
 245 526 245 526 261.5 517.5 c 128,-1,39
 278 509 278 509 286.5 505 c 128,-1,40
 295 501 295 501 314.5 492 c 128,-1,41
 334 483 334 483 342 479 c 0,42,43
 423 440 423 440 459.5 407 c 128,-1,44
 496 374 496 374 496 320 c 0,45,46
 496 241 496 241 411 171 c 1,47,48
 455 135 455 135 455 79 c 0,49,50
 455 19 455 19 407.5 -19 c 128,-1,51
 360 -57 360 -57 263 -57 c 0,52,53
 196 -57 196 -57 144.5 -28.5 c 128,-1,54
 93 0 93 0 66 42 c 1,0,-1
142 359 m 0,55,56
 142 320 142 320 163 301 c 128,-1,57
 184 282 184 282 243 255 c 2,58,-1
 362 201 l 1,59,60
 433 258 433 258 433 320 c 0,61,62
 433 353 433 353 408 374.5 c 128,-1,63
 383 396 383 396 320 428 c 2,64,-1
 228 476 l 1,65,66
 200 456 200 456 184.5 443 c 128,-1,67
 169 430 169 430 155.5 407 c 128,-1,68
 142 384 142 384 142 359 c 0,55,56
EndSplineSet
EndChar

StartChar: dieresis
Encoding: 168 168 106
Width: 466
GlyphClass: 2
Flags: W
LayerCount: 2
Fore
SplineSet
102 645 m 1,0,-1
 102 735 l 1,1,-1
 192 735 l 1,2,-1
 192 645 l 1,3,-1
 102 645 l 1,0,-1
276 645 m 1,4,-1
 276 735 l 1,5,-1
 365 735 l 1,6,-1
 365 645 l 1,7,-1
 276 645 l 1,4,-1
EndSplineSet
EndChar

StartChar: copyright
Encoding: 169 169 107
Width: 885
GlyphClass: 2
Flags: W
LayerCount: 2
Fore
SplineSet
261 372 m 0,0,1
 261 478 261 478 313.5 544 c 128,-1,2
 366 610 366 610 457 610 c 0,3,4
 562 610 562 610 613 501 c 1,5,-1
 564 484 l 1,6,7
 524 560 524 560 457 560 c 0,8,9
 393 560 393 560 355 508 c 128,-1,10
 317 456 317 456 317 372 c 0,11,12
 317 286 317 286 355.5 235 c 128,-1,13
 394 184 394 184 457 184 c 0,14,15
 497 184 497 184 528 207.5 c 128,-1,16
 559 231 559 231 574 266 c 1,17,-1
 624 249 l 1,18,19
 604 202 604 202 560.5 168 c 128,-1,20
 517 134 517 134 457 134 c 0,21,22
 370 134 370 134 315.5 198.5 c 128,-1,23
 261 263 261 263 261 372 c 0,0,1
53 374 m 256,24,25
 53 545 53 545 164 655 c 128,-1,26
 275 765 275 765 443 765 c 0,27,28
 613 765 613 765 724 655 c 128,-1,29
 835 545 835 545 835 374 c 0,30,31
 835 207 835 207 724 95 c 128,-1,32
 613 -17 613 -17 443 -17 c 0,33,34
 275 -17 275 -17 164 93 c 128,-1,35
 53 203 53 203 53 374 c 256,24,25
100 374 m 0,36,37
 100 226 100 226 195 126 c 128,-1,38
 290 26 290 26 443 26 c 0,39,40
 594 26 594 26 691 125 c 128,-1,41
 788 224 788 224 788 374 c 0,42,43
 788 523 788 523 691 622.5 c 128,-1,44
 594 722 594 722 443 722 c 0,45,46
 294 722 294 722 197 623.5 c 128,-1,47
 100 525 100 525 100 374 c 0,36,37
EndSplineSet
EndChar

StartChar: ordfeminine
Encoding: 170 170 108
Width: 388
GlyphClass: 2
Flags: W
LayerCount: 2
Fore
SplineSet
39 336 m 1,0,-1
 39 380 l 1,1,-1
 349 380 l 1,2,-1
 349 336 l 1,3,-1
 39 336 l 1,0,-1
82 548 m 0,4,5
 82 523 82 523 104 504 c 128,-1,6
 126 485 126 485 165 485 c 0,7,8
 214 485 214 485 249.5 516.5 c 128,-1,9
 285 548 285 548 285 598 c 2,10,-1
 285 650 l 1,11,12
 267 645 267 645 235 639.5 c 128,-1,13
 203 634 203 634 179.5 629.5 c 128,-1,14
 156 625 156 625 132 616.5 c 128,-1,15
 108 608 108 608 95 591 c 128,-1,16
 82 574 82 574 82 548 c 0,4,5
33 545 m 0,17,18
 33 582 33 582 50.5 607.5 c 128,-1,19
 68 633 68 633 99 646 c 128,-1,20
 130 659 130 659 160 665.5 c 128,-1,21
 190 672 190 672 228 679 c 128,-1,22
 266 686 266 686 285 692 c 1,23,-1
 285 709 l 2,24,25
 285 745 285 745 260.5 768 c 128,-1,26
 236 791 236 791 190 791 c 0,27,28
 151 791 151 791 119.5 771 c 128,-1,29
 88 751 88 751 77 733 c 1,30,-1
 44 759 l 1,31,32
 61 785 61 785 101 808.5 c 128,-1,33
 141 832 141 832 189 832 c 0,34,35
 264 832 264 832 299 794.5 c 128,-1,36
 334 757 334 757 334 693 c 2,37,-1
 334 455 l 1,38,-1
 287 455 l 1,39,-1
 287 508 l 1,40,41
 270 480 270 480 237 461.5 c 128,-1,42
 204 443 204 443 161 443 c 0,43,44
 101 443 101 443 67 471.5 c 128,-1,45
 33 500 33 500 33 545 c 0,17,18
EndSplineSet
EndChar

StartChar: guillemotleft
Encoding: 171 171 109
Width: 445
GlyphClass: 2
Flags: W
LayerCount: 2
Fore
SplineSet
37 250 m 1,0,-1
 196 473 l 1,1,-1
 241 443 l 1,2,-1
 105 250 l 1,3,-1
 240 57 l 1,4,-1
 195 26 l 1,5,-1
 37 250 l 1,0,-1
207 250 m 1,6,-1
 366 468 l 1,7,-1
 410 436 l 1,8,-1
 275 250 l 1,9,-1
 409 63 l 1,10,-1
 365 31 l 1,11,-1
 207 250 l 1,6,-1
EndSplineSet
EndChar

StartChar: logicalnot
Encoding: 172 172 110
Width: 544
GlyphClass: 2
Flags: W
LayerCount: 2
Fore
SplineSet
50 323 m 1,0,-1
 50 377 l 1,1,-1
 496 377 l 1,2,-1
 496 126 l 1,3,-1
 437 126 l 1,4,-1
 437 323 l 1,5,-1
 50 323 l 1,0,-1
EndSplineSet
EndChar

StartChar: uni00AD
Encoding: 173 173 111
Width: 560
GlyphClass: 2
Flags: W
LayerCount: 2
Fore
SplineSet
61 336 m 1,0,-1
 61 390 l 1,1,-1
 499 390 l 1,2,-1
 499 336 l 1,3,-1
 61 336 l 1,0,-1
EndSplineSet
EndChar

StartChar: registered
Encoding: 174 174 112
Width: 885
GlyphClass: 2
Flags: W
LayerCount: 2
Fore
SplineSet
310 147 m 1,0,-1
 310 596 l 1,1,-1
 478 596 l 2,2,3
 541 596 541 596 576.5 560 c 128,-1,4
 612 524 612 524 612 471 c 0,5,6
 612 390 612 390 540 360 c 1,7,8
 574 337 574 337 588 276 c 0,9,10
 606 198 606 198 634 147 c 1,11,-1
 572 147 l 1,12,13
 554 180 554 180 533 268 c 0,14,15
 526 302 526 302 512 321 c 128,-1,16
 498 340 498 340 468 340 c 2,17,-1
 365 340 l 1,18,-1
 365 147 l 1,19,-1
 310 147 l 1,0,-1
365 387 m 1,20,-1
 470 387 l 2,21,22
 510 387 510 387 533 408.5 c 128,-1,23
 556 430 556 430 556 467 c 0,24,25
 556 501 556 501 534.5 523.5 c 128,-1,26
 513 546 513 546 470 546 c 2,27,-1
 365 546 l 1,28,-1
 365 387 l 1,20,-1
53 374 m 256,29,30
 53 545 53 545 164 655 c 128,-1,31
 275 765 275 765 443 765 c 0,32,33
 613 765 613 765 724 655 c 128,-1,34
 835 545 835 545 835 374 c 0,35,36
 835 206 835 206 724.5 94.5 c 128,-1,37
 614 -17 614 -17 443 -17 c 0,38,39
 275 -17 275 -17 164 93 c 128,-1,40
 53 203 53 203 53 374 c 256,29,30
100 374 m 0,41,42
 100 226 100 226 195 126 c 128,-1,43
 290 26 290 26 443 26 c 0,44,45
 595 26 595 26 691.5 126 c 128,-1,46
 788 226 788 226 788 374 c 0,47,48
 788 524 788 524 691 623 c 128,-1,49
 594 722 594 722 443 722 c 0,50,51
 294 722 294 722 197 623.5 c 128,-1,52
 100 525 100 525 100 374 c 0,41,42
EndSplineSet
EndChar

StartChar: macron
Encoding: 175 175 113
Width: 512
GlyphClass: 2
Flags: W
LayerCount: 2
Fore
SplineSet
0 760 m 1,0,-1
 0 813 l 1,1,-1
 513 813 l 1,2,-1
 513 760 l 1,3,-1
 0 760 l 1,0,-1
EndSplineSet
EndChar

StartChar: degree
Encoding: 176 176 114
Width: 417
GlyphClass: 2
Flags: W
LayerCount: 2
Fore
SplineSet
86 624 m 0,0,1
 86 672 86 672 120.5 707.5 c 128,-1,2
 155 743 155 743 209 743 c 0,3,4
 260 743 260 743 295.5 709 c 128,-1,5
 331 675 331 675 331 624 c 256,6,7
 331 573 331 573 295 539.5 c 128,-1,8
 259 506 259 506 209 506 c 0,9,10
 158 506 158 506 122 540 c 128,-1,11
 86 574 86 574 86 624 c 0,0,1
129 624 m 0,12,13
 129 589 129 589 152 567 c 128,-1,14
 175 545 175 545 209 545 c 0,15,16
 242 545 242 545 265 567.5 c 128,-1,17
 288 590 288 590 288 624 c 0,18,19
 288 657 288 657 266 680 c 128,-1,20
 244 703 244 703 209 703 c 0,21,22
 173 703 173 703 151 679.5 c 128,-1,23
 129 656 129 656 129 624 c 0,12,13
EndSplineSet
EndChar

StartChar: plusminus
Encoding: 177 177 115
Width: 560
GlyphClass: 2
Flags: W
LayerCount: 2
Fore
SplineSet
46 406 m 1,0,-1
 46 460 l 1,1,-1
 250 460 l 1,2,-1
 250 646 l 1,3,-1
 310 646 l 1,4,-1
 310 460 l 1,5,-1
 515 460 l 1,6,-1
 515 406 l 1,7,-1
 310 406 l 1,8,-1
 310 222 l 1,9,-1
 250 222 l 1,10,-1
 250 406 l 1,11,-1
 46 406 l 1,0,-1
47 93 m 1,12,-1
 47 147 l 1,13,-1
 514 147 l 1,14,-1
 514 93 l 1,15,-1
 47 93 l 1,12,-1
EndSplineSet
EndChar

StartChar: twosuperior
Encoding: 178 178 116
Width: 319
GlyphClass: 2
Flags: W
LayerCount: 2
Fore
SplineSet
30 722 m 1,0,1
 57 830 57 830 160 830 c 0,2,3
 213 830 213 830 247.5 799 c 128,-1,4
 282 768 282 768 282 714 c 0,5,6
 282 652 282 652 211 583 c 0,7,8
 203 575 203 575 184.5 557.5 c 128,-1,9
 166 540 166 540 158.5 532.5 c 128,-1,10
 151 525 151 525 137.5 511 c 128,-1,11
 124 497 124 497 117 488 c 128,-1,12
 110 479 110 479 102.5 467.5 c 128,-1,13
 95 456 95 456 90 445 c 1,14,-1
 282 445 l 1,15,-1
 282 404 l 1,16,-1
 33 404 l 1,17,18
 33 405 33 405 33 407 c 0,19,20
 33 451 33 451 64 491.5 c 128,-1,21
 95 532 95 532 181 615 c 0,22,23
 234 665 234 665 234 714 c 0,24,25
 234 750 234 750 214 769.5 c 128,-1,26
 194 789 194 789 159 789 c 0,27,28
 93 789 93 789 72 711 c 1,29,-1
 30 722 l 1,0,1
EndSplineSet
EndChar

StartChar: threesuperior
Encoding: 179 179 117
Width: 319
GlyphClass: 2
Flags: W
LayerCount: 2
Fore
SplineSet
23 480 m 1,0,-1
 62 497 l 1,1,2
 96 436 96 436 154 436 c 0,3,4
 193 436 193 436 218.5 458 c 128,-1,5
 244 480 244 480 244 523 c 0,6,7
 244 560 244 560 217 582.5 c 128,-1,8
 190 605 190 605 144 605 c 0,9,10
 133 605 133 605 111 603 c 1,11,-1
 111 646 l 1,12,13
 137 644 137 644 143 644 c 0,14,15
 184 644 184 644 205.5 665 c 128,-1,16
 227 686 227 686 227 720 c 0,17,18
 227 752 227 752 207 771.5 c 128,-1,19
 187 791 187 791 153 791 c 0,20,21
 101 791 101 791 74 727 c 1,22,-1
 34 741 l 1,23,24
 67 831 67 831 154 831 c 0,25,26
 209 831 209 831 242 800 c 128,-1,27
 275 769 275 769 275 723 c 0,28,29
 275 658 275 658 218 628 c 1,30,31
 291 600 291 600 291 523 c 0,32,33
 291 462 291 462 253.5 428.5 c 128,-1,34
 216 395 216 395 154 395 c 0,35,36
 61 395 61 395 23 480 c 1,0,-1
EndSplineSet
EndChar

StartChar: acute
Encoding: 180 180 118
Width: 331
GlyphClass: 2
Flags: W
LayerCount: 2
Fore
SplineSet
78 655 m 1,0,-1
 190 828 l 1,1,-1
 275 828 l 1,2,-1
 133 655 l 1,3,-1
 78 655 l 1,0,-1
EndSplineSet
EndChar

StartChar: uni00B5
Encoding: 181 181 119
Width: 579
GlyphClass: 2
Flags: W
LayerCount: 2
Fore
SplineSet
91 -235 m 1,0,-1
 91 525 l 1,1,-1
 152 525 l 1,2,-1
 152 196 l 2,3,4
 152 123 152 123 181 78 c 128,-1,5
 210 33 210 33 275 33 c 0,6,7
 351 33 351 33 392 90 c 128,-1,8
 433 147 433 147 433 225 c 2,9,-1
 433 525 l 1,10,-1
 494 525 l 1,11,-1
 494 0 l 1,12,-1
 435 0 l 1,13,-1
 435 94 l 1,14,-1
 434 94 l 1,15,16
 420 48 420 48 376 15 c 128,-1,17
 332 -18 332 -18 265 -18 c 0,18,19
 187 -18 187 -18 152 46 c 1,20,-1
 152 -235 l 1,21,-1
 91 -235 l 1,0,-1
EndSplineSet
EndChar

StartChar: paragraph
Encoding: 182 182 120
Width: 634
GlyphClass: 2
Flags: W
LayerCount: 2
Fore
SplineSet
63 547 m 0,0,1
 63 648 63 648 115 709 c 128,-1,2
 167 770 167 770 264 770 c 2,3,-1
 541 770 l 1,4,-1
 541 -71 l 1,5,-1
 489 -71 l 1,6,-1
 489 713 l 1,7,-1
 375 713 l 1,8,-1
 375 -71 l 1,9,-1
 323 -71 l 1,10,-1
 323 331 l 1,11,12
 288 320 288 320 251 320 c 0,13,14
 171 320 171 320 117 379.5 c 128,-1,15
 63 439 63 439 63 547 c 0,0,1
EndSplineSet
EndChar

StartChar: periodcentered
Encoding: 183 183 121
Width: 339
GlyphClass: 2
Flags: W
LayerCount: 2
Fore
SplineSet
114 299 m 1,0,-1
 114 405 l 1,1,-1
 226 405 l 1,2,-1
 226 299 l 1,3,-1
 114 299 l 1,0,-1
EndSplineSet
EndChar

StartChar: cedilla
Encoding: 184 184 122
Width: 294
GlyphClass: 2
Flags: W
LayerCount: 2
Fore
SplineSet
46 -176 m 1,0,1
 94 -186 94 -186 110 -186 c 0,2,3
 184 -186 184 -186 184 -139 c 0,4,5
 184 -94 184 -94 86 -83 c 1,6,-1
 129 5 l 1,7,-1
 185 5 l 1,8,-1
 157 -53 l 1,9,10
 241 -72 241 -72 241 -140 c 0,11,12
 241 -182 241 -182 210 -207 c 128,-1,13
 179 -232 179 -232 115 -232 c 0,14,15
 74 -232 74 -232 46 -222 c 1,16,-1
 46 -176 l 1,0,1
EndSplineSet
EndChar

StartChar: onesuperior
Encoding: 185 185 123
Width: 319
GlyphClass: 2
Flags: W
LayerCount: 2
Fore
SplineSet
58 726 m 1,0,-1
 58 764 l 1,1,-1
 82 764 l 2,2,3
 123 764 123 764 137.5 774.5 c 128,-1,4
 152 785 152 785 152 808 c 2,5,-1
 152 829 l 1,6,-1
 194 829 l 1,7,-1
 194 402 l 1,8,-1
 146 402 l 1,9,-1
 146 726 l 1,10,-1
 58 726 l 1,0,-1
EndSplineSet
EndChar

StartChar: ordmasculine
Encoding: 186 186 124
Width: 388
GlyphClass: 2
Flags: W
LayerCount: 2
Fore
SplineSet
81 638 m 0,0,1
 81 569 81 569 113 527 c 128,-1,2
 145 485 145 485 194 485 c 0,3,4
 242 485 242 485 274.5 527.5 c 128,-1,5
 307 570 307 570 307 638 c 0,6,7
 307 708 307 708 274.5 749 c 128,-1,8
 242 790 242 790 194 790 c 256,9,10
 146 790 146 790 113.5 749 c 128,-1,11
 81 708 81 708 81 638 c 0,0,1
32 638 m 0,12,13
 32 721 32 721 75 776.5 c 128,-1,14
 118 832 118 832 194 832 c 0,15,16
 269 832 269 832 312.5 777 c 128,-1,17
 356 722 356 722 356 638 c 0,18,19
 356 559 356 559 315 501 c 128,-1,20
 274 443 274 443 194 443 c 256,21,22
 114 443 114 443 73 501 c 128,-1,23
 32 559 32 559 32 638 c 0,12,13
39 336 m 1,24,-1
 39 380 l 1,25,-1
 349 380 l 1,26,-1
 349 336 l 1,27,-1
 39 336 l 1,24,-1
EndSplineSet
EndChar

StartChar: guillemotright
Encoding: 187 187 125
Width: 445
GlyphClass: 2
Flags: W
LayerCount: 2
Fore
SplineSet
36 436 m 1,0,-1
 81 468 l 1,1,-1
 239 250 l 1,2,-1
 81 31 l 1,3,-1
 38 63 l 1,4,-1
 172 250 l 1,5,-1
 36 436 l 1,0,-1
206 58 m 1,6,-1
 341 250 l 1,7,-1
 205 443 l 1,8,-1
 251 473 l 1,9,-1
 409 250 l 1,10,-1
 251 26 l 1,11,-1
 206 58 l 1,6,-1
EndSplineSet
EndChar

StartChar: onequarter
Encoding: 188 188 126
Width: 965
GlyphClass: 3
Flags: W
LayerCount: 2
Fore
SplineSet
604 123 m 1,0,-1
 756 123 l 1,1,-1
 756 308 l 2,2,3
 756 317 756 317 756.5 334.5 c 128,-1,4
 757 352 757 352 757 359 c 1,5,-1
 729 313 l 1,6,-1
 604 123 l 1,0,-1
87 675 m 1,7,-1
 87 722 l 1,8,-1
 116 722 l 2,9,10
 163 722 163 722 179 733 c 128,-1,11
 195 744 195 744 195 770 c 2,12,-1
 195 797 l 1,13,-1
 245 797 l 1,14,-1
 245 302 l 1,15,-1
 187 302 l 1,16,-1
 187 675 l 1,17,-1
 87 675 l 1,7,-1
159 -51 m 1,18,-1
 641 783 l 1,19,-1
 702 783 l 1,20,-1
 221 -51 l 1,21,-1
 159 -51 l 1,18,-1
542 116 m 1,22,-1
 762 453 l 1,23,-1
 812 453 l 1,24,-1
 812 123 l 1,25,-1
 883 123 l 1,26,-1
 883 74 l 1,27,-1
 812 74 l 1,28,-1
 812 -42 l 1,29,-1
 756 -42 l 1,30,-1
 756 74 l 1,31,-1
 542 74 l 1,32,-1
 542 116 l 1,22,-1
EndSplineSet
Ligature2: "'frac' Diagonal Fractions lookup 7 subtable" one fraction four
Ligature2: "'frac' Diagonal Fractions lookup 7 subtable" one slash four
EndChar

StartChar: onehalf
Encoding: 189 189 127
Width: 965
GlyphClass: 3
Flags: W
LayerCount: 2
Fore
SplineSet
569 325 m 1,0,1
 574 341 574 341 577.5 352 c 128,-1,2
 581 363 581 363 593.5 384 c 128,-1,3
 606 405 606 405 620.5 418 c 128,-1,4
 635 431 635 431 661.5 441.5 c 128,-1,5
 688 452 688 452 720 452 c 0,6,7
 782 452 782 452 821.5 416 c 128,-1,8
 861 380 861 380 861 317 c 0,9,10
 861 242 861 242 786 172 c 0,11,12
 711 101 711 101 681.5 69.5 c 128,-1,13
 652 38 652 38 640 8 c 1,14,-1
 861 8 l 1,15,-1
 861 -41 l 1,16,-1
 572 -41 l 1,17,18
 572 11 572 11 605.5 59 c 128,-1,19
 639 107 639 107 742 203 c 0,20,21
 804 261 804 261 804 317 c 0,22,23
 804 358 804 358 781 380.5 c 128,-1,24
 758 403 758 403 718 403 c 0,25,26
 644 403 644 403 620 311 c 1,27,-1
 569 325 l 1,0,1
87 675 m 1,28,-1
 87 722 l 1,29,-1
 116 722 l 2,30,31
 163 722 163 722 179 733 c 128,-1,32
 195 744 195 744 195 770 c 2,33,-1
 195 797 l 1,34,-1
 245 797 l 1,35,-1
 245 302 l 1,36,-1
 187 302 l 1,37,-1
 187 675 l 1,38,-1
 87 675 l 1,28,-1
149 -51 m 1,39,-1
 637 783 l 1,40,-1
 698 783 l 1,41,-1
 212 -51 l 1,42,-1
 149 -51 l 1,39,-1
EndSplineSet
Ligature2: "'frac' Diagonal Fractions lookup 7 subtable" one fraction two
Ligature2: "'frac' Diagonal Fractions lookup 7 subtable" one slash two
EndChar

StartChar: threequarters
Encoding: 190 190 128
Width: 965
GlyphClass: 3
Flags: W
LayerCount: 2
Fore
SplineSet
65 403 m 1,0,-1
 113 423 l 1,1,2
 153 353 153 353 218 353 c 0,3,4
 261 353 261 353 290.5 377.5 c 128,-1,5
 320 402 320 402 320 451 c 0,6,7
 320 496 320 496 288.5 520 c 128,-1,8
 257 544 257 544 211 544 c 0,9,10
 178 544 178 544 167 543 c 1,11,-1
 167 594 l 1,12,13
 184 592 184 592 208 592 c 0,14,15
 248 592 248 592 274.5 615 c 128,-1,16
 301 638 301 638 301 678 c 0,17,18
 301 713 301 713 277.5 736 c 128,-1,19
 254 759 254 759 217 759 c 0,20,21
 158 759 158 759 126 685 c 1,22,-1
 78 702 l 1,23,24
 116 808 116 808 219 808 c 0,25,26
 283 808 283 808 320.5 771.5 c 128,-1,27
 358 735 358 735 358 681 c 0,28,29
 358 608 358 608 294 572 c 1,30,31
 329 558 329 558 353 527.5 c 128,-1,32
 377 497 377 497 377 451 c 0,33,34
 377 381 377 381 333 342.5 c 128,-1,35
 289 304 289 304 218 304 c 0,36,37
 170 304 170 304 129 328 c 128,-1,38
 88 352 88 352 65 403 c 1,0,-1
552 116 m 1,39,-1
 772 453 l 1,40,-1
 822 453 l 1,41,-1
 822 123 l 1,42,-1
 893 123 l 1,43,-1
 893 74 l 1,44,-1
 822 74 l 1,45,-1
 822 -42 l 1,46,-1
 766 -42 l 1,47,-1
 766 74 l 1,48,-1
 552 74 l 1,49,-1
 552 116 l 1,39,-1
614 123 m 1,50,-1
 766 123 l 1,51,-1
 766 309 l 2,52,53
 766 318 766 318 766.5 334.5 c 128,-1,54
 767 351 767 351 767 358 c 1,55,-1
 740 314 l 1,56,-1
 614 123 l 1,50,-1
228 -51 m 1,57,-1
 716 783 l 1,58,-1
 777 783 l 1,59,-1
 291 -51 l 1,60,-1
 228 -51 l 1,57,-1
EndSplineSet
Ligature2: "'frac' Diagonal Fractions lookup 7 subtable" three fraction four
Ligature2: "'frac' Diagonal Fractions lookup 7 subtable" three slash four
EndChar

StartChar: questiondown
Encoding: 191 191 129
Width: 548
GlyphClass: 2
Flags: W
LayerCount: 2
Fore
SplineSet
75 -35 m 0,0,1
 75 11 75 11 93.5 47.5 c 128,-1,2
 112 84 112 84 138.5 109 c 128,-1,3
 165 134 165 134 191.5 159.5 c 128,-1,4
 218 185 218 185 236.5 221 c 128,-1,5
 255 257 255 257 255 302 c 2,6,-1
 255 322 l 1,7,-1
 318 322 l 1,8,-1
 318 298 l 2,9,10
 318 248 318 248 299.5 208.5 c 128,-1,11
 281 169 281 169 254.5 143 c 128,-1,12
 228 117 228 117 202 92.5 c 128,-1,13
 176 68 176 68 157.5 36 c 128,-1,14
 139 4 139 4 139 -36 c 0,15,16
 139 -101 139 -101 174.5 -139 c 128,-1,17
 210 -177 210 -177 273 -177 c 0,18,19
 375 -177 375 -177 427 -58 c 1,20,-1
 482 -78 l 1,21,22
 455 -149 455 -149 400 -190 c 128,-1,23
 345 -231 345 -231 274 -231 c 0,24,25
 183 -231 183 -231 129 -177.5 c 128,-1,26
 75 -124 75 -124 75 -35 c 0,0,1
230 427 m 1,27,-1
 230 529 l 1,28,-1
 342 529 l 1,29,-1
 342 427 l 1,30,-1
 230 427 l 1,27,-1
EndSplineSet
EndChar

StartChar: AE
Encoding: 198 198 136
Width: 929
GlyphClass: 2
Flags: W
LayerCount: 2
Fore
SplineSet
230 273 m 1,0,-1
 480 273 l 1,1,-1
 480 676 l 1,2,-1
 471 676 l 1,3,-1
 230 273 l 1,0,-1
-2 0 m 1,4,-1
 439 735 l 1,5,-1
 882 735 l 1,6,-1
 882 681 l 1,7,-1
 543 681 l 1,8,-1
 543 408 l 1,9,-1
 846 408 l 1,10,-1
 846 354 l 1,11,-1
 540 354 l 1,12,-1
 540 54 l 1,13,-1
 889 54 l 1,14,-1
 889 0 l 1,15,-1
 480 0 l 1,16,-1
 480 222 l 1,17,-1
 200 222 l 1,18,-1
 69 0 l 1,19,-1
 -2 0 l 1,4,-1
EndSplineSet
EndChar

StartChar: multiply
Encoding: 215 215 153
Width: 560
GlyphClass: 2
Flags: W
LayerCount: 2
Fore
SplineSet
47 181 m 1,0,-1
 243 362 l 1,1,-1
 49 545 l 1,2,-1
 87 583 l 1,3,-1
 280 398 l 1,4,-1
 474 583 l 1,5,-1
 512 545 l 1,6,-1
 318 362 l 1,7,-1
 514 180 l 1,8,-1
 475 143 l 1,9,-1
 280 327 l 1,10,-1
 86 143 l 1,11,-1
 47 181 l 1,0,-1
EndSplineSet
EndChar

StartChar: Oslash
Encoding: 216 216 154
Width: 709
GlyphClass: 2
Flags: W
LayerCount: 2
Fore
SplineSet
55 367 m 0,0,1
 55 541 55 541 136.5 647.5 c 128,-1,2
 218 754 218 754 355 754 c 0,3,4
 440 754 440 754 507 710 c 1,5,-1
 551 795 l 1,6,-1
 611 795 l 1,7,-1
 549 675 l 1,8,9
 654 570 654 570 654 367 c 0,10,11
 654 192 654 192 573 87 c 128,-1,12
 492 -18 492 -18 355 -18 c 0,13,14
 281 -18 281 -18 221 15 c 1,15,-1
 177 -73 l 1,16,-1
 117 -73 l 1,17,-1
 178 45 l 1,18,19
 55 148 55 148 55 367 c 0,0,1
520 617 m 1,20,-1
 248 66 l 1,21,22
 294 37 294 37 355 37 c 0,23,24
 463 37 463 37 526.5 126.5 c 128,-1,25
 590 216 590 216 590 367 c 0,26,27
 590 529 590 529 520 617 c 1,20,-1
481 658 m 1,28,29
 428 699 428 699 355 699 c 0,30,31
 247 699 247 699 183.5 609 c 128,-1,32
 120 519 120 519 120 367 c 0,33,34
 120 190 120 190 206 101 c 1,35,-1
 481 658 l 1,28,29
EndSplineSet
EndChar

StartChar: Thorn
Encoding: 222 222 160
Width: 609
GlyphClass: 2
Flags: W
LayerCount: 2
Fore
SplineSet
110 0 m 1,0,-1
 110 735 l 1,1,-1
 173 735 l 1,2,-1
 173 608 l 1,3,-1
 309 608 l 2,4,5
 438 608 438 608 501 546.5 c 128,-1,6
 564 485 564 485 564 380 c 0,7,8
 564 263 564 263 491 206.5 c 128,-1,9
 418 150 418 150 296 150 c 2,10,-1
 173 150 l 1,11,-1
 173 0 l 1,12,-1
 110 0 l 1,0,-1
173 204 m 1,13,-1
 290 204 l 2,14,15
 499 204 499 204 499 380 c 0,16,17
 499 554 499 554 302 554 c 2,18,-1
 173 554 l 1,19,-1
 173 204 l 1,13,-1
EndSplineSet
EndChar

StartChar: germandbls
Encoding: 223 223 161
Width: 660
GlyphClass: 2
Flags: W
LayerCount: 2
Fore
SplineSet
110 0 m 1,0,-1
 110 559 l 2,1,2
 110 652 110 652 171.5 703 c 128,-1,3
 233 754 233 754 327 754 c 0,4,5
 423 754 423 754 483.5 700 c 128,-1,6
 544 646 544 646 544 557 c 0,7,8
 544 437 544 437 455 388 c 1,9,-1
 455 386 l 1,10,11
 516 371 516 371 561.5 321 c 128,-1,12
 607 271 607 271 607 185 c 0,13,14
 607 96 607 96 550 39 c 128,-1,15
 493 -18 493 -18 396 -18 c 0,16,17
 320 -18 320 -18 250 4 c 1,18,-1
 256 60 l 1,19,20
 318 37 318 37 393 37 c 0,21,22
 456 37 456 37 499 78 c 128,-1,23
 542 119 542 119 542 185 c 0,24,25
 542 267 542 267 492 309.5 c 128,-1,26
 442 352 442 352 369 352 c 2,27,-1
 307 352 l 1,28,-1
 307 406 l 1,29,-1
 362 406 l 2,30,31
 415 406 415 406 447 447.5 c 128,-1,32
 479 489 479 489 479 553 c 0,33,34
 479 616 479 616 438.5 657.5 c 128,-1,35
 398 699 398 699 328 699 c 0,36,37
 257 699 257 699 215 660.5 c 128,-1,38
 173 622 173 622 173 554 c 2,39,-1
 173 0 l 1,40,-1
 110 0 l 1,0,-1
EndSplineSet
EndChar

StartChar: ae
Encoding: 230 230 168
Width: 917
GlyphClass: 2
Flags: W
LayerCount: 2
Fore
SplineSet
45 127 m 0,0,1
 45 198 45 198 97.5 242.5 c 128,-1,2
 150 287 150 287 267 305 c 0,3,4
 382 323 382 323 416 337 c 1,5,-1
 416 367 l 2,6,7
 416 420 416 420 379 456.5 c 128,-1,8
 342 493 342 493 274 493 c 0,9,10
 171 493 171 493 103 409 c 1,11,-1
 62 442 l 1,12,13
 98 487 98 487 153.5 515 c 128,-1,14
 209 543 209 543 274 543 c 0,15,16
 352 543 352 543 397 508.5 c 128,-1,17
 442 474 442 474 458 419 c 1,18,19
 483 476 483 476 533 509.5 c 128,-1,20
 583 543 583 543 648 543 c 0,21,22
 749 543 749 543 810.5 466.5 c 128,-1,23
 872 390 872 390 872 278 c 2,24,-1
 872 243 l 1,25,-1
 478 243 l 1,26,-1
 478 221 l 1,27,28
 485 144 485 144 529.5 88.5 c 128,-1,29
 574 33 574 33 649 33 c 0,30,31
 703 33 703 33 744 60.5 c 128,-1,32
 785 88 785 88 806 127 c 1,33,-1
 859 109 l 1,34,35
 796 -18 796 -18 648 -18 c 0,36,37
 576 -18 576 -18 524 21.5 c 128,-1,38
 472 61 472 61 445 128 c 1,39,40
 420 67 420 67 365 24.5 c 128,-1,41
 310 -18 310 -18 227 -18 c 0,42,43
 143 -18 143 -18 94 22 c 128,-1,44
 45 62 45 62 45 127 c 0,0,1
107 130 m 0,45,46
 107 90 107 90 140.5 61.5 c 128,-1,47
 174 33 174 33 233 33 c 0,48,49
 308 33 308 33 362 81 c 128,-1,50
 416 129 416 129 416 205 c 2,51,-1
 416 288 l 1,52,53
 379 276 379 276 270 259 c 0,54,55
 107 234 107 234 107 130 c 0,45,46
478 290 m 1,56,-1
 811 290 l 1,57,58
 811 374 811 374 765.5 433 c 128,-1,59
 720 492 720 492 648 492 c 0,60,61
 577 492 577 492 533 438.5 c 128,-1,62
 489 385 489 385 480 309 c 2,63,-1
 478 290 l 1,56,-1
EndSplineSet
EndChar

StartChar: eth
Encoding: 240 240 178
Width: 562
GlyphClass: 2
Flags: W
LayerCount: 2
Fore
SplineSet
48 239 m 0,0,1
 48 358 48 358 111.5 427 c 128,-1,2
 175 496 175 496 279 496 c 0,3,4
 340 496 340 496 382 467.5 c 128,-1,5
 424 439 424 439 443 399 c 1,6,7
 418 542 418 542 347 620 c 0,8,9
 338 628 338 628 329 637 c 1,10,-1
 197 541 l 1,11,-1
 162 580 l 1,12,-1
 286 670 l 1,13,14
 230 704 230 704 157 715 c 1,15,-1
 177 764 l 1,16,17
 269 750 269 750 335 706 c 1,18,-1
 438 780 l 1,19,-1
 473 740 l 1,20,-1
 378 672 l 1,21,22
 514 546 514 546 514 259 c 0,23,24
 514 138 514 138 453 60 c 128,-1,25
 392 -18 392 -18 280 -18 c 0,26,27
 171 -18 171 -18 109.5 56 c 128,-1,28
 48 130 48 130 48 239 c 0,0,1
110 241 m 0,29,30
 110 149 110 149 156.5 91 c 128,-1,31
 203 33 203 33 282 33 c 0,32,33
 358 33 358 33 402.5 90 c 128,-1,34
 447 147 447 147 447 243 c 0,35,36
 447 334 447 334 401.5 389 c 128,-1,37
 356 444 356 444 282 444 c 0,38,39
 207 444 207 444 158.5 391 c 128,-1,40
 110 338 110 338 110 241 c 0,29,30
EndSplineSet
EndChar

StartChar: divide
Encoding: 247 247 185
Width: 560
GlyphClass: 2
Flags: W
LayerCount: 2
Fore
SplineSet
230 499 m 1,0,-1
 230 595 l 1,1,-1
 330 595 l 1,2,-1
 330 499 l 1,3,-1
 230 499 l 1,0,-1
30 336 m 1,4,-1
 30 390 l 1,5,-1
 530 390 l 1,6,-1
 530 336 l 1,7,-1
 30 336 l 1,4,-1
230 132 m 1,8,-1
 230 228 l 1,9,-1
 330 228 l 1,10,-1
 330 132 l 1,11,-1
 230 132 l 1,8,-1
EndSplineSet
EndChar

StartChar: oslash
Encoding: 248 248 186
Width: 562
GlyphClass: 2
Flags: W
LayerCount: 2
Fore
SplineSet
48 262 m 0,0,1
 48 383 48 383 110 463 c 128,-1,2
 172 543 172 543 282 543 c 0,3,4
 347 543 347 543 393 515 c 1,5,-1
 429 586 l 1,6,-1
 482 586 l 1,7,-1
 431 486 l 1,8,9
 514 409 514 409 514 262 c 0,10,11
 514 149 514 149 455 65.5 c 128,-1,12
 396 -18 396 -18 282 -18 c 0,13,14
 224 -18 224 -18 180 5 c 1,15,-1
 145 -62 l 1,16,-1
 93 -62 l 1,17,-1
 140 31 l 1,18,19
 95 69 95 69 71.5 130.5 c 128,-1,20
 48 192 48 192 48 262 c 0,0,1
402 430 m 1,21,-1
 205 54 l 1,22,23
 242 33 242 33 282 33 c 0,24,25
 356 33 356 33 404.5 96 c 128,-1,26
 453 159 453 159 453 262 c 0,27,28
 453 366 453 366 402 430 c 1,21,-1
367 464 m 1,29,30
 326 492 326 492 282 492 c 0,31,32
 209 492 209 492 159.5 429.5 c 128,-1,33
 110 367 110 367 110 262 c 0,34,35
 110 150 110 150 169 85 c 1,36,-1
 367 464 l 1,29,30
EndSplineSet
EndChar

StartChar: thorn
Encoding: 254 254 192
Width: 588
GlyphClass: 2
Flags: W
LayerCount: 2
Fore
SplineSet
152 264 m 0,0,1
 152 160 152 160 198.5 96.5 c 128,-1,2
 245 33 245 33 312 33 c 0,3,4
 388 33 388 33 433.5 94.5 c 128,-1,5
 479 156 479 156 479 263 c 0,6,7
 479 367 479 367 434 429.5 c 128,-1,8
 389 492 389 492 312 492 c 0,9,10
 247 492 247 492 199.5 429 c 128,-1,11
 152 366 152 366 152 264 c 0,0,1
93 -235 m 1,12,-1
 93 764 l 1,13,-1
 154 764 l 1,14,-1
 154 417 l 1,15,16
 171 473 171 473 219.5 508 c 128,-1,17
 268 543 268 543 319 543 c 0,18,19
 421 543 421 543 480.5 468 c 128,-1,20
 540 393 540 393 540 263 c 0,21,22
 540 125 540 125 475.5 53.5 c 128,-1,23
 411 -18 411 -18 318 -18 c 0,24,25
 259 -18 259 -18 215.5 18.5 c 128,-1,26
 172 55 172 55 154 105 c 1,27,-1
 154 -235 l 1,28,-1
 93 -235 l 1,12,-1
EndSplineSet
EndChar

StartChar: dcroat
Encoding: 273 273 211
Width: 585
GlyphClass: 2
Flags: W
LayerCount: 2
Fore
SplineSet
48 263 m 0,0,1
 48 394 48 394 109.5 468.5 c 128,-1,2
 171 543 171 543 267 543 c 0,3,4
 328 543 328 543 372 506 c 128,-1,5
 416 469 416 469 434 419 c 1,6,-1
 434 629 l 1,7,-1
 213 629 l 1,8,-1
 213 675 l 1,9,-1
 434 675 l 1,10,-1
 434 764 l 1,11,-1
 495 764 l 1,12,-1
 495 675 l 1,13,-1
 569 675 l 1,14,-1
 569 629 l 1,15,-1
 495 629 l 1,16,-1
 495 0 l 1,17,-1
 436 0 l 1,18,-1
 436 105 l 1,19,20
 414 50 414 50 370.5 16 c 128,-1,21
 327 -18 327 -18 266 -18 c 0,22,23
 178 -18 178 -18 113 53 c 128,-1,24
 48 124 48 124 48 263 c 0,0,1
110 263 m 256,25,26
 110 159 110 159 155.5 96 c 128,-1,27
 201 33 201 33 275 33 c 0,28,29
 343 33 343 33 389.5 95.5 c 128,-1,30
 436 158 436 158 436 263 c 0,31,32
 436 365 436 365 389 428.5 c 128,-1,33
 342 492 342 492 274 492 c 0,34,35
 201 492 201 492 155.5 429.5 c 128,-1,36
 110 367 110 367 110 263 c 256,25,26
EndSplineSet
EndChar

StartChar: uni0123
Encoding: 291 291 229
Width: 574
GlyphClass: 2
Flags: W
LayerCount: 2
Fore
SplineSet
230 631 m 1,0,-1
 311 806 l 1,1,-1
 356 806 l 1,2,-1
 305 631 l 1,3,-1
 230 631 l 1,0,-1
110 272 m 0,4,5
 110 172 110 172 154.5 112 c 128,-1,6
 199 52 199 52 267 52 c 0,7,8
 341 52 341 52 383.5 111 c 128,-1,9
 426 170 426 170 426 274 c 0,10,11
 426 375 426 375 383 433.5 c 128,-1,12
 340 492 340 492 269 492 c 0,13,14
 197 492 197 492 153.5 430.5 c 128,-1,15
 110 369 110 369 110 272 c 0,4,5
48 272 m 256,16,17
 48 392 48 392 107.5 467.5 c 128,-1,18
 167 543 167 543 262 543 c 0,19,20
 328 543 328 543 368 508.5 c 128,-1,21
 408 474 408 474 426 427 c 1,22,-1
 426 525 l 1,23,-1
 486 525 l 1,24,-1
 486 54 l 2,25,26
 486 -95 486 -95 434.5 -167 c 128,-1,27
 383 -239 383 -239 267 -239 c 0,28,29
 211 -239 211 -239 160.5 -215.5 c 128,-1,30
 110 -192 110 -192 79 -147 c 1,31,-1
 122 -118 l 1,32,33
 182 -189 182 -189 269 -189 c 0,34,35
 422 -189 422 -189 425 27 c 0,36,37
 426 62 426 62 426 114 c 1,38,39
 405 64 405 64 364.5 32.5 c 128,-1,40
 324 1 324 1 263 1 c 0,41,42
 167 1 167 1 107.5 76.5 c 128,-1,43
 48 152 48 152 48 272 c 256,16,17
EndSplineSet
EndChar

StartChar: Hbar
Encoding: 294 294 232
Width: 732
GlyphClass: 2
Flags: W
LayerCount: 2
Fore
SplineSet
21 572 m 1,0,-1
 21 622 l 1,1,-1
 110 622 l 1,2,-1
 110 735 l 1,3,-1
 173 735 l 1,4,-1
 173 622 l 1,5,-1
 559 622 l 1,6,-1
 559 735 l 1,7,-1
 622 735 l 1,8,-1
 622 622 l 1,9,-1
 711 622 l 1,10,-1
 711 572 l 1,11,-1
 622 572 l 1,12,-1
 622 0 l 1,13,-1
 559 0 l 1,14,-1
 559 352 l 1,15,-1
 173 352 l 1,16,-1
 173 0 l 1,17,-1
 110 0 l 1,18,-1
 110 572 l 1,19,-1
 21 572 l 1,0,-1
559 572 m 1,20,-1
 173 572 l 1,21,-1
 173 406 l 1,22,-1
 559 406 l 1,23,-1
 559 572 l 1,20,-1
EndSplineSet
EndChar

StartChar: hbar
Encoding: 295 295 233
Width: 573
GlyphClass: 2
Flags: W
LayerCount: 2
Fore
SplineSet
15 634 m 1,0,-1
 15 681 l 1,1,-1
 90 681 l 1,2,-1
 90 764 l 1,3,-1
 151 764 l 1,4,-1
 151 681 l 1,5,-1
 364 681 l 1,6,-1
 364 634 l 1,7,-1
 151 634 l 1,8,-1
 151 423 l 1,9,-1
 152 423 l 1,10,11
 170 465 170 465 216.5 499 c 128,-1,12
 263 533 263 533 323 533 c 0,13,14
 353 533 353 533 379 525 c 128,-1,15
 405 517 405 517 432.5 496.5 c 128,-1,16
 460 476 460 476 476.5 433.5 c 128,-1,17
 493 391 493 391 493 330 c 2,18,-1
 493 0 l 1,19,-1
 433 0 l 1,20,-1
 433 320 l 2,21,22
 433 482 433 482 312 482 c 0,23,24
 248 482 248 482 199.5 428 c 128,-1,25
 151 374 151 374 151 305 c 2,26,-1
 151 0 l 1,27,-1
 90 0 l 1,28,-1
 90 634 l 1,29,-1
 15 634 l 1,0,-1
EndSplineSet
EndChar

StartChar: dotlessi
Encoding: 305 305 243
Width: 243
GlyphClass: 2
Flags: W
LayerCount: 2
Fore
SplineSet
91 0 m 1,0,-1
 91 525 l 1,1,-1
 153 525 l 1,2,-1
 153 0 l 1,3,-1
 91 0 l 1,0,-1
EndSplineSet
EndChar

StartChar: kgreenlandic
Encoding: 312 312 250
Width: 503
GlyphClass: 2
Flags: W
LayerCount: 2
Fore
SplineSet
90 0 m 1,0,-1
 90 525 l 1,1,-1
 151 525 l 1,2,-1
 151 281 l 1,3,-1
 153 281 l 1,4,-1
 417 525 l 1,5,-1
 496 525 l 1,6,-1
 226 273 l 1,7,-1
 507 0 l 1,8,-1
 431 0 l 1,9,-1
 186 230 l 1,10,-1
 151 197 l 1,11,-1
 151 0 l 1,12,-1
 90 0 l 1,0,-1
EndSplineSet
EndChar

StartChar: Lslash
Encoding: 321 321 259
Width: 538
GlyphClass: 2
Flags: W
LayerCount: 2
Fore
SplineSet
173 350 m 1,0,-1
 173 54 l 1,1,-1
 529 54 l 1,2,-1
 529 0 l 1,3,-1
 110 0 l 1,4,-1
 110 310 l 1,5,-1
 2 236 l 1,6,-1
 -28 281 l 1,7,-1
 110 375 l 1,8,-1
 110 735 l 1,9,-1
 173 735 l 1,10,-1
 173 414 l 1,11,-1
 277 485 l 1,12,-1
 306 440 l 1,13,-1
 173 350 l 1,0,-1
EndSplineSet
EndChar

StartChar: lslash
Encoding: 322 322 260
Width: 252
GlyphClass: 2
Flags: W
LayerCount: 2
Fore
SplineSet
157 367 m 1,0,-1
 157 0 l 1,1,-1
 96 0 l 1,2,-1
 96 327 l 1,3,-1
 -6 259 l 1,4,-1
 -36 305 l 1,5,-1
 96 392 l 1,6,-1
 96 764 l 1,7,-1
 157 764 l 1,8,-1
 157 432 l 1,9,-1
 258 498 l 1,10,-1
 287 453 l 1,11,-1
 157 367 l 1,0,-1
EndSplineSet
EndChar

StartChar: Eng
Encoding: 330 330 268
Width: 738
GlyphClass: 2
Flags: W
LayerCount: 2
Fore
SplineSet
110 0 m 1,0,-1
 110 735 l 1,1,-1
 184 735 l 1,2,-1
 568 92 l 1,3,-1
 574 92 l 1,4,5
 565 186 565 186 565 282 c 2,6,-1
 565 735 l 1,7,-1
 629 735 l 1,8,-1
 629 4 l 2,9,10
 629 -239 629 -239 441 -239 c 0,11,12
 394 -239 394 -239 340 -232 c 1,13,-1
 340 -179 l 1,14,15
 382 -185 382 -185 430 -185 c 0,16,17
 500 -185 500 -185 527.5 -142 c 128,-1,18
 555 -99 555 -99 556 0 c 1,19,-1
 231 542 l 1,20,-1
 170 646 l 1,21,-1
 166 646 l 1,22,23
 173 562 173 562 173 464 c 2,24,-1
 173 0 l 1,25,-1
 110 0 l 1,0,-1
EndSplineSet
EndChar

StartChar: eng
Encoding: 331 331 269
Width: 567
GlyphClass: 2
Flags: W
LayerCount: 2
Fore
SplineSet
85 0 m 1,0,-1
 85 525 l 1,1,-1
 145 525 l 1,2,-1
 145 426 l 1,3,-1
 146 426 l 1,4,5
 157 466 157 466 205 504.5 c 128,-1,6
 253 543 253 543 321 543 c 0,7,8
 392 543 392 543 440.5 497.5 c 128,-1,9
 489 452 489 452 489 340 c 2,10,-1
 489 4 l 2,11,12
 489 -239 489 -239 315 -239 c 0,13,14
 292 -239 292 -239 223 -230 c 1,15,-1
 223 -178 l 1,16,17
 279 -186 279 -186 307 -186 c 0,18,19
 371 -186 371 -186 399 -141 c 128,-1,20
 427 -96 427 -96 427 -2 c 2,21,-1
 427 329 l 2,22,23
 427 492 427 492 308 492 c 0,24,25
 244 492 244 492 195 440 c 128,-1,26
 146 388 146 388 146 317 c 2,27,-1
 146 0 l 1,28,-1
 85 0 l 1,0,-1
EndSplineSet
EndChar

StartChar: OE
Encoding: 338 338 276
Width: 942
GlyphClass: 2
Flags: W
LayerCount: 2
Fore
SplineSet
55 368 m 0,0,1
 55 545 55 545 143 649.5 c 128,-1,2
 231 754 231 754 369 754 c 0,3,4
 425 754 425 754 473 735 c 1,5,-1
 895 735 l 1,6,-1
 895 681 l 1,7,-1
 533 681 l 1,8,-1
 533 408 l 1,9,-1
 858 408 l 1,10,-1
 858 354 l 1,11,-1
 533 354 l 1,12,-1
 533 54 l 1,13,-1
 902 54 l 1,14,-1
 902 0 l 1,15,-1
 475 0 l 1,16,17
 428 -18 428 -18 369 -18 c 0,18,19
 229 -18 229 -18 142 86 c 128,-1,20
 55 190 55 190 55 368 c 0,0,1
120 368 m 0,21,22
 120 216 120 216 190 126 c 128,-1,23
 260 36 260 36 369 36 c 0,24,25
 426 36 426 36 470 61 c 1,26,-1
 470 672 l 1,27,28
 430 699 430 699 369 699 c 0,29,30
 256 699 256 699 188 608.5 c 128,-1,31
 120 518 120 518 120 368 c 0,21,22
EndSplineSet
EndChar

StartChar: uni0163
Encoding: 355 355 293
Width: 353
GlyphClass: 2
Flags: W
LayerCount: 2
Fore
SplineSet
23 474 m 1,0,-1
 23 525 l 1,1,-1
 119 525 l 1,2,-1
 119 698 l 1,3,-1
 180 698 l 1,4,-1
 180 525 l 1,5,-1
 316 525 l 1,6,-1
 316 474 l 1,7,-1
 180 474 l 1,8,-1
 180 149 l 2,9,10
 180 97 180 97 200.5 74.5 c 128,-1,11
 221 52 221 52 266 52 c 2,12,-1
 317 52 l 1,13,-1
 317 0 l 1,14,-1
 258 0 l 2,15,16
 254 0 254 0 250 0 c 2,17,-1
 239 -45 l 1,18,19
 285 -51 285 -51 310 -73.5 c 128,-1,20
 335 -96 335 -96 335 -131 c 0,21,22
 335 -169 335 -169 305 -194.5 c 128,-1,23
 275 -220 275 -220 214 -220 c 0,24,25
 172 -220 172 -220 130 -209 c 1,26,-1
 130 -168 l 1,27,28
 174 -179 174 -179 214 -179 c 0,29,30
 245 -179 245 -179 264 -165.5 c 128,-1,31
 283 -152 283 -152 283 -128 c 0,32,33
 283 -77 283 -77 176 -71 c 1,34,-1
 196 9 l 1,35,36
 119 37 119 37 119 143 c 2,37,-1
 119 474 l 1,38,-1
 23 474 l 1,0,-1
EndSplineSet
Substitution2: "'locl' Localized Forms in Latin lookup 3 subtable" uni021B
Substitution2: "'locl' Localized Forms in Latin lookup 2 subtable" uni021B
Substitution2: "'aalt' Access All Alternates lookup 0 subtable" uni021B
EndChar

StartChar: tbar
Encoding: 359 359 297
Width: 357
GlyphClass: 2
Flags: W
LayerCount: 2
Fore
SplineSet
23 474 m 1,0,-1
 23 525 l 1,1,-1
 119 525 l 1,2,-1
 119 698 l 1,3,-1
 180 698 l 1,4,-1
 180 525 l 1,5,-1
 320 525 l 1,6,-1
 320 474 l 1,7,-1
 180 474 l 1,8,-1
 180 349 l 1,9,-1
 326 349 l 1,10,-1
 326 298 l 1,11,-1
 180 298 l 1,12,-1
 180 149 l 2,13,14
 180 97 180 97 200.5 74.5 c 128,-1,15
 221 52 221 52 266 52 c 2,16,-1
 321 52 l 1,17,-1
 321 0 l 1,18,-1
 258 0 l 2,19,20
 119 0 119 0 119 143 c 2,21,-1
 119 298 l 1,22,-1
 14 298 l 1,23,-1
 14 349 l 1,24,-1
 119 349 l 1,25,-1
 119 474 l 1,26,-1
 23 474 l 1,0,-1
EndSplineSet
EndChar

StartChar: longs
Encoding: 383 383 321
Width: 302
GlyphClass: 2
Flags: W
LayerCount: 2
Fore
SplineSet
94 0 m 1,0,-1
 94 605 l 2,1,2
 94 681 94 681 132.5 718.5 c 128,-1,3
 171 756 171 756 237 756 c 2,4,-1
 293 756 l 1,5,-1
 293 704 l 1,6,-1
 246 704 l 2,7,8
 155 704 155 704 155 597 c 2,9,-1
 155 0 l 1,10,-1
 94 0 l 1,0,-1
EndSplineSet
EndChar

StartChar: uni0180
Encoding: 384 384 322
Width: 585
GlyphClass: 2
Flags: W
LayerCount: 2
Fore
SplineSet
150 263 m 0,0,1
 150 157 150 157 197 95 c 128,-1,2
 244 33 244 33 311 33 c 0,3,4
 385 33 385 33 431 95 c 128,-1,5
 477 157 477 157 477 263 c 0,6,7
 477 367 477 367 432 429.5 c 128,-1,8
 387 492 387 492 313 492 c 0,9,10
 246 492 246 492 198 430 c 128,-1,11
 150 368 150 368 150 263 c 0,0,1
19 633 m 1,12,-1
 19 681 l 1,13,-1
 91 681 l 1,14,-1
 91 764 l 1,15,-1
 152 764 l 1,16,-1
 152 681 l 1,17,-1
 365 681 l 1,18,-1
 365 633 l 1,19,-1
 152 633 l 1,20,-1
 152 417 l 1,21,22
 165 463 165 463 210.5 503 c 128,-1,23
 256 543 256 543 320 543 c 0,24,25
 419 543 419 543 478.5 468 c 128,-1,26
 538 393 538 393 538 263 c 0,27,28
 538 191 538 191 518.5 134.5 c 128,-1,29
 499 78 499 78 466.5 46 c 128,-1,30
 434 14 434 14 396.5 -2 c 128,-1,31
 359 -18 359 -18 319 -18 c 0,32,33
 258 -18 258 -18 214 17.5 c 128,-1,34
 170 53 170 53 151 104 c 1,35,-1
 151 0 l 1,36,-1
 91 0 l 1,37,-1
 91 633 l 1,38,-1
 19 633 l 1,12,-1
EndSplineSet
EndChar

StartChar: uni0182
Encoding: 386 386 324
Width: 660
GlyphClass: 2
Flags: W
LayerCount: 2
Fore
SplineSet
173 54 m 1,0,-1
 381 54 l 2,1,2
 456 54 456 54 501.5 92 c 128,-1,3
 547 130 547 130 547 203 c 0,4,5
 547 272 547 272 500 314 c 128,-1,6
 453 356 453 356 375 356 c 2,7,-1
 173 356 l 1,8,-1
 173 54 l 1,0,-1
110 0 m 1,9,-1
 110 735 l 1,10,-1
 527 735 l 1,11,-1
 527 681 l 1,12,-1
 173 681 l 1,13,-1
 173 410 l 1,14,-1
 383 410 l 2,15,16
 489 410 489 410 550.5 352.5 c 128,-1,17
 612 295 612 295 612 203 c 0,18,19
 612 114 612 114 552 57 c 128,-1,20
 492 0 492 0 392 0 c 2,21,-1
 110 0 l 1,9,-1
EndSplineSet
EndChar

StartChar: uni0183
Encoding: 387 387 325
Width: 585
GlyphClass: 2
Flags: W
LayerCount: 2
Fore
SplineSet
150 263 m 0,0,1
 150 157 150 157 196.5 95 c 128,-1,2
 243 33 243 33 311 33 c 0,3,4
 384 33 384 33 430.5 95 c 128,-1,5
 477 157 477 157 477 263 c 0,6,7
 477 368 477 368 431.5 430 c 128,-1,8
 386 492 386 492 313 492 c 0,9,10
 246 492 246 492 198 430 c 128,-1,11
 150 368 150 368 150 263 c 0,0,1
91 0 m 1,12,-1
 91 764 l 1,13,-1
 437 764 l 1,14,-1
 437 713 l 1,15,-1
 152 713 l 1,16,-1
 152 418 l 1,17,18
 163 461 163 461 209 502 c 128,-1,19
 255 543 255 543 320 543 c 0,20,21
 418 543 418 543 478 467.5 c 128,-1,22
 538 392 538 392 538 263 c 0,23,24
 538 124 538 124 472.5 53 c 128,-1,25
 407 -18 407 -18 319 -18 c 0,26,27
 259 -18 259 -18 214.5 17.5 c 128,-1,28
 170 53 170 53 151 104 c 1,29,-1
 151 0 l 1,30,-1
 91 0 l 1,12,-1
EndSplineSet
EndChar

StartChar: uni0184
Encoding: 388 388 326
Width: 665
GlyphClass: 2
Flags: W
LayerCount: 2
Fore
SplineSet
35 679 m 1,0,-1
 132 735 l 1,1,-1
 174 735 l 1,2,-1
 174 406 l 1,3,-1
 388 406 l 2,4,5
 493 406 493 406 555 348.5 c 128,-1,6
 617 291 617 291 617 203 c 0,7,8
 617 120 617 120 559.5 60 c 128,-1,9
 502 0 502 0 403 0 c 2,10,-1
 110 0 l 1,11,-1
 110 622 l 1,12,-1
 35 679 l 1,0,-1
174 54 m 1,13,-1
 388 54 l 2,14,15
 459 54 459 54 505.5 93.5 c 128,-1,16
 552 133 552 133 552 202 c 0,17,18
 552 266 552 266 506 309.5 c 128,-1,19
 460 353 460 353 384 353 c 2,20,-1
 174 353 l 1,21,-1
 174 54 l 1,13,-1
EndSplineSet
EndChar

StartChar: uni0185
Encoding: 389 389 327
Width: 585
GlyphClass: 2
Flags: W
LayerCount: 2
Fore
SplineSet
18 704 m 1,0,-1
 117 764 l 1,1,-1
 152 764 l 1,2,-1
 152 418 l 1,3,4
 173 477 173 477 222.5 510 c 128,-1,5
 272 543 272 543 320 543 c 0,6,7
 418 543 418 543 478 468 c 128,-1,8
 538 393 538 393 538 263 c 0,9,10
 538 191 538 191 518.5 135.5 c 128,-1,11
 499 80 499 80 467 47.5 c 128,-1,12
 435 15 435 15 397.5 -1.5 c 128,-1,13
 360 -18 360 -18 319 -18 c 0,14,15
 259 -18 259 -18 215 17.5 c 128,-1,16
 171 53 171 53 151 104 c 1,17,-1
 151 0 l 1,18,-1
 91 0 l 1,19,-1
 91 647 l 1,20,-1
 18 704 l 1,0,-1
150 263 m 0,21,22
 150 157 150 157 196.5 95 c 128,-1,23
 243 33 243 33 311 33 c 0,24,25
 385 33 385 33 431 95 c 128,-1,26
 477 157 477 157 477 263 c 0,27,28
 477 367 477 367 431.5 429.5 c 128,-1,29
 386 492 386 492 313 492 c 0,30,31
 246 492 246 492 198 430 c 128,-1,32
 150 368 150 368 150 263 c 0,21,22
EndSplineSet
EndChar

StartChar: uni0186
Encoding: 390 390 328
Width: 644
GlyphClass: 2
Flags: W
LayerCount: 2
Fore
SplineSet
30 148 m 1,0,-1
 87 167 l 1,1,2
 113 111 113 111 162.5 74 c 128,-1,3
 212 37 212 37 281 37 c 0,4,5
 389 37 389 37 456.5 126 c 128,-1,6
 524 215 524 215 524 368 c 0,7,8
 524 518 524 518 458 608.5 c 128,-1,9
 392 699 392 699 281 699 c 0,10,11
 168 699 168 699 104 578 c 1,12,-1
 50 598 l 1,13,14
 78 660 78 660 137 707 c 128,-1,15
 196 754 196 754 281 754 c 0,16,17
 418 754 418 754 503.5 651 c 128,-1,18
 589 548 589 548 589 368 c 256,19,20
 589 188 589 188 503.5 85 c 128,-1,21
 418 -18 418 -18 281 -18 c 0,22,23
 188 -18 188 -18 125.5 29.5 c 128,-1,24
 63 77 63 77 30 148 c 1,0,-1
EndSplineSet
EndChar

StartChar: uni018B
Encoding: 395 395 333
Width: 660
GlyphClass: 2
Flags: W
LayerCount: 2
Fore
SplineSet
113 203 m 0,0,1
 113 132 113 132 159 93 c 128,-1,2
 205 54 205 54 279 54 c 2,3,-1
 486 54 l 1,4,-1
 486 356 l 1,5,-1
 288 356 l 2,6,7
 209 356 209 356 161 314.5 c 128,-1,8
 113 273 113 273 113 203 c 0,0,1
48 203 m 0,9,10
 48 295 48 295 110.5 352.5 c 128,-1,11
 173 410 173 410 280 410 c 2,12,-1
 486 410 l 1,13,-1
 486 681 l 1,14,-1
 133 681 l 1,15,-1
 133 735 l 1,16,-1
 550 735 l 1,17,-1
 550 0 l 1,18,-1
 268 0 l 2,19,20
 169 0 169 0 108.5 56.5 c 128,-1,21
 48 113 48 113 48 203 c 0,9,10
EndSplineSet
EndChar

StartChar: uni018C
Encoding: 396 396 334
Width: 585
GlyphClass: 2
Flags: W
LayerCount: 2
Fore
SplineSet
110 263 m 256,0,1
 110 157 110 157 156 95 c 128,-1,2
 202 33 202 33 275 33 c 0,3,4
 343 33 343 33 389.5 95 c 128,-1,5
 436 157 436 157 436 263 c 0,6,7
 436 368 436 368 388 430 c 128,-1,8
 340 492 340 492 273 492 c 0,9,10
 201 492 201 492 155.5 430.5 c 128,-1,11
 110 369 110 369 110 263 c 256,0,1
48 263 m 0,12,13
 48 392 48 392 109.5 467.5 c 128,-1,14
 171 543 171 543 267 543 c 0,15,16
 331 543 331 543 375.5 503.5 c 128,-1,17
 420 464 420 464 434 419 c 1,18,-1
 434 713 l 1,19,-1
 144 713 l 1,20,-1
 144 764 l 1,21,-1
 495 764 l 1,22,-1
 495 0 l 1,23,-1
 436 0 l 1,24,-1
 436 105 l 1,25,26
 417 54 417 54 372.5 18 c 128,-1,27
 328 -18 328 -18 266 -18 c 0,28,29
 226 -18 226 -18 188.5 -2 c 128,-1,30
 151 14 151 14 119 46.5 c 128,-1,31
 87 79 87 79 67.5 135 c 128,-1,32
 48 191 48 191 48 263 c 0,12,13
EndSplineSet
EndChar

StartChar: uni018D
Encoding: 397 397 335
Width: 615
GlyphClass: 2
Flags: W
LayerCount: 2
Fore
SplineSet
110 317 m 0,0,1
 110 267 110 267 143.5 220.5 c 128,-1,2
 177 174 177 174 219.5 145.5 c 128,-1,3
 262 117 262 117 312 95 c 1,4,5
 396 131 396 131 450.5 192 c 128,-1,6
 505 253 505 253 505 318 c 0,7,8
 505 390 505 390 455 441 c 128,-1,9
 405 492 405 492 312 492 c 0,10,11
 224 492 224 492 167 444.5 c 128,-1,12
 110 397 110 397 110 317 c 0,0,1
48 314 m 0,13,14
 48 421 48 421 119.5 482 c 128,-1,15
 191 543 191 543 312 543 c 0,16,17
 430 543 430 543 499 480 c 128,-1,18
 568 417 568 417 568 320 c 0,19,20
 568 251 568 251 513.5 181 c 128,-1,21
 459 111 459 111 365 67 c 1,22,23
 494 -4 494 -4 494 -82 c 0,24,25
 494 -147 494 -147 441.5 -189 c 128,-1,26
 389 -231 389 -231 297 -231 c 0,27,28
 156 -231 156 -231 82 -121 c 1,29,-1
 129 -92 l 1,30,31
 153 -127 153 -127 196 -153 c 128,-1,32
 239 -179 239 -179 296 -179 c 256,33,34
 353 -179 353 -179 393 -153 c 128,-1,35
 433 -127 433 -127 433 -83 c 0,36,37
 433 -63 433 -63 419.5 -43.5 c 128,-1,38
 406 -24 406 -24 377 -4.5 c 128,-1,39
 348 15 348 15 323 28.5 c 128,-1,40
 298 42 298 42 255 63 c 0,41,42
 48 166 48 166 48 314 c 0,13,14
EndSplineSet
EndChar

StartChar: uni018E
Encoding: 398 398 336
Width: 613
GlyphClass: 2
Flags: W
LayerCount: 2
Fore
SplineSet
41 0 m 1,0,-1
 41 54 l 1,1,-1
 440 54 l 1,2,-1
 440 354 l 1,3,-1
 88 354 l 1,4,-1
 88 407 l 1,5,-1
 440 407 l 1,6,-1
 440 681 l 1,7,-1
 52 681 l 1,8,-1
 52 735 l 1,9,-1
 504 735 l 1,10,-1
 504 0 l 1,11,-1
 41 0 l 1,0,-1
EndSplineSet
EndChar

StartChar: uni018F
Encoding: 399 399 337
Width: 697
GlyphClass: 2
Flags: W
LayerCount: 2
Fore
SplineSet
52 334 m 0,0,1
 52 376 52 376 53 391 c 1,2,-1
 577 391 l 1,3,4
 572 532 572 532 512 615.5 c 128,-1,5
 452 699 452 699 335 699 c 0,6,7
 204 699 204 699 130 581 c 1,8,-1
 76 603 l 1,9,10
 112 673 112 673 180 713.5 c 128,-1,11
 248 754 248 754 336 754 c 0,12,13
 440 754 440 754 510 702 c 128,-1,14
 580 650 580 650 611.5 565 c 128,-1,15
 643 480 643 480 643 366 c 0,16,17
 643 182 643 182 557.5 82 c 128,-1,18
 472 -18 472 -18 339 -18 c 0,19,20
 265 -18 265 -18 208 12 c 128,-1,21
 151 42 151 42 118 92.5 c 128,-1,22
 85 143 85 143 68.5 204 c 128,-1,23
 52 265 52 265 52 334 c 0,0,1
118 337 m 1,24,25
 118 332 118 332 118.5 323.5 c 128,-1,26
 119 315 119 315 119 312 c 0,27,28
 120 272 120 272 127 235.5 c 128,-1,29
 134 199 134 199 150 162 c 128,-1,30
 166 125 166 125 189.5 97.5 c 128,-1,31
 213 70 213 70 252 53 c 128,-1,32
 291 36 291 36 341 36 c 0,33,34
 382 36 382 36 421.5 52 c 128,-1,35
 461 68 461 68 497 101.5 c 128,-1,36
 533 135 533 135 555 196 c 128,-1,37
 577 257 577 257 578 337 c 1,38,-1
 118 337 l 1,24,25
EndSplineSet
EndChar

StartChar: uni0190
Encoding: 400 400 338
Width: 602
GlyphClass: 2
Flags: W
LayerCount: 2
Fore
SplineSet
55 201 m 0,0,1
 55 280 55 280 104.5 328 c 128,-1,2
 154 376 154 376 217 391 c 1,3,4
 164 409 164 409 124.5 455.5 c 128,-1,5
 85 502 85 502 85 569 c 0,6,7
 85 648 85 648 146 701 c 128,-1,8
 207 754 207 754 312 754 c 0,9,10
 471 754 471 754 542 607 c 1,11,-1
 488 588 l 1,12,13
 429 701 429 701 314 701 c 0,14,15
 242 701 242 701 195.5 662.5 c 128,-1,16
 149 624 149 624 149 563 c 0,17,18
 149 494 149 494 203 453.5 c 128,-1,19
 257 413 257 413 330 413 c 0,20,21
 378 413 378 413 388 414 c 1,22,-1
 388 361 l 1,23,24
 377 362 377 362 327 362 c 0,25,26
 245 362 245 362 182.5 320.5 c 128,-1,27
 120 279 120 279 120 202 c 0,28,29
 120 120 120 120 178.5 77 c 128,-1,30
 237 34 237 34 318 34 c 0,31,32
 374 34 374 34 428 64 c 128,-1,33
 482 94 482 94 510 139 c 1,34,-1
 562 117 l 1,35,36
 529 56 529 56 462.5 19 c 128,-1,37
 396 -18 396 -18 316 -18 c 0,38,39
 205 -18 205 -18 130 40 c 128,-1,40
 55 98 55 98 55 201 c 0,0,1
EndSplineSet
EndChar

StartChar: uni0191
Encoding: 401 401 339
Width: 571
GlyphClass: 2
Flags: W
LayerCount: 2
Fore
SplineSet
-32 -181 m 1,0,1
 -6 -185 -6 -185 17 -185 c 0,2,3
 68 -185 68 -185 89 -151 c 128,-1,4
 110 -117 110 -117 110 -47 c 2,5,-1
 110 735 l 1,6,-1
 547 735 l 1,7,-1
 547 681 l 1,8,-1
 173 681 l 1,9,-1
 173 397 l 1,10,-1
 510 397 l 1,11,-1
 510 344 l 1,12,-1
 173 344 l 1,13,-1
 173 -47 l 2,14,15
 173 -239 173 -239 27 -239 c 0,16,17
 -5 -239 -5 -239 -32 -234 c 1,18,-1
 -32 -181 l 1,0,1
EndSplineSet
EndChar

StartChar: florin
Encoding: 402 402 340
Width: 332
GlyphClass: 2
Flags: W
LayerCount: 2
Fore
SplineSet
-29 -182 m 1,0,1
 -8 -186 -8 -186 20 -186 c 0,2,3
 119 -186 119 -186 119 -39 c 2,4,-1
 119 474 l 1,5,-1
 24 474 l 1,6,-1
 24 525 l 1,7,-1
 119 525 l 1,8,-1
 119 614 l 2,9,10
 119 690 119 690 157.5 727 c 128,-1,11
 196 764 196 764 262 764 c 2,12,-1
 323 764 l 1,13,-1
 323 713 l 1,14,-1
 269 713 l 2,15,16
 180 713 180 713 180 607 c 2,17,-1
 180 525 l 1,18,-1
 309 525 l 1,19,-1
 309 474 l 1,20,-1
 180 474 l 1,21,-1
 180 -41 l 2,22,23
 180 -142 180 -142 140.5 -190.5 c 128,-1,24
 101 -239 101 -239 30 -239 c 0,25,26
 11 -239 11 -239 -29 -234 c 1,27,-1
 -29 -182 l 1,0,1
EndSplineSet
EndChar

StartChar: uni0194
Encoding: 404 404 342
Width: 598
GlyphClass: 2
Flags: W
LayerCount: 2
Fore
SplineSet
-2 735 m 1,0,-1
 69 735 l 1,1,-1
 301 136 l 1,2,-1
 302 136 l 1,3,-1
 313 171 l 1,4,-1
 530 735 l 1,5,-1
 601 735 l 1,6,-1
 349 103 l 1,7,8
 394 45 394 45 417.5 0 c 128,-1,9
 441 -45 441 -45 441 -95 c 0,10,11
 441 -155 441 -155 402 -197 c 128,-1,12
 363 -239 363 -239 301 -239 c 256,13,14
 239 -239 239 -239 199.5 -199.5 c 128,-1,15
 160 -160 160 -160 160 -95 c 0,16,17
 160 -62 160 -62 175.5 -23.5 c 128,-1,18
 191 15 191 15 207.5 40 c 128,-1,19
 224 65 224 65 252 103 c 1,20,-1
 -2 735 l 1,0,-1
224 -93 m 0,21,22
 224 -134 224 -134 245 -161 c 128,-1,23
 266 -188 266 -188 301 -188 c 0,24,25
 335 -188 335 -188 356.5 -159.5 c 128,-1,26
 378 -131 378 -131 378 -93 c 0,27,28
 378 -26 378 -26 300 67 c 1,29,30
 224 -22 224 -22 224 -93 c 0,21,22
EndSplineSet
EndChar

StartChar: uni0195
Encoding: 405 405 343
Width: 905
GlyphClass: 2
Flags: W
LayerCount: 2
Fore
SplineSet
91 0 m 1,0,-1
 91 764 l 1,1,-1
 152 764 l 1,2,-1
 152 433 l 1,3,-1
 153 433 l 1,4,5
 174 480 174 480 220.5 511.5 c 128,-1,6
 267 543 267 543 325 543 c 0,7,8
 494 543 494 543 494 340 c 2,9,-1
 494 168 l 2,10,11
 494 106 494 106 527 69.5 c 128,-1,12
 560 33 560 33 627 33 c 0,13,14
 764 33 764 33 764 173 c 2,15,-1
 764 525 l 1,16,-1
 826 525 l 1,17,-1
 826 167 l 2,18,19
 826 77 826 77 774 29.5 c 128,-1,20
 722 -18 722 -18 627 -18 c 0,21,22
 545 -18 545 -18 489 23 c 128,-1,23
 433 64 433 64 433 157 c 2,24,-1
 433 329 l 2,25,26
 433 492 433 492 313 492 c 0,27,28
 249 492 249 492 200.5 439.5 c 128,-1,29
 152 387 152 387 152 318 c 0,30,31
 152 316 152 316 152 315 c 2,32,-1
 152 0 l 1,33,-1
 91 0 l 1,0,-1
EndSplineSet
EndChar

StartChar: uni0196
Encoding: 406 406 344
Width: 342
GlyphClass: 2
Flags: W
LayerCount: 2
Fore
SplineSet
108 158 m 2,0,-1
 108 735 l 1,1,-1
 171 735 l 1,2,-1
 171 160 l 2,3,4
 171 95 171 95 191.5 65.5 c 128,-1,5
 212 36 212 36 256 36 c 0,6,7
 298 36 298 36 326 41 c 1,8,-1
 326 -12 l 1,9,10
 284 -18 284 -18 247 -18 c 0,11,12
 108 -18 108 -18 108 158 c 2,0,-1
EndSplineSet
EndChar

StartChar: uni0197
Encoding: 407 407 345
Width: 283
GlyphClass: 2
Flags: W
LayerCount: 2
Fore
SplineSet
31 351 m 1,0,-1
 31 400 l 1,1,-1
 110 400 l 1,2,-1
 110 735 l 1,3,-1
 173 735 l 1,4,-1
 173 400 l 1,5,-1
 253 400 l 1,6,-1
 253 351 l 1,7,-1
 173 351 l 1,8,-1
 173 0 l 1,9,-1
 110 0 l 1,10,-1
 110 351 l 1,11,-1
 31 351 l 1,0,-1
EndSplineSet
EndChar

StartChar: uni0198
Encoding: 408 408 346
Width: 635
GlyphClass: 2
Flags: W
LayerCount: 2
Fore
SplineSet
110 0 m 1,0,-1
 110 735 l 1,1,-1
 173 735 l 1,2,-1
 173 325 l 1,3,-1
 175 325 l 1,4,-1
 499 700 l 2,5,6
 546 754 546 754 619 754 c 0,7,8
 646 754 646 754 682 746 c 1,9,-1
 682 692 l 1,10,11
 650 699 650 699 622 699 c 0,12,13
 583 699 583 699 557 670 c 2,14,-1
 336 418 l 1,15,-1
 633 0 l 1,16,-1
 552 0 l 1,17,-1
 295 372 l 1,18,-1
 173 234 l 1,19,-1
 173 0 l 1,20,-1
 110 0 l 1,0,-1
EndSplineSet
EndChar

StartChar: uni0199
Encoding: 409 409 347
Width: 503
GlyphClass: 2
Flags: W
LayerCount: 2
Fore
SplineSet
92 0 m 1,0,-1
 92 615 l 2,1,2
 92 688 92 688 135 728.5 c 128,-1,3
 178 769 178 769 253 769 c 0,4,5
 288 769 288 769 318 766 c 1,6,-1
 318 713 l 1,7,8
 284 717 284 717 263 717 c 0,9,10
 214 717 214 717 184 688 c 128,-1,11
 154 659 154 659 154 605 c 2,12,-1
 154 242 l 1,13,-1
 402 525 l 1,14,-1
 483 525 l 1,15,-1
 296 317 l 1,16,-1
 507 0 l 1,17,-1
 432 0 l 1,18,-1
 256 273 l 1,19,-1
 154 159 l 1,20,-1
 154 0 l 1,21,-1
 92 0 l 1,0,-1
EndSplineSet
EndChar

StartChar: uni019A
Encoding: 410 410 348
Width: 252
GlyphClass: 2
Flags: W
LayerCount: 2
Fore
SplineSet
12 371 m 1,0,-1
 12 421 l 1,1,-1
 96 421 l 1,2,-1
 96 764 l 1,3,-1
 157 764 l 1,4,-1
 157 421 l 1,5,-1
 241 421 l 1,6,-1
 241 371 l 1,7,-1
 157 371 l 1,8,-1
 157 0 l 1,9,-1
 96 0 l 1,10,-1
 96 371 l 1,11,-1
 12 371 l 1,0,-1
EndSplineSet
EndChar

StartChar: uni019B
Encoding: 411 411 349
Width: 484
GlyphClass: 2
Flags: W
LayerCount: 2
Fore
SplineSet
9 0 m 1,0,-1
 215 539 l 1,1,-1
 196 595 l 1,2,-1
 71 506 l 1,3,-1
 41 544 l 1,4,-1
 177 639 l 1,5,6
 142 710 142 710 81 710 c 2,7,-1
 61 710 l 1,8,-1
 61 761 l 1,9,-1
 91 761 l 2,10,11
 171 761 171 761 223 671 c 1,12,-1
 321 743 l 1,13,-1
 351 704 l 1,14,-1
 244 627 l 1,15,-1
 246 619 l 1,16,-1
 475 0 l 1,17,-1
 404 0 l 1,18,-1
 291 330 l 2,19,20
 267 396 267 396 246 463 c 1,21,-1
 243 463 l 1,22,23
 236 439 236 439 198 331 c 2,24,-1
 80 0 l 1,25,-1
 9 0 l 1,0,-1
EndSplineSet
EndChar

StartChar: uni019C
Encoding: 412 412 350
Width: 960
GlyphClass: 2
Flags: W
LayerCount: 2
Fore
SplineSet
110 208 m 2,0,-1
 110 735 l 1,1,-1
 173 735 l 1,2,-1
 173 207 l 2,3,4
 173 35 173 35 289 35 c 0,5,6
 354 35 354 35 401.5 91 c 128,-1,7
 449 147 449 147 449 231 c 2,8,-1
 449 735 l 1,9,-1
 512 735 l 1,10,-1
 512 206 l 2,11,12
 512 127 512 127 541.5 81.5 c 128,-1,13
 571 36 571 36 631 36 c 0,14,15
 699 36 699 36 743.5 89 c 128,-1,16
 788 142 788 142 788 225 c 2,17,-1
 788 735 l 1,18,-1
 851 735 l 1,19,-1
 851 0 l 1,20,-1
 790 0 l 1,21,-1
 790 91 l 1,22,-1
 788 91 l 1,23,24
 772 46 772 46 725.5 14 c 128,-1,25
 679 -18 679 -18 618 -18 c 0,26,27
 551 -18 551 -18 514 19 c 128,-1,28
 477 56 477 56 465 111 c 1,29,30
 455 68 455 68 404.5 25 c 128,-1,31
 354 -18 354 -18 275 -18 c 0,32,33
 110 -18 110 -18 110 208 c 2,0,-1
EndSplineSet
EndChar

StartChar: uni019D
Encoding: 413 413 351
Width: 737
GlyphClass: 2
Flags: W
LayerCount: 2
Fore
SplineSet
110 735 m 1,0,-1
 184 735 l 1,1,-1
 506 195 l 1,2,-1
 568 89 l 1,3,-1
 573 89 l 1,4,5
 564 175 564 175 564 286 c 2,6,-1
 564 735 l 1,7,-1
 628 735 l 1,8,-1
 628 0 l 1,9,-1
 554 0 l 1,10,-1
 230 542 l 1,11,-1
 170 645 l 1,12,-1
 166 645 l 1,13,14
 174 551 174 551 174 442 c 2,15,-1
 174 -23 l 2,16,17
 174 -239 174 -239 20 -239 c 0,18,19
 -3 -239 -3 -239 -23 -235 c 1,20,-1
 -23 -182 l 1,21,22
 -10 -185 -10 -185 10 -185 c 0,23,24
 70 -185 70 -185 90 -144.5 c 128,-1,25
 110 -104 110 -104 110 -21 c 2,26,-1
 110 735 l 1,0,-1
EndSplineSet
EndChar

StartChar: uni019E
Encoding: 414 414 352
Width: 579
GlyphClass: 2
Flags: W
LayerCount: 2
Fore
SplineSet
85 0 m 1,0,-1
 85 525 l 1,1,-1
 145 525 l 1,2,-1
 145 429 l 1,3,-1
 146 429 l 1,4,5
 164 476 164 476 210.5 509.5 c 128,-1,6
 257 543 257 543 321 543 c 0,7,8
 392 543 392 543 440.5 497.5 c 128,-1,9
 489 452 489 452 489 340 c 2,10,-1
 489 -235 l 1,11,-1
 427 -235 l 1,12,-1
 427 329 l 2,13,14
 427 492 427 492 308 492 c 0,15,16
 244 492 244 492 195 440.5 c 128,-1,17
 146 389 146 389 146 320 c 0,18,19
 146 318 146 318 146 317 c 2,20,-1
 146 0 l 1,21,-1
 85 0 l 1,0,-1
EndSplineSet
EndChar

StartChar: uni019F
Encoding: 415 415 353
Width: 709
GlyphClass: 2
Flags: W
LayerCount: 2
Fore
SplineSet
55 368 m 0,0,1
 55 542 55 542 136.5 648 c 128,-1,2
 218 754 218 754 355 754 c 0,3,4
 493 754 493 754 573.5 647.5 c 128,-1,5
 654 541 654 541 654 367 c 0,6,7
 654 191 654 191 573 86.5 c 128,-1,8
 492 -18 492 -18 355 -18 c 256,9,10
 218 -18 218 -18 136.5 87.5 c 128,-1,11
 55 193 55 193 55 368 c 0,0,1
589 341 m 1,12,-1
 121 341 l 1,13,14
 126 202 126 202 188.5 119.5 c 128,-1,15
 251 37 251 37 355 37 c 0,16,17
 458 37 458 37 521 118.5 c 128,-1,18
 584 200 584 200 589 341 c 1,12,-1
121 391 m 1,19,-1
 589 391 l 1,20,21
 584 532 584 532 522 615.5 c 128,-1,22
 460 699 460 699 355 699 c 0,23,24
 251 699 251 699 188.5 616 c 128,-1,25
 126 533 126 533 121 391 c 1,19,-1
EndSplineSet
EndChar

StartChar: uni01A2
Encoding: 418 418 356
Width: 987
GlyphClass: 2
Flags: W
LayerCount: 2
Fore
SplineSet
55 362 m 0,0,1
 55 544 55 544 140 649 c 128,-1,2
 225 754 225 754 352 754 c 0,3,4
 406 754 406 754 499 733.5 c 128,-1,5
 592 713 592 713 673 713 c 0,6,7
 745 713 745 713 877 735 c 1,8,-1
 877 0 l 1,9,-1
 815 0 l 1,10,-1
 815 673 l 1,11,12
 741 660 741 660 672 660 c 256,13,14
 603 660 603 660 538 671 c 1,15,-1
 538 52 l 1,16,17
 462 -18 462 -18 352 -18 c 0,18,19
 224 -18 224 -18 139.5 87 c 128,-1,20
 55 192 55 192 55 362 c 0,0,1
120 362 m 0,21,22
 120 211 120 211 188 123.5 c 128,-1,23
 256 36 256 36 352 36 c 0,24,25
 383 36 383 36 410 43.5 c 128,-1,26
 437 51 437 51 446.5 56.5 c 128,-1,27
 456 62 456 62 475 75 c 1,28,-1
 475 680 l 1,29,30
 467 682 467 682 451 686.5 c 128,-1,31
 435 691 435 691 426 693.5 c 128,-1,32
 417 696 417 696 397 698 c 128,-1,33
 377 700 377 700 352 700 c 0,34,35
 258 700 258 700 189 612.5 c 128,-1,36
 120 525 120 525 120 362 c 0,21,22
EndSplineSet
EndChar

StartChar: uni01A3
Encoding: 419 419 357
Width: 814
GlyphClass: 2
Flags: W
LayerCount: 2
Fore
SplineSet
48 262 m 256,0,1
 48 397 48 397 113 470 c 128,-1,2
 178 543 178 543 285 543 c 0,3,4
 332 543 332 543 414 528 c 128,-1,5
 496 513 496 513 566 513 c 0,6,7
 648 513 648 513 730 528 c 1,8,-1
 730 0 l 1,9,-1
 670 0 l 1,10,-1
 670 470 l 1,11,12
 610 462 610 462 566 462 c 0,13,14
 501 462 501 462 466 467 c 1,15,-1
 466 75 l 1,16,17
 402 -18 402 -18 285 -18 c 0,18,19
 182 -18 182 -18 115 54.5 c 128,-1,20
 48 127 48 127 48 262 c 256,0,1
110 262 m 0,21,22
 110 158 110 158 158 95.5 c 128,-1,23
 206 33 206 33 285 33 c 0,24,25
 359 33 359 33 405 102 c 1,26,-1
 405 476 l 1,27,28
 332 492 332 492 285 492 c 0,29,30
 199 492 199 492 154.5 427.5 c 128,-1,31
 110 363 110 363 110 262 c 0,21,22
EndSplineSet
EndChar

StartChar: uni01A5
Encoding: 421 421 359
Width: 585
GlyphClass: 2
Flags: W
LayerCount: 2
Fore
SplineSet
151 264 m 0,0,1
 151 158 151 158 196 95.5 c 128,-1,2
 241 33 241 33 312 33 c 0,3,4
 384 33 384 33 430.5 95 c 128,-1,5
 477 157 477 157 477 263 c 0,6,7
 477 365 477 365 432 428.5 c 128,-1,8
 387 492 387 492 312 492 c 0,9,10
 244 492 244 492 197.5 429.5 c 128,-1,11
 151 367 151 367 151 264 c 0,0,1
91 -235 m 1,12,-1
 91 613 l 2,13,14
 91 694 91 694 137 731.5 c 128,-1,15
 183 769 183 769 247 769 c 0,16,17
 271 769 271 769 315 765 c 1,18,-1
 315 712 l 1,19,20
 286 715 286 715 256 715 c 0,21,22
 203 715 203 715 177 682.5 c 128,-1,23
 151 650 151 650 151 604 c 2,24,-1
 151 416 l 1,25,26
 166 465 166 465 211.5 504 c 128,-1,27
 257 543 257 543 320 543 c 0,28,29
 416 543 416 543 477 467 c 128,-1,30
 538 391 538 391 538 263 c 0,31,32
 538 125 538 125 473 53.5 c 128,-1,33
 408 -18 408 -18 319 -18 c 0,34,35
 256 -18 256 -18 213.5 17.5 c 128,-1,36
 171 53 171 53 152 104 c 1,37,-1
 152 -235 l 1,38,-1
 91 -235 l 1,12,-1
EndSplineSet
EndChar

StartChar: uni01A6
Encoding: 422 422 360
Width: 612
GlyphClass: 2
Flags: W
LayerCount: 2
Fore
SplineSet
157 290 m 1,0,-1
 319 290 l 2,1,2
 363 290 363 290 397 301 c 128,-1,3
 431 312 431 312 456 345.5 c 128,-1,4
 481 379 481 379 481 432 c 0,5,6
 481 494 481 494 442.5 529.5 c 128,-1,7
 404 565 404 565 322 565 c 2,8,-1
 157 565 l 1,9,-1
 157 290 l 1,0,-1
93 0 m 1,10,-1
 93 735 l 1,11,-1
 157 735 l 1,12,-1
 157 618 l 1,13,-1
 338 618 l 2,14,15
 443 618 443 618 494 566.5 c 128,-1,16
 545 515 545 515 545 436 c 0,17,18
 545 395 545 395 531 362.5 c 128,-1,19
 517 330 517 330 501 313 c 128,-1,20
 485 296 485 296 457.5 282 c 128,-1,21
 430 268 430 268 419 264.5 c 128,-1,22
 408 261 408 261 388 256 c 1,23,24
 428 237 428 237 447 208 c 128,-1,25
 466 179 466 179 484 126 c 0,26,27
 488 114 488 114 498 84.5 c 128,-1,28
 508 55 508 55 513.5 41 c 128,-1,29
 519 27 519 27 528 4 c 128,-1,30
 537 -19 537 -19 546.5 -39 c 128,-1,31
 556 -59 556 -59 568 -80 c 1,32,-1
 498 -80 l 1,33,34
 482 -50 482 -50 469 -17.5 c 128,-1,35
 456 15 456 15 440 60.5 c 128,-1,36
 424 106 424 106 414 132 c 0,37,38
 394 185 394 185 365 211 c 128,-1,39
 336 237 336 237 284 237 c 2,40,-1
 157 237 l 1,41,-1
 157 0 l 1,42,-1
 93 0 l 1,10,-1
EndSplineSet
EndChar

StartChar: uni01A7
Encoding: 423 423 361
Width: 607
GlyphClass: 2
Flags: W
LayerCount: 2
Fore
SplineSet
46 190 m 0,0,1
 46 227 46 227 59.5 257.5 c 128,-1,2
 73 288 73 288 92 308 c 128,-1,3
 111 328 111 328 143.5 346 c 128,-1,4
 176 364 176 364 202 374.5 c 128,-1,5
 228 385 228 385 268 398 c 0,6,7
 312 412 312 412 332 419.5 c 128,-1,8
 352 427 352 427 386 443 c 128,-1,9
 420 459 420 459 436 474 c 128,-1,10
 452 489 452 489 465 512.5 c 128,-1,11
 478 536 478 536 478 565 c 0,12,13
 478 627 478 627 432 663 c 128,-1,14
 386 699 386 699 304 699 c 0,15,16
 189 699 189 699 120 604 c 1,17,-1
 65 623 l 1,18,19
 96 678 96 678 158.5 716 c 128,-1,20
 221 754 221 754 302 754 c 0,21,22
 413 754 413 754 478.5 702.5 c 128,-1,23
 544 651 544 651 544 565 c 0,24,25
 544 526 544 526 528.5 494 c 128,-1,26
 513 462 513 462 494 443 c 128,-1,27
 475 424 475 424 436.5 404.5 c 128,-1,28
 398 385 398 385 375 376.5 c 128,-1,29
 352 368 352 368 304 352 c 0,30,31
 257 336 257 336 230.5 325 c 128,-1,32
 204 314 204 314 172 294.5 c 128,-1,33
 140 275 140 275 125.5 248.5 c 128,-1,34
 111 222 111 222 111 187 c 0,35,36
 111 117 111 117 163 76.5 c 128,-1,37
 215 36 215 36 297 36 c 0,38,39
 361 36 361 36 417.5 68.5 c 128,-1,40
 474 101 474 101 505 150 c 1,41,-1
 561 128 l 1,42,43
 524 63 524 63 456 22.5 c 128,-1,44
 388 -18 388 -18 299 -18 c 0,45,46
 183 -18 183 -18 114.5 37.5 c 128,-1,47
 46 93 46 93 46 190 c 0,0,1
EndSplineSet
EndChar

StartChar: uni01A8
Encoding: 424 424 362
Width: 490
GlyphClass: 2
Flags: W
LayerCount: 2
Fore
SplineSet
39 127 m 0,0,1
 39 154 39 154 51 176.5 c 128,-1,2
 63 199 63 199 80 214 c 128,-1,3
 97 229 97 229 125.5 243 c 128,-1,4
 154 257 154 257 174.5 264.5 c 128,-1,5
 195 272 195 272 227 282 c 0,6,7
 260 292 260 292 281 300 c 128,-1,8
 302 308 302 308 326 321.5 c 128,-1,9
 350 335 350 335 362 354 c 128,-1,10
 374 373 374 373 374 398 c 0,11,12
 374 441 374 441 338.5 466.5 c 128,-1,13
 303 492 303 492 241 492 c 0,14,15
 192 492 192 492 153.5 467 c 128,-1,16
 115 442 115 442 94 406 c 1,17,-1
 51 433 l 1,18,19
 76 479 76 479 127.5 511 c 128,-1,20
 179 543 179 543 242 543 c 0,21,22
 327 543 327 543 381.5 505 c 128,-1,23
 436 467 436 467 436 399 c 0,24,25
 436 365 436 365 422 339 c 128,-1,26
 408 313 408 313 380.5 295 c 128,-1,27
 353 277 353 277 329.5 267 c 128,-1,28
 306 257 306 257 269 245 c 0,29,30
 263 243 263 243 245.5 237.5 c 128,-1,31
 228 232 228 232 221 230 c 128,-1,32
 214 228 214 228 198 222.5 c 128,-1,33
 182 217 182 217 175 213.5 c 128,-1,34
 168 210 168 210 155.5 203.5 c 128,-1,35
 143 197 143 197 137 192 c 128,-1,36
 131 187 131 187 122.5 179.5 c 128,-1,37
 114 172 114 172 110.5 164.5 c 128,-1,38
 107 157 107 157 104 147.5 c 128,-1,39
 101 138 101 138 101 127 c 0,40,41
 101 84 101 84 138.5 58.5 c 128,-1,42
 176 33 176 33 241 33 c 0,43,44
 291 33 291 33 334.5 57.5 c 128,-1,45
 378 82 378 82 404 125 c 1,46,-1
 450 98 l 1,47,48
 382 -18 382 -18 241 -18 c 0,49,50
 145 -18 145 -18 92 24.5 c 128,-1,51
 39 67 39 67 39 127 c 0,0,1
EndSplineSet
EndChar

StartChar: uni01A9
Encoding: 425 425 363
Width: 615
GlyphClass: 2
Flags: W
LayerCount: 2
Fore
SplineSet
90 0 m 1,0,-1
 90 44 l 1,1,-1
 367 368 l 1,2,-1
 90 691 l 1,3,-1
 90 735 l 1,4,-1
 537 735 l 1,5,-1
 537 680 l 1,6,-1
 176 680 l 1,7,-1
 440 368 l 1,8,-1
 176 54 l 1,9,-1
 543 54 l 1,10,-1
 543 0 l 1,11,-1
 90 0 l 1,0,-1
EndSplineSet
EndChar

StartChar: uni01AA
Encoding: 426 426 364
Width: 432
GlyphClass: 2
Flags: W
LayerCount: 2
Fore
SplineSet
18 615 m 256,0,1
 18 577 18 577 45 554.5 c 128,-1,2
 72 532 72 532 110 532 c 0,3,4
 178 532 178 532 217 568 c 1,5,6
 217 591 217 591 212.5 612.5 c 128,-1,7
 208 634 208 634 197 655 c 128,-1,8
 186 676 186 676 164.5 689 c 128,-1,9
 143 702 143 702 112 702 c 0,10,11
 73 702 73 702 45.5 677.5 c 128,-1,12
 18 653 18 653 18 615 c 256,0,1
-44 613 m 0,13,14
 -44 678 -44 678 0.5 716 c 128,-1,15
 45 754 45 754 111 754 c 0,16,17
 193 754 193 754 235 702 c 128,-1,18
 277 650 277 650 277 562 c 2,19,-1
 277 -80 l 2,20,21
 277 -132 277 -132 297.5 -158.5 c 128,-1,22
 318 -185 318 -185 367 -185 c 0,23,24
 388 -185 388 -185 418 -181 c 1,25,-1
 418 -234 l 1,26,27
 376 -239 376 -239 357 -239 c 0,28,29
 215 -239 215 -239 215 -82 c 2,30,-1
 215 512 l 1,31,32
 177 480 177 480 102 480 c 0,33,34
 40 480 40 480 -2 517 c 128,-1,35
 -44 554 -44 554 -44 613 c 0,13,14
EndSplineSet
EndChar

StartChar: uni01AB
Encoding: 427 427 365
Width: 366
GlyphClass: 2
Flags: W
LayerCount: 2
Fore
SplineSet
23 474 m 1,0,-1
 23 525 l 1,1,-1
 119 525 l 1,2,-1
 119 698 l 1,3,-1
 180 698 l 1,4,-1
 180 525 l 1,5,-1
 316 525 l 1,6,-1
 316 474 l 1,7,-1
 180 474 l 1,8,-1
 180 149 l 2,9,10
 180 97 180 97 200.5 74.5 c 128,-1,11
 221 52 221 52 266 52 c 0,12,13
 320 52 320 52 347 57 c 1,14,-1
 347 -35 l 2,15,16
 347 -239 347 -239 197 -239 c 0,17,18
 182 -239 182 -239 147 -234 c 1,19,-1
 147 -181 l 1,20,21
 171 -185 171 -185 191 -185 c 0,22,23
 240 -185 240 -185 264 -153 c 128,-1,24
 288 -121 288 -121 288 -42 c 2,25,-1
 288 0 l 1,26,27
 284 0 284 0 278 0 c 0,28,29
 260 0 260 0 228 2 c 0,30,31
 119 14 119 14 119 143 c 2,32,-1
 119 474 l 1,33,-1
 23 474 l 1,0,-1
EndSplineSet
EndChar

StartChar: uni01AC
Encoding: 428 428 366
Width: 571
GlyphClass: 2
Flags: W
LayerCount: 2
Fore
SplineSet
-17 609 m 0,0,1
 -17 735 -17 735 159 735 c 2,2,-1
 558 735 l 1,3,-1
 558 680 l 1,4,-1
 330 680 l 1,5,-1
 330 0 l 1,6,-1
 267 0 l 1,7,-1
 267 680 l 1,8,-1
 161 680 l 2,9,10
 100 680 100 680 70.5 662.5 c 128,-1,11
 41 645 41 645 41 605 c 0,12,13
 41 588 41 588 44 574 c 1,14,-1
 -12 574 l 1,15,16
 -17 594 -17 594 -17 609 c 0,0,1
EndSplineSet
EndChar

StartChar: uni01AD
Encoding: 429 429 367
Width: 353
GlyphClass: 2
Flags: W
LayerCount: 2
Fore
SplineSet
23 474 m 1,0,-1
 23 525 l 1,1,-1
 119 525 l 1,2,-1
 119 611 l 2,3,4
 119 684 119 684 162 724.5 c 128,-1,5
 205 765 205 765 280 765 c 0,6,7
 314 765 314 765 344 762 c 1,8,-1
 344 709 l 1,9,10
 318 712 318 712 289 712 c 0,11,12
 239 712 239 712 209.5 684 c 128,-1,13
 180 656 180 656 180 604 c 2,14,-1
 180 525 l 1,15,-1
 316 525 l 1,16,-1
 316 474 l 1,17,-1
 180 474 l 1,18,-1
 180 149 l 2,19,20
 180 97 180 97 200.5 74.5 c 128,-1,21
 221 52 221 52 266 52 c 2,22,-1
 317 52 l 1,23,-1
 317 0 l 1,24,-1
 258 0 l 2,25,26
 119 0 119 0 119 143 c 2,27,-1
 119 474 l 1,28,-1
 23 474 l 1,0,-1
EndSplineSet
EndChar

StartChar: uni01AE
Encoding: 430 430 368
Width: 547
GlyphClass: 2
Flags: W
LayerCount: 2
Fore
SplineSet
16 680 m 1,0,-1
 16 735 l 1,1,-1
 534 735 l 1,2,-1
 534 680 l 1,3,-1
 305 680 l 1,4,-1
 305 -73 l 2,5,6
 305 -133 305 -133 325 -159 c 128,-1,7
 345 -185 345 -185 396 -185 c 0,8,9
 415 -185 415 -185 443 -181 c 1,10,-1
 443 -234 l 1,11,12
 406 -239 406 -239 386 -239 c 0,13,14
 317 -239 317 -239 279.5 -201 c 128,-1,15
 242 -163 242 -163 242 -72 c 2,16,-1
 242 680 l 1,17,-1
 16 680 l 1,0,-1
EndSplineSet
EndChar

StartChar: uni01B1
Encoding: 433 433 371
Width: 753
GlyphClass: 2
Flags: W
LayerCount: 2
Fore
SplineSet
55 302 m 0,0,1
 55 516 55 516 271 597 c 1,2,-1
 271 680 l 1,3,-1
 62 680 l 1,4,-1
 62 735 l 1,5,-1
 322 735 l 1,6,-1
 322 562 l 1,7,8
 224 534 224 534 172.5 464 c 128,-1,9
 121 394 121 394 121 302 c 0,10,11
 121 186 121 186 192 111.5 c 128,-1,12
 263 37 263 37 377 37 c 256,13,14
 491 37 491 37 562 112 c 128,-1,15
 633 187 633 187 633 302 c 0,16,17
 633 393 633 393 582 463 c 128,-1,18
 531 533 531 533 432 562 c 1,19,-1
 432 735 l 1,20,-1
 692 735 l 1,21,-1
 692 680 l 1,22,-1
 482 680 l 1,23,-1
 482 597 l 1,24,25
 579 562 579 562 638.5 489.5 c 128,-1,26
 698 417 698 417 698 302 c 0,27,28
 698 166 698 166 613 74 c 128,-1,29
 528 -18 528 -18 377 -18 c 256,30,31
 226 -18 226 -18 140.5 73.5 c 128,-1,32
 55 165 55 165 55 302 c 0,0,1
EndSplineSet
EndChar

StartChar: uni01B2
Encoding: 434 434 372
Width: 724
GlyphClass: 2
Flags: W
LayerCount: 2
Fore
SplineSet
110 241 m 2,0,-1
 110 735 l 1,1,-1
 173 735 l 1,2,-1
 173 243 l 2,3,4
 173 133 173 133 219.5 84.5 c 128,-1,5
 266 36 266 36 356 36 c 0,6,7
 464 36 464 36 533 141 c 128,-1,8
 602 246 602 246 602 414 c 0,9,10
 602 549 602 549 562.5 624 c 128,-1,11
 523 699 523 699 453 699 c 0,12,13
 422 699 422 699 391 692 c 1,14,-1
 391 748 l 1,15,16
 448 754 448 754 462 754 c 0,17,18
 554 754 554 754 610.5 670 c 128,-1,19
 667 586 667 586 667 416 c 0,20,21
 667 227 667 227 583.5 104.5 c 128,-1,22
 500 -18 500 -18 356 -18 c 0,23,24
 232 -18 232 -18 171 44.5 c 128,-1,25
 110 107 110 107 110 241 c 2,0,-1
EndSplineSet
EndChar

StartChar: uni01B3
Encoding: 435 435 373
Width: 580
GlyphClass: 2
Flags: W
LayerCount: 2
Fore
SplineSet
-3 735 m 1,0,-1
 71 735 l 1,1,-1
 223 473 l 2,2,3
 259 413 259 413 289 359 c 1,4,-1
 292 359 l 1,5,6
 310 394 310 394 357 473 c 2,7,-1
 474 677 l 2,8,9
 518 754 518 754 594 754 c 0,10,11
 608 754 608 754 635 751 c 1,12,-1
 635 697 l 1,13,14
 618 700 618 700 599 700 c 0,15,16
 560 700 560 700 528 646 c 2,17,-1
 322 302 l 1,18,-1
 322 0 l 1,19,-1
 259 0 l 1,20,-1
 259 302 l 1,21,-1
 -3 735 l 1,0,-1
EndSplineSet
EndChar

StartChar: uni01B4
Encoding: 436 436 374
Width: 484
GlyphClass: 2
Flags: W
LayerCount: 2
Fore
SplineSet
10 525 m 1,0,-1
 81 525 l 1,1,-1
 199 194 l 2,2,3
 206 174 206 174 213.5 152 c 128,-1,4
 221 130 221 130 229.5 103.5 c 128,-1,5
 238 77 238 77 243 62 c 1,6,-1
 247 62 l 1,7,8
 254 83 254 83 269 127.5 c 128,-1,9
 284 172 284 172 292 195 c 2,10,-1
 385 468 l 2,11,12
 410 540 410 540 495 540 c 0,13,14
 514 540 514 540 540 536 c 1,15,-1
 540 483 l 1,16,17
 518 487 518 487 506 487 c 0,18,19
 461 487 461 487 445 443 c 2,20,-1
 251 -86 l 2,21,22
 222 -166 222 -166 185 -200.5 c 128,-1,23
 148 -235 148 -235 98 -235 c 2,24,-1
 66 -235 l 1,25,-1
 66 -184 l 1,26,-1
 86 -184 l 2,27,28
 162 -184 162 -184 199 -60 c 1,29,-1
 215 -14 l 1,30,-1
 10 525 l 1,0,-1
EndSplineSet
EndChar

StartChar: uni01B5
Encoding: 437 437 375
Width: 614
GlyphClass: 2
Flags: W
LayerCount: 2
Fore
SplineSet
111 339 m 1,0,-1
 111 389 l 1,1,-1
 281 389 l 1,2,-1
 478 681 l 1,3,-1
 84 681 l 1,4,-1
 84 735 l 1,5,-1
 554 735 l 1,6,-1
 554 687 l 1,7,-1
 354 389 l 1,8,-1
 498 389 l 1,9,-1
 498 339 l 1,10,-1
 319 339 l 1,11,-1
 128 54 l 1,12,-1
 565 54 l 1,13,-1
 565 0 l 1,14,-1
 52 0 l 1,15,-1
 52 47 l 1,16,-1
 247 339 l 1,17,-1
 111 339 l 1,0,-1
EndSplineSet
EndChar

StartChar: uni01B6
Encoding: 438 438 376
Width: 476
GlyphClass: 2
Flags: W
LayerCount: 2
Fore
SplineSet
36 0 m 1,0,-1
 36 42 l 1,1,-1
 184 244 l 1,2,-1
 74 244 l 1,3,-1
 74 293 l 1,4,-1
 220 293 l 1,5,-1
 353 474 l 1,6,-1
 62 474 l 1,7,-1
 62 525 l 1,8,-1
 431 525 l 1,9,-1
 431 485 l 1,10,-1
 290 293 l 1,11,-1
 400 293 l 1,12,-1
 400 244 l 1,13,-1
 253 244 l 1,14,-1
 113 51 l 1,15,-1
 441 51 l 1,16,-1
 441 0 l 1,17,-1
 36 0 l 1,0,-1
EndSplineSet
EndChar

StartChar: uni01B7
Encoding: 439 439 377
Width: 687
GlyphClass: 2
Flags: W
LayerCount: 2
Fore
SplineSet
54 -70 m 1,0,-1
 108 -47 l 1,1,2
 134 -104 134 -104 189.5 -141 c 128,-1,3
 245 -178 245 -178 317 -178 c 0,4,5
 434 -178 434 -178 499.5 -109 c 128,-1,6
 565 -40 565 -40 565 75 c 0,7,8
 565 184 565 184 493 248 c 128,-1,9
 421 312 421 312 277 312 c 2,10,-1
 211 312 l 1,11,-1
 211 366 l 1,12,-1
 487 680 l 1,13,-1
 78 680 l 1,14,-1
 78 735 l 1,15,-1
 582 735 l 1,16,-1
 582 699 l 1,17,-1
 286 364 l 1,18,-1
 309 364 l 1,19,20
 461 357 461 357 545.5 281 c 128,-1,21
 630 205 630 205 630 76 c 0,22,23
 630 -65 630 -65 543.5 -148.5 c 128,-1,24
 457 -232 457 -232 318 -232 c 0,25,26
 223 -232 223 -232 154 -185.5 c 128,-1,27
 85 -139 85 -139 54 -70 c 1,0,-1
EndSplineSet
EndChar

StartChar: uni01B8
Encoding: 440 440 378
Width: 687
GlyphClass: 2
Flags: W
LayerCount: 2
Fore
SplineSet
58 76 m 0,0,1
 58 205 58 205 146.5 284.5 c 128,-1,2
 235 364 235 364 379 364 c 2,3,-1
 401 364 l 1,4,-1
 107 699 l 1,5,-1
 107 735 l 1,6,-1
 610 735 l 1,7,-1
 610 680 l 1,8,-1
 201 680 l 1,9,-1
 476 366 l 1,10,-1
 476 312 l 1,11,-1
 412 312 l 2,12,13
 268 312 268 312 195.5 248 c 128,-1,14
 123 184 123 184 123 75 c 0,15,16
 123 -40 123 -40 188.5 -109 c 128,-1,17
 254 -178 254 -178 371 -178 c 0,18,19
 443 -178 443 -178 498.5 -141 c 128,-1,20
 554 -104 554 -104 580 -47 c 1,21,-1
 634 -70 l 1,22,23
 603 -139 603 -139 534 -185.5 c 128,-1,24
 465 -232 465 -232 370 -232 c 0,25,26
 231 -232 231 -232 144.5 -148.5 c 128,-1,27
 58 -65 58 -65 58 76 c 0,0,1
EndSplineSet
EndChar

StartChar: uni01B9
Encoding: 441 441 379
Width: 542
GlyphClass: 2
Flags: W
LayerCount: 2
Fore
SplineSet
53 -4 m 0,0,1
 53 99 53 99 121.5 161.5 c 128,-1,2
 190 224 190 224 298 224 c 2,3,-1
 330 224 l 1,4,-1
 80 485 l 1,5,-1
 80 525 l 1,6,-1
 471 525 l 1,7,-1
 471 474 l 1,8,-1
 167 474 l 1,9,-1
 406 220 l 1,10,-1
 406 177 l 1,11,-1
 326 177 l 2,12,13
 225 177 225 177 170.5 128.5 c 128,-1,14
 116 80 116 80 116 -4 c 0,15,16
 116 -83 116 -83 161.5 -135 c 128,-1,17
 207 -187 207 -187 285 -187 c 0,18,19
 392 -187 392 -187 446 -84 c 1,20,-1
 498 -102 l 1,21,22
 470 -165 470 -165 415 -202 c 128,-1,23
 360 -239 360 -239 283 -239 c 0,24,25
 180 -239 180 -239 116.5 -173.5 c 128,-1,26
 53 -108 53 -108 53 -4 c 0,0,1
EndSplineSet
EndChar

StartChar: uni01BA
Encoding: 442 442 380
Width: 459
GlyphClass: 2
Flags: W
LayerCount: 2
Fore
SplineSet
52 -87 m 0,0,1
 52 -50 52 -50 80 -19.5 c 128,-1,2
 108 11 108 11 148 31.5 c 128,-1,3
 188 52 188 52 228 71.5 c 128,-1,4
 268 91 268 91 296 117 c 128,-1,5
 324 143 324 143 324 175 c 0,6,7
 324 208 324 208 287 229 c 128,-1,8
 250 250 250 250 172 250 c 2,9,-1
 136 250 l 1,10,-1
 136 288 l 1,11,-1
 323 474 l 1,12,-1
 55 474 l 1,13,-1
 55 525 l 1,14,-1
 402 525 l 1,15,-1
 402 484 l 1,16,-1
 204 288 l 1,17,-1
 225 287 l 2,18,19
 304 286 304 286 345 257 c 128,-1,20
 386 228 386 228 386 177 c 0,21,22
 386 137 386 137 358 104 c 128,-1,23
 330 71 330 71 290 50 c 128,-1,24
 250 29 250 29 210.5 9.5 c 128,-1,25
 171 -10 171 -10 143 -33.5 c 128,-1,26
 115 -57 115 -57 115 -84 c 0,27,28
 115 -154 115 -154 210 -154 c 0,29,30
 246 -154 246 -154 304 -144 c 1,31,-1
 304 -196 l 1,32,33
 250 -205 250 -205 202 -205 c 0,34,35
 134 -205 134 -205 93 -174.5 c 128,-1,36
 52 -144 52 -144 52 -87 c 0,0,1
EndSplineSet
EndChar

StartChar: uni01BB
Encoding: 443 443 381
Width: 556
GlyphClass: 2
Flags: W
LayerCount: 2
Fore
SplineSet
117 334 m 1,0,-1
 117 384 l 1,1,-1
 339 384 l 1,2,3
 420 468 420 468 420 554 c 0,4,5
 420 626 420 626 379.5 663.5 c 128,-1,6
 339 701 339 701 272 701 c 0,7,8
 212 701 212 701 170.5 663.5 c 128,-1,9
 129 626 129 626 110 559 c 1,10,-1
 56 575 l 1,11,12
 76 655 76 655 132 704.5 c 128,-1,13
 188 754 188 754 275 754 c 0,14,15
 368 754 368 754 426 700.5 c 128,-1,16
 484 647 484 647 484 552 c 0,17,18
 484 467 484 467 414 384 c 1,19,-1
 516 384 l 1,20,-1
 516 334 l 1,21,-1
 371 334 l 1,22,23
 358 322 358 322 327.5 292.5 c 128,-1,24
 297 263 297 263 285.5 252 c 128,-1,25
 274 241 274 241 250.5 217 c 128,-1,26
 227 193 227 193 217 181.5 c 128,-1,27
 207 170 207 170 190.5 150 c 128,-1,28
 174 130 174 130 166 116.5 c 128,-1,29
 158 103 158 103 149 86 c 128,-1,30
 140 69 140 69 135 52 c 1,31,-1
 483 52 l 1,32,-1
 483 0 l 1,33,-1
 60 0 l 1,34,35
 60 70 60 70 117.5 146.5 c 128,-1,36
 175 223 175 223 289 334 c 1,37,-1
 117 334 l 1,0,-1
EndSplineSet
EndChar

StartChar: uni01BC
Encoding: 444 444 382
Width: 549
GlyphClass: 2
Flags: W
LayerCount: 2
Fore
SplineSet
50 111 m 1,0,-1
 102 132 l 1,1,2
 149 34 149 34 261 34 c 0,3,4
 337 34 337 34 381 82 c 128,-1,5
 425 130 425 130 425 210 c 0,6,7
 425 284 425 284 371.5 337 c 128,-1,8
 318 390 318 390 208 390 c 0,9,10
 160 390 160 390 108 381 c 1,11,-1
 143 681 l 1,12,-1
 90 681 l 1,13,-1
 90 735 l 1,14,-1
 452 735 l 1,15,-1
 452 680 l 1,16,-1
 201 680 l 1,17,-1
 175 440 l 1,18,19
 192 442 192 442 233 442 c 0,20,21
 352 442 352 442 421 376 c 128,-1,22
 490 310 490 310 490 210 c 0,23,24
 490 108 490 108 429.5 45 c 128,-1,25
 369 -18 369 -18 263 -18 c 0,26,27
 182 -18 182 -18 128.5 18 c 128,-1,28
 75 54 75 54 50 111 c 1,0,-1
EndSplineSet
EndChar

StartChar: uni01BD
Encoding: 445 445 383
Width: 456
GlyphClass: 2
Flags: W
LayerCount: 2
Fore
SplineSet
50 80 m 1,0,-1
 99 104 l 1,1,2
 117 72 117 72 148 52.5 c 128,-1,3
 179 33 179 33 214 33 c 0,4,5
 274 33 274 33 305.5 65 c 128,-1,6
 337 97 337 97 337 147 c 0,7,8
 337 202 337 202 292.5 239 c 128,-1,9
 248 276 248 276 178 276 c 0,10,11
 153 276 153 276 102 270 c 1,12,-1
 132 474 l 1,13,-1
 86 474 l 1,14,-1
 86 525 l 1,15,-1
 371 525 l 1,16,-1
 371 474 l 1,17,-1
 186 474 l 1,18,-1
 163 327 l 1,19,-1
 190 327 l 2,20,21
 285 327 285 327 342 276 c 128,-1,22
 399 225 399 225 399 149 c 0,23,24
 399 76 399 76 352 29 c 128,-1,25
 305 -18 305 -18 214 -18 c 0,26,27
 106 -18 106 -18 50 80 c 1,0,-1
EndSplineSet
EndChar

StartChar: uni01BE
Encoding: 446 446 384
Width: 435
GlyphClass: 2
Flags: W
LayerCount: 2
Fore
SplineSet
42 474 m 1,0,-1
 42 525 l 1,1,-1
 119 525 l 1,2,-1
 119 691 l 1,3,-1
 179 691 l 1,4,-1
 179 525 l 1,5,-1
 315 525 l 1,6,-1
 315 474 l 1,7,-1
 179 474 l 1,8,-1
 179 394 l 2,9,10
 179 357 179 357 199 328 c 128,-1,11
 219 299 219 299 248 278.5 c 128,-1,12
 277 258 277 258 306 238 c 128,-1,13
 335 218 335 218 355 188 c 128,-1,14
 375 158 375 158 375 121 c 0,15,16
 375 59 375 59 334.5 20.5 c 128,-1,17
 294 -18 294 -18 210 -18 c 0,18,19
 100 -18 100 -18 45 76 c 1,20,-1
 89 102 l 1,21,22
 139 33 139 33 208 33 c 0,23,24
 314 33 314 33 314 120 c 0,25,26
 314 147 314 147 294 170 c 128,-1,27
 274 193 274 193 245 212 c 128,-1,28
 216 231 216 231 187.5 253 c 128,-1,29
 159 275 159 275 139 309.5 c 128,-1,30
 119 344 119 344 119 387 c 2,31,-1
 119 474 l 1,32,-1
 42 474 l 1,0,-1
EndSplineSet
EndChar

StartChar: uni01BF
Encoding: 447 447 385
Width: 580
GlyphClass: 2
Flags: W
LayerCount: 2
Fore
SplineSet
91 -235 m 1,0,-1
 91 525 l 1,1,-1
 152 525 l 1,2,-1
 152 480 l 1,3,4
 230 543 230 543 319 543 c 0,5,6
 418 543 418 543 475 485 c 128,-1,7
 532 427 532 427 532 328 c 0,8,9
 532 51 532 51 152 1 c 1,10,-1
 152 -235 l 1,11,-1
 91 -235 l 1,0,-1
152 51 m 1,12,13
 305 73 305 73 388.5 140.5 c 128,-1,14
 472 208 472 208 472 322 c 0,15,16
 472 406 472 406 427 449 c 128,-1,17
 382 492 382 492 311 492 c 0,18,19
 225 492 225 492 152 419 c 1,20,-1
 152 51 l 1,12,13
EndSplineSet
EndChar

StartChar: uni01C0
Encoding: 448 448 386
Width: 224
GlyphClass: 2
Flags: W
LayerCount: 2
Fore
SplineSet
85 -218 m 1,0,-1
 85 820 l 1,1,-1
 141 820 l 1,2,-1
 141 -218 l 1,3,-1
 85 -218 l 1,0,-1
EndSplineSet
EndChar

StartChar: uni01C1
Encoding: 449 449 387
Width: 382
GlyphClass: 2
Flags: W
LayerCount: 2
Fore
SplineSet
84 -218 m 1,0,-1
 84 820 l 1,1,-1
 141 820 l 1,2,-1
 141 -218 l 1,3,-1
 84 -218 l 1,0,-1
242 -218 m 1,4,-1
 242 820 l 1,5,-1
 300 820 l 1,6,-1
 300 -218 l 1,7,-1
 242 -218 l 1,4,-1
EndSplineSet
EndChar

StartChar: uni01C2
Encoding: 450 450 388
Width: 306
GlyphClass: 2
Flags: W
LayerCount: 2
Fore
SplineSet
21 426 m 1,0,-1
 21 470 l 1,1,-1
 126 470 l 1,2,-1
 126 820 l 1,3,-1
 183 820 l 1,4,-1
 183 470 l 1,5,-1
 286 470 l 1,6,-1
 286 426 l 1,7,-1
 183 426 l 1,8,-1
 183 251 l 1,9,-1
 286 251 l 1,10,-1
 286 206 l 1,11,-1
 183 206 l 1,12,-1
 183 -218 l 1,13,-1
 126 -218 l 1,14,-1
 126 206 l 1,15,-1
 21 206 l 1,16,-1
 21 251 l 1,17,-1
 126 251 l 1,18,-1
 126 426 l 1,19,-1
 21 426 l 1,0,-1
EndSplineSet
EndChar

StartChar: uni01DD
Encoding: 477 477 415
Width: 555
GlyphClass: 2
Flags: W
LayerCount: 2
Fore
SplineSet
107 235 m 1,0,1
 107 151 107 151 152.5 92 c 128,-1,2
 198 33 198 33 274 33 c 256,3,4
 350 33 350 33 396 92.5 c 128,-1,5
 442 152 442 152 446 235 c 1,6,-1
 107 235 l 1,0,1
46 246 m 2,7,-1
 46 282 l 1,8,-1
 446 282 l 1,9,10
 446 368 446 368 399.5 430 c 128,-1,11
 353 492 353 492 270 492 c 0,12,13
 215 492 215 492 173.5 465 c 128,-1,14
 132 438 132 438 111 398 c 1,15,-1
 59 415 l 1,16,17
 120 543 120 543 270 543 c 0,18,19
 381 543 381 543 444.5 464 c 128,-1,20
 508 385 508 385 508 259 c 0,21,22
 508 136 508 136 443 59 c 128,-1,23
 378 -18 378 -18 274 -18 c 256,24,25
 170 -18 170 -18 108 57 c 128,-1,26
 46 132 46 132 46 246 c 2,7,-1
EndSplineSet
EndChar

StartChar: uni01E4
Encoding: 484 484 422
Width: 721
GlyphClass: 2
Flags: W
LayerCount: 2
Fore
SplineSet
55 368 m 0,0,1
 55 538 55 538 138 646 c 128,-1,2
 221 754 221 754 372 754 c 0,3,4
 461 754 461 754 521.5 708 c 128,-1,5
 582 662 582 662 610 603 c 1,6,-1
 555 584 l 1,7,8
 541 607 541 607 527.5 623.5 c 128,-1,9
 514 640 514 640 492 659 c 128,-1,10
 470 678 470 678 439.5 688.5 c 128,-1,11
 409 699 409 699 372 699 c 0,12,13
 253 699 253 699 186.5 608.5 c 128,-1,14
 120 518 120 518 120 368 c 0,15,16
 120 216 120 216 187 126.5 c 128,-1,17
 254 37 254 37 368 37 c 0,18,19
 443 37 443 37 494 78 c 128,-1,20
 545 119 545 119 565 186 c 1,21,-1
 362 186 l 1,22,-1
 362 230 l 1,23,-1
 574 230 l 1,24,25
 578 253 578 253 578 278 c 2,26,-1
 578 337 l 1,27,-1
 359 337 l 1,28,-1
 359 391 l 1,29,-1
 640 391 l 1,30,-1
 640 230 l 1,31,-1
 718 230 l 1,32,-1
 718 186 l 1,33,-1
 640 186 l 1,34,-1
 640 0 l 1,35,-1
 592 0 l 1,36,-1
 587 122 l 1,37,38
 563 61 563 61 508.5 21.5 c 128,-1,39
 454 -18 454 -18 368 -18 c 0,40,41
 225 -18 225 -18 140 86.5 c 128,-1,42
 55 191 55 191 55 368 c 0,0,1
EndSplineSet
EndChar

StartChar: uni01E5
Encoding: 485 485 423
Width: 578
GlyphClass: 2
Flags: W
LayerCount: 2
Fore
SplineSet
48 275 m 0,0,1
 48 393 48 393 107 468 c 128,-1,2
 166 543 166 543 263 543 c 0,3,4
 327 543 327 543 368 508 c 128,-1,5
 409 473 409 473 426 427 c 1,6,-1
 426 525 l 1,7,-1
 486 525 l 1,8,-1
 486 61 l 2,9,10
 486 -6 486 -6 479 -49 c 1,11,-1
 558 -49 l 1,12,-1
 558 -89 l 1,13,-1
 470 -89 l 1,14,15
 449 -163 449 -163 401 -201 c 128,-1,16
 353 -239 353 -239 269 -239 c 0,17,18
 147 -239 147 -239 79 -147 c 1,19,-1
 122 -118 l 1,20,21
 181 -189 181 -189 270 -189 c 0,22,23
 372 -189 372 -189 406 -89 c 1,24,-1
 208 -89 l 1,25,-1
 208 -49 l 1,26,-1
 418 -49 l 1,27,28
 426 -14 426 -14 426 51 c 2,29,-1
 426 131 l 1,30,31
 406 81 406 81 364.5 49 c 128,-1,32
 323 17 323 17 263 17 c 0,33,34
 167 17 167 17 107.5 88 c 128,-1,35
 48 159 48 159 48 275 c 0,0,1
110 275 m 0,36,37
 110 180 110 180 155 124.5 c 128,-1,38
 200 69 200 69 267 69 c 0,39,40
 338 69 338 69 381.5 126 c 128,-1,41
 425 183 425 183 425 282 c 0,42,43
 425 376 425 376 381 434 c 128,-1,44
 337 492 337 492 270 492 c 0,45,46
 197 492 197 492 153.5 430.5 c 128,-1,47
 110 369 110 369 110 275 c 0,36,37
EndSplineSet
EndChar

StartChar: uni01EF
Encoding: 495 495 433
Width: 542
GlyphClass: 2
Flags: W
LayerCount: 2
Fore
SplineSet
73 788 m 1,0,-1
 137 788 l 1,1,-1
 258 668 l 1,2,-1
 379 788 l 1,3,-1
 444 788 l 1,4,-1
 286 631 l 1,5,-1
 229 631 l 1,6,-1
 73 788 l 1,0,-1
44 -102 m 1,7,-1
 97 -84 l 1,8,9
 151 -187 151 -187 258 -187 c 0,10,11
 336 -187 336 -187 381.5 -134.5 c 128,-1,12
 427 -82 427 -82 427 0 c 0,13,14
 427 81 427 81 372 129 c 128,-1,15
 317 177 317 177 217 177 c 2,16,-1
 137 177 l 1,17,-1
 137 220 l 1,18,-1
 376 474 l 1,19,-1
 72 474 l 1,20,-1
 72 525 l 1,21,-1
 463 525 l 1,22,-1
 463 485 l 1,23,-1
 213 224 l 1,24,-1
 259 223 l 1,25,26
 361 215 361 215 425.5 155 c 128,-1,27
 490 95 490 95 490 0 c 0,28,29
 490 -107 490 -107 426.5 -173 c 128,-1,30
 363 -239 363 -239 259 -239 c 0,31,32
 182 -239 182 -239 127 -202 c 128,-1,33
 72 -165 72 -165 44 -102 c 1,7,-1
EndSplineSet
EndChar

StartChar: uni01F6
Encoding: 502 502 440
Width: 1030
GlyphClass: 2
Flags: W
LayerCount: 2
Fore
SplineSet
110 0 m 1,0,-1
 110 735 l 1,1,-1
 173 735 l 1,2,-1
 173 406 l 1,3,-1
 538 406 l 1,4,-1
 538 735 l 1,5,-1
 602 735 l 1,6,-1
 602 187 l 2,7,8
 602 108 602 108 643.5 70.5 c 128,-1,9
 685 33 685 33 748 33 c 0,10,11
 807 33 807 33 847.5 73 c 128,-1,12
 888 113 888 113 888 182 c 2,13,-1
 888 525 l 1,14,-1
 950 525 l 1,15,-1
 950 175 l 2,16,17
 950 83 950 83 892 32.5 c 128,-1,18
 834 -18 834 -18 748 -18 c 0,19,20
 658 -18 658 -18 598 28.5 c 128,-1,21
 538 75 538 75 538 175 c 2,22,-1
 538 352 l 1,23,-1
 173 352 l 1,24,-1
 173 0 l 1,25,-1
 110 0 l 1,0,-1
EndSplineSet
EndChar

StartChar: uni01F7
Encoding: 503 503 441
Width: 650
GlyphClass: 2
Flags: W
LayerCount: 2
Fore
SplineSet
110 -228 m 1,0,-1
 110 735 l 1,1,-1
 174 735 l 1,2,-1
 174 651 l 1,3,4
 277 754 277 754 386 754 c 0,5,6
 489 754 489 754 543.5 684.5 c 128,-1,7
 598 615 598 615 598 495 c 0,8,9
 598 418 598 418 568.5 347.5 c 128,-1,10
 539 277 539 277 495.5 226.5 c 128,-1,11
 452 176 452 176 391 129.5 c 128,-1,12
 330 83 330 83 280 55.5 c 128,-1,13
 230 28 230 28 174 2 c 1,14,-1
 174 -228 l 1,15,-1
 110 -228 l 1,0,-1
174 61 m 1,16,17
 534 240 534 240 534 492 c 0,18,19
 534 585 534 585 493 642.5 c 128,-1,20
 452 700 452 700 372 700 c 0,21,22
 319 700 319 700 262.5 664 c 128,-1,23
 206 628 206 628 174 583 c 1,24,-1
 174 61 l 1,16,17
EndSplineSet
EndChar

StartChar: Aringacute
Encoding: 506 506 444
Width: 632
GlyphClass: 2
Flags: W
LayerCount: 2
Fore
SplineSet
-2 0 m 1,0,-1
 277 735 l 1,1,-1
 356 735 l 1,2,-1
 634 0 l 1,3,-1
 564 0 l 1,4,-1
 484 222 l 1,5,-1
 149 222 l 1,6,-1
 68 0 l 1,7,-1
 -2 0 l 1,0,-1
168 273 m 1,8,-1
 464 273 l 1,9,-1
 365 547 l 2,10,11
 358 568 358 568 341.5 613.5 c 128,-1,12
 325 659 325 659 319 677 c 1,13,-1
 314 677 l 1,14,15
 309 664 309 664 292.5 616.5 c 128,-1,16
 276 569 276 569 269 547 c 2,17,-1
 168 273 l 1,8,-1
183 885 m 0,18,19
 183 935 183 935 220 972 c 0,20,21
 247 998 247 998 286 1006 c 1,22,-1
 360 1122 l 1,23,-1
 445 1122 l 1,24,-1
 345 1005 l 1,25,26
 382 998 382 998 408 972 c 0,27,28
 445 936 445 936 445 885 c 0,29,30
 445 835 445 835 407.5 798.5 c 128,-1,31
 370 762 370 762 314 762 c 0,32,33
 259 762 259 762 221 798 c 128,-1,34
 183 834 183 834 183 885 c 0,18,19
229 885 m 0,35,36
 229 850 229 850 252.5 826.5 c 128,-1,37
 276 803 276 803 314 803 c 0,38,39
 351 803 351 803 374.5 826 c 128,-1,40
 398 849 398 849 398 885 c 0,41,42
 398 919 398 919 375 943.5 c 128,-1,43
 352 968 352 968 314 968 c 256,44,45
 276 968 276 968 252.5 943.5 c 128,-1,46
 229 919 229 919 229 885 c 0,35,36
EndSplineSet
EndChar

StartChar: aringacute
Encoding: 507 507 445
Width: 556
GlyphClass: 2
Flags: W
LayerCount: 2
Fore
SplineSet
45 126 m 0,0,1
 45 198 45 198 98.5 242.5 c 128,-1,2
 152 287 152 287 268 305 c 0,3,4
 384 324 384 324 417 337 c 1,5,-1
 417 367 l 2,6,7
 417 422 417 422 378.5 457.5 c 128,-1,8
 340 493 340 493 270 493 c 0,9,10
 222 493 222 493 177.5 470.5 c 128,-1,11
 133 448 133 448 103 410 c 1,12,-1
 63 442 l 1,13,14
 99 487 99 487 153 515 c 128,-1,15
 207 543 207 543 269 543 c 0,16,17
 378 543 378 543 427.5 489 c 128,-1,18
 477 435 477 435 477 344 c 2,19,-1
 477 0 l 1,20,-1
 418 0 l 1,21,-1
 418 95 l 1,22,23
 401 50 401 50 348.5 16 c 128,-1,24
 296 -18 296 -18 227 -18 c 0,25,26
 142 -18 142 -18 93.5 22.5 c 128,-1,27
 45 63 45 63 45 126 c 0,0,1
137 726 m 0,28,29
 137 776 137 776 174 813 c 0,30,31
 201 839 201 839 240 847 c 1,32,-1
 314 963 l 1,33,-1
 399 963 l 1,34,-1
 299 846 l 1,35,36
 336 839 336 839 362 813 c 0,37,38
 399 777 399 777 399 726 c 0,39,40
 399 676 399 676 361.5 639.5 c 128,-1,41
 324 603 324 603 268 603 c 0,42,43
 213 603 213 603 175 639 c 128,-1,44
 137 675 137 675 137 726 c 0,28,29
107 130 m 0,45,46
 107 90 107 90 141 61.5 c 128,-1,47
 175 33 175 33 235 33 c 0,48,49
 310 33 310 33 363.5 81.5 c 128,-1,50
 417 130 417 130 417 205 c 2,51,-1
 417 288 l 1,52,53
 372 274 372 274 267 258 c 0,54,55
 183 244 183 244 145 213 c 128,-1,56
 107 182 107 182 107 130 c 0,45,46
183 726 m 0,57,58
 183 691 183 691 206.5 667.5 c 128,-1,59
 230 644 230 644 268 644 c 0,60,61
 305 644 305 644 328.5 667 c 128,-1,62
 352 690 352 690 352 726 c 0,63,64
 352 760 352 760 329 784.5 c 128,-1,65
 306 809 306 809 268 809 c 256,66,67
 230 809 230 809 206.5 784.5 c 128,-1,68
 183 760 183 760 183 726 c 0,57,58
EndSplineSet
EndChar

StartChar: uni021C
Encoding: 540 540 478
Width: 576
GlyphClass: 2
Flags: W
LayerCount: 2
Fore
SplineSet
53 -164 m 1,0,1
 122 -176 122 -176 187 -176 c 0,2,3
 308 -176 308 -176 383 -112 c 128,-1,4
 458 -48 458 -48 458 62 c 0,5,6
 458 123 458 123 439 167 c 128,-1,7
 420 211 420 211 388.5 234 c 128,-1,8
 357 257 357 257 323.5 267.5 c 128,-1,9
 290 278 290 278 253 278 c 0,10,11
 215 278 215 278 161 258 c 1,12,-1
 161 313 l 1,13,-1
 250 336 l 2,14,15
 340 360 340 360 392 414.5 c 128,-1,16
 444 469 444 469 444 541 c 0,17,18
 444 615 444 615 398.5 656.5 c 128,-1,19
 353 698 353 698 271 698 c 0,20,21
 162 698 162 698 108 594 c 1,22,-1
 55 617 l 1,23,24
 84 677 84 677 139 715.5 c 128,-1,25
 194 754 194 754 270 754 c 0,26,27
 389 754 389 754 449.5 697 c 128,-1,28
 510 640 510 640 510 547 c 0,29,30
 510 461 510 461 456 400 c 128,-1,31
 402 339 402 339 334 315 c 1,32,-1
 334 314 l 1,33,34
 408 299 408 299 465.5 237.5 c 128,-1,35
 523 176 523 176 523 62 c 0,36,37
 523 -69 523 -69 431.5 -150 c 128,-1,38
 340 -231 340 -231 188 -231 c 0,39,40
 121 -231 121 -231 53 -222 c 1,41,-1
 53 -164 l 1,0,1
EndSplineSet
EndChar

StartChar: uni021D
Encoding: 541 541 479
Width: 453
GlyphClass: 2
Flags: W
LayerCount: 2
Fore
SplineSet
52 -178 m 1,0,1
 99 -187 99 -187 149 -187 c 0,2,3
 235 -187 235 -187 285.5 -139 c 128,-1,4
 336 -91 336 -91 336 -3 c 0,5,6
 336 75 336 75 293.5 117.5 c 128,-1,7
 251 160 251 160 194 160 c 0,8,9
 177 160 177 160 129 148 c 1,10,-1
 129 199 l 1,11,-1
 190 213 l 2,12,13
 255 230 255 230 291 273.5 c 128,-1,14
 327 317 327 317 327 371 c 0,15,16
 327 422 327 422 298 457 c 128,-1,17
 269 492 269 492 210 492 c 0,18,19
 140 492 140 492 101 421 c 1,20,-1
 53 443 l 1,21,22
 74 488 74 488 116 515.5 c 128,-1,23
 158 543 158 543 213 543 c 0,24,25
 299 543 299 543 343 494 c 128,-1,26
 387 445 387 445 387 378 c 0,27,28
 387 309 387 309 351.5 262 c 128,-1,29
 316 215 316 215 261 192 c 1,30,31
 314 180 314 180 355.5 130.5 c 128,-1,32
 397 81 397 81 397 -1 c 0,33,34
 397 -112 397 -112 330.5 -175.5 c 128,-1,35
 264 -239 264 -239 149 -239 c 0,36,37
 98 -239 98 -239 52 -232 c 1,38,-1
 52 -178 l 1,0,1
EndSplineSet
EndChar

StartChar: uni0220
Encoding: 544 544 482
Width: 726
GlyphClass: 2
Flags: W
LayerCount: 2
Fore
SplineSet
110 0 m 1,0,-1
 110 735 l 1,1,-1
 171 735 l 1,2,-1
 171 636 l 1,3,-1
 172 636 l 1,4,5
 199 678 199 678 257.5 716 c 128,-1,6
 316 754 316 754 397 754 c 0,7,8
 618 754 618 754 618 502 c 2,9,-1
 618 -235 l 1,10,-1
 554 -235 l 1,11,-1
 554 493 l 2,12,13
 554 599 554 599 514 649 c 128,-1,14
 474 699 474 699 384 699 c 0,15,16
 308 699 308 699 240.5 638.5 c 128,-1,17
 173 578 173 578 173 504 c 2,18,-1
 173 0 l 1,19,-1
 110 0 l 1,0,-1
EndSplineSet
EndChar

StartChar: uni0221
Encoding: 545 545 483
Width: 764
GlyphClass: 2
Flags: W
LayerCount: 2
Fore
SplineSet
512 -117 m 1,0,1
 522 -147 522 -147 551.5 -167.5 c 128,-1,2
 581 -188 581 -188 617 -188 c 0,3,4
 651 -188 651 -188 672 -171 c 128,-1,5
 693 -154 693 -154 693 -126 c 0,6,7
 693 -96 693 -96 672 -77 c 128,-1,8
 651 -58 651 -58 617 -58 c 0,9,10
 555 -58 555 -58 512 -117 c 1,0,1
48 263 m 0,11,12
 48 393 48 393 109.5 468 c 128,-1,13
 171 543 171 543 267 543 c 0,14,15
 328 543 328 543 372 506 c 128,-1,16
 416 469 416 469 434 419 c 1,17,-1
 434 764 l 1,18,-1
 495 764 l 1,19,-1
 495 17 l 2,20,21
 495 -40 495 -40 501 -60 c 1,22,23
 518 -39 518 -39 550.5 -23 c 128,-1,24
 583 -7 583 -7 619 -7 c 0,25,26
 684 -7 684 -7 719 -41 c 128,-1,27
 754 -75 754 -75 754 -124 c 0,28,29
 754 -175 754 -175 716.5 -207 c 128,-1,30
 679 -239 679 -239 618 -239 c 0,31,32
 531 -239 531 -239 483 -165 c 1,33,34
 466 -192 466 -192 450 -233 c 1,35,-1
 398 -217 l 1,36,37
 424 -147 424 -147 449 -114 c 1,38,39
 436 -83 436 -83 436 4 c 2,40,-1
 436 105 l 1,41,42
 417 53 417 53 372.5 17.5 c 128,-1,43
 328 -18 328 -18 266 -18 c 0,44,45
 179 -18 179 -18 113.5 52.5 c 128,-1,46
 48 123 48 123 48 263 c 0,11,12
110 263 m 256,47,48
 110 159 110 159 155.5 96 c 128,-1,49
 201 33 201 33 275 33 c 0,50,51
 343 33 343 33 389.5 94.5 c 128,-1,52
 436 156 436 156 436 263 c 0,53,54
 436 368 436 368 388 430 c 128,-1,55
 340 492 340 492 273 492 c 0,56,57
 200 492 200 492 155 429.5 c 128,-1,58
 110 367 110 367 110 263 c 256,47,48
EndSplineSet
EndChar

StartChar: uni0222
Encoding: 546 546 484
Width: 677
GlyphClass: 2
Flags: W
LayerCount: 2
Fore
SplineSet
50 234 m 0,0,1
 50 316 50 316 99 378 c 128,-1,2
 148 440 148 440 223 468 c 1,3,4
 160 490 160 490 120 540 c 128,-1,5
 80 590 80 590 80 665 c 0,6,7
 80 710 80 710 88 735 c 1,8,-1
 149 735 l 1,9,10
 149 730 149 730 147 706 c 128,-1,11
 145 682 145 682 145 669 c 0,12,13
 145 596 145 596 198 544 c 128,-1,14
 251 492 251 492 339 492 c 0,15,16
 422 492 422 492 478 542 c 128,-1,17
 534 592 534 592 534 669 c 0,18,19
 534 698 534 698 529 735 c 1,20,-1
 590 735 l 1,21,22
 598 711 598 711 598 665 c 0,23,24
 598 587 598 587 555.5 537.5 c 128,-1,25
 513 488 513 488 451 468 c 1,26,27
 528 445 528 445 578 380.5 c 128,-1,28
 628 316 628 316 628 234 c 0,29,30
 628 132 628 132 554 57 c 128,-1,31
 480 -18 480 -18 339 -18 c 0,32,33
 200 -18 200 -18 125 56.5 c 128,-1,34
 50 131 50 131 50 234 c 0,0,1
116 234 m 0,35,36
 116 148 116 148 178.5 92 c 128,-1,37
 241 36 241 36 339 36 c 0,38,39
 434 36 434 36 498.5 91 c 128,-1,40
 563 146 563 146 563 234 c 0,41,42
 563 318 563 318 499 378 c 128,-1,43
 435 438 435 438 339 438 c 0,44,45
 246 438 246 438 181 380 c 128,-1,46
 116 322 116 322 116 234 c 0,35,36
EndSplineSet
EndChar

StartChar: uni0223
Encoding: 547 547 485
Width: 559
GlyphClass: 2
Flags: W
LayerCount: 2
Fore
SplineSet
48 241 m 0,0,1
 48 336 48 336 92 402 c 128,-1,2
 136 468 136 468 200 485 c 1,3,4
 143 502 143 502 107.5 551 c 128,-1,5
 72 600 72 600 72 680 c 0,6,7
 72 726 72 726 79 754 c 1,8,-1
 139 754 l 1,9,10
 134 694 134 694 134 683 c 0,11,12
 134 608 134 608 172 558.5 c 128,-1,13
 210 509 210 509 280 509 c 0,14,15
 346 509 346 509 386 557 c 128,-1,16
 426 605 426 605 426 683 c 0,17,18
 426 697 426 697 420 754 c 1,19,-1
 480 754 l 1,20,21
 487 729 487 729 487 680 c 0,22,23
 487 602 487 602 451.5 551.5 c 128,-1,24
 416 501 416 501 358 485 c 1,25,26
 423 469 423 469 467.5 402.5 c 128,-1,27
 512 336 512 336 512 241 c 0,28,29
 512 133 512 133 452 57.5 c 128,-1,30
 392 -18 392 -18 280 -18 c 0,31,32
 169 -18 169 -18 108.5 56.5 c 128,-1,33
 48 131 48 131 48 241 c 0,0,1
110 241 m 0,34,35
 110 151 110 151 156.5 92.5 c 128,-1,36
 203 34 203 34 280 34 c 0,37,38
 354 34 354 34 402 90.5 c 128,-1,39
 450 147 450 147 450 241 c 0,40,41
 450 334 450 334 402 395.5 c 128,-1,42
 354 457 354 457 280 457 c 0,43,44
 210 457 210 457 160 397.5 c 128,-1,45
 110 338 110 338 110 241 c 0,34,35
EndSplineSet
EndChar

StartChar: uni0224
Encoding: 548 548 486
Width: 614
GlyphClass: 2
Flags: W
LayerCount: 2
Fore
SplineSet
52 0 m 1,0,-1
 52 47 l 1,1,-1
 478 681 l 1,2,-1
 84 681 l 1,3,-1
 84 735 l 1,4,-1
 554 735 l 1,5,-1
 554 687 l 1,6,-1
 128 54 l 1,7,-1
 454 54 l 2,8,9
 536 54 536 54 574.5 14.5 c 128,-1,10
 613 -25 613 -25 613 -112 c 0,11,12
 613 -170 613 -170 588 -235 c 1,13,-1
 530 -235 l 1,14,15
 555 -170 555 -170 555 -118 c 0,16,17
 555 -60 555 -60 529 -30 c 128,-1,18
 503 0 503 0 435 0 c 2,19,-1
 52 0 l 1,0,-1
EndSplineSet
EndChar

StartChar: uni0225
Encoding: 549 549 487
Width: 499
GlyphClass: 2
Flags: W
LayerCount: 2
Fore
SplineSet
36 0 m 1,0,-1
 36 42 l 1,1,-1
 353 477 l 1,2,-1
 62 477 l 1,3,-1
 62 528 l 1,4,-1
 431 528 l 1,5,-1
 431 488 l 1,6,-1
 113 51 l 1,7,-1
 383 51 l 2,8,9
 456 51 456 51 490.5 11.5 c 128,-1,10
 525 -28 525 -28 525 -109 c 0,11,12
 525 -184 525 -184 506 -235 c 1,13,-1
 450 -235 l 1,14,15
 469 -180 469 -180 469 -116 c 0,16,17
 469 -55 469 -55 445.5 -27.5 c 128,-1,18
 422 0 422 0 367 0 c 2,19,-1
 36 0 l 1,0,-1
EndSplineSet
EndChar

StartChar: uni0234
Encoding: 564 564 502
Width: 414
GlyphClass: 2
Flags: W
LayerCount: 2
Fore
SplineSet
170 -118 m 1,0,1
 180 -147 180 -147 209.5 -167.5 c 128,-1,2
 239 -188 239 -188 275 -188 c 0,3,4
 309 -188 309 -188 330 -171 c 128,-1,5
 351 -154 351 -154 351 -126 c 0,6,7
 351 -96 351 -96 330 -77 c 128,-1,8
 309 -58 309 -58 275 -58 c 0,9,10
 214 -58 214 -58 170 -118 c 1,0,1
56 -217 m 1,11,12
 83 -147 83 -147 108 -115 c 1,13,14
 92 -77 92 -77 92 9 c 2,15,-1
 92 764 l 1,16,-1
 153 764 l 1,17,-1
 153 18 l 2,18,19
 153 -38 153 -38 159 -60 c 1,20,21
 177 -38 177 -38 209 -22.5 c 128,-1,22
 241 -7 241 -7 276 -7 c 0,23,24
 341 -7 341 -7 376.5 -41.5 c 128,-1,25
 412 -76 412 -76 412 -124 c 0,26,27
 412 -175 412 -175 374.5 -207 c 128,-1,28
 337 -239 337 -239 276 -239 c 0,29,30
 230 -239 230 -239 195 -217.5 c 128,-1,31
 160 -196 160 -196 141 -165 c 1,32,33
 123 -191 123 -191 108 -233 c 1,34,-1
 56 -217 l 1,11,12
EndSplineSet
EndChar

StartChar: uni0235
Encoding: 565 565 503
Width: 751
GlyphClass: 2
Flags: W
LayerCount: 2
Fore
SplineSet
506 -118 m 1,0,1
 516 -147 516 -147 545 -167.5 c 128,-1,2
 574 -188 574 -188 610 -188 c 256,3,4
 646 -188 646 -188 666 -170.5 c 128,-1,5
 686 -153 686 -153 686 -126 c 0,6,7
 686 -97 686 -97 666 -77.5 c 128,-1,8
 646 -58 646 -58 611 -58 c 0,9,10
 550 -58 550 -58 506 -118 c 1,0,1
85 0 m 1,11,-1
 85 525 l 1,12,-1
 145 525 l 1,13,-1
 145 426 l 1,14,-1
 146 426 l 1,15,16
 156 464 156 464 203.5 503.5 c 128,-1,17
 251 543 251 543 321 543 c 0,18,19
 392 543 392 543 440.5 497.5 c 128,-1,20
 489 452 489 452 489 340 c 2,21,-1
 489 19 l 2,22,23
 489 -39 489 -39 495 -60 c 1,24,25
 539 -7 539 -7 612 -7 c 0,26,27
 675 -7 675 -7 711.5 -40.5 c 128,-1,28
 748 -74 748 -74 748 -124 c 0,29,30
 748 -175 748 -175 710.5 -207 c 128,-1,31
 673 -239 673 -239 612 -239 c 0,32,33
 566 -239 566 -239 531 -217.5 c 128,-1,34
 496 -196 496 -196 477 -165 c 1,35,36
 460 -192 460 -192 443 -233 c 1,37,-1
 392 -217 l 1,38,39
 417 -151 417 -151 443 -115 c 1,40,41
 427 -78 427 -78 427 12 c 2,42,-1
 427 329 l 2,43,44
 427 492 427 492 308 492 c 0,45,46
 244 492 244 492 195 440 c 128,-1,47
 146 388 146 388 146 317 c 2,48,-1
 146 0 l 1,49,-1
 85 0 l 1,11,-1
EndSplineSet
EndChar

StartChar: uni0236
Encoding: 566 566 504
Width: 441
GlyphClass: 2
Flags: W
LayerCount: 2
Fore
SplineSet
197 -118 m 1,0,1
 207 -147 207 -147 236.5 -167.5 c 128,-1,2
 266 -188 266 -188 302 -188 c 256,3,4
 338 -188 338 -188 358 -170 c 128,-1,5
 378 -152 378 -152 378 -126 c 0,6,7
 378 -98 378 -98 358 -78 c 128,-1,8
 338 -58 338 -58 302 -58 c 0,9,10
 241 -58 241 -58 197 -118 c 1,0,1
23 474 m 1,11,-1
 23 525 l 1,12,-1
 119 525 l 1,13,-1
 119 698 l 1,14,-1
 180 698 l 1,15,-1
 180 525 l 1,16,-1
 320 525 l 1,17,-1
 320 474 l 1,18,-1
 180 474 l 1,19,-1
 180 17 l 2,20,21
 180 -39 180 -39 186 -60 c 1,22,23
 230 -7 230 -7 303 -7 c 0,24,25
 368 -7 368 -7 403.5 -41 c 128,-1,26
 439 -75 439 -75 439 -124 c 0,27,28
 439 -175 439 -175 401.5 -207 c 128,-1,29
 364 -239 364 -239 303 -239 c 0,30,31
 257 -239 257 -239 222 -217.5 c 128,-1,32
 187 -196 187 -196 168 -165 c 1,33,34
 148 -197 148 -197 135 -233 c 1,35,-1
 83 -217 l 1,36,37
 112 -143 112 -143 134 -115 c 1,38,39
 119 -81 119 -81 119 13 c 2,40,-1
 119 474 l 1,41,-1
 23 474 l 1,11,-1
EndSplineSet
EndChar

StartChar: uni0237
Encoding: 567 567 505
Width: 274
GlyphClass: 2
Flags: W
LayerCount: 2
Fore
SplineSet
-9 -183 m 1,0,-1
 15 -183 l 2,1,2
 109 -183 109 -183 109 -56 c 2,3,-1
 109 525 l 1,4,-1
 170 525 l 1,5,-1
 170 -60 l 2,6,7
 170 -145 170 -145 132 -190 c 128,-1,8
 94 -235 94 -235 26 -235 c 2,9,-1
 -9 -235 l 1,10,-1
 -9 -183 l 1,0,-1
EndSplineSet
EndChar

StartChar: uni0238
Encoding: 568 568 506
Width: 929
GlyphClass: 2
Flags: W
LayerCount: 2
Fore
SplineSet
48 263 m 0,0,1
 48 394 48 394 110 468.5 c 128,-1,2
 172 543 172 543 267 543 c 0,3,4
 328 543 328 543 372 506 c 128,-1,5
 416 469 416 469 434 419 c 1,6,-1
 434 764 l 1,7,-1
 495 764 l 1,8,-1
 495 418 l 1,9,10
 508 464 508 464 554 503.5 c 128,-1,11
 600 543 600 543 663 543 c 0,12,13
 761 543 761 543 821 468.5 c 128,-1,14
 881 394 881 394 881 263 c 0,15,16
 881 190 881 190 861.5 134 c 128,-1,17
 842 78 842 78 809.5 46 c 128,-1,18
 777 14 777 14 740 -2 c 128,-1,19
 703 -18 703 -18 662 -18 c 0,20,21
 602 -18 602 -18 558 17.5 c 128,-1,22
 514 53 514 53 495 104 c 1,23,-1
 495 0 l 1,24,-1
 436 0 l 1,25,-1
 436 105 l 1,26,27
 416 52 416 52 371.5 17 c 128,-1,28
 327 -18 327 -18 266 -18 c 0,29,30
 227 -18 227 -18 190 -2.5 c 128,-1,31
 153 13 153 13 120.5 44.5 c 128,-1,32
 88 76 88 76 68 132.5 c 128,-1,33
 48 189 48 189 48 263 c 0,0,1
110 263 m 0,34,35
 110 158 110 158 155.5 95.5 c 128,-1,36
 201 33 201 33 275 33 c 0,37,38
 343 33 343 33 388.5 93.5 c 128,-1,39
 434 154 434 154 436 252 c 2,40,-1
 436 273 l 2,41,42
 434 370 434 370 387 431 c 128,-1,43
 340 492 340 492 273 492 c 0,44,45
 202 492 202 492 156 430.5 c 128,-1,46
 110 369 110 369 110 263 c 0,34,35
494 251 m 2,47,48
 496 155 496 155 541 94 c 128,-1,49
 586 33 586 33 654 33 c 0,50,51
 728 33 728 33 774 94.5 c 128,-1,52
 820 156 820 156 820 263 c 0,53,54
 820 368 820 368 774.5 430 c 128,-1,55
 729 492 729 492 656 492 c 0,56,57
 589 492 589 492 542.5 430.5 c 128,-1,58
 496 369 496 369 494 273 c 2,59,-1
 494 251 l 2,47,48
EndSplineSet
EndChar

StartChar: uni0239
Encoding: 569 569 507
Width: 931
GlyphClass: 2
Flags: W
LayerCount: 2
Fore
SplineSet
48 263 m 0,0,1
 48 391 48 391 109 467 c 128,-1,2
 170 543 170 543 267 543 c 0,3,4
 324 543 324 543 368.5 510 c 128,-1,5
 413 477 413 477 436 419 c 1,6,-1
 436 525 l 1,7,-1
 495 525 l 1,8,-1
 495 418 l 1,9,10
 517 473 517 473 563 508 c 128,-1,11
 609 543 609 543 667 543 c 0,12,13
 763 543 763 543 823 467 c 128,-1,14
 883 391 883 391 883 263 c 0,15,16
 883 127 883 127 820 54.5 c 128,-1,17
 757 -18 757 -18 666 -18 c 0,18,19
 605 -18 605 -18 559.5 17.5 c 128,-1,20
 514 53 514 53 495 105 c 1,21,-1
 495 -235 l 1,22,-1
 434 -235 l 1,23,-1
 434 104 l 1,24,25
 413 51 413 51 369.5 16.5 c 128,-1,26
 326 -18 326 -18 267 -18 c 0,27,28
 176 -18 176 -18 112 55 c 128,-1,29
 48 128 48 128 48 263 c 0,0,1
110 263 m 0,30,31
 110 157 110 157 155.5 95 c 128,-1,32
 201 33 201 33 273 33 c 0,33,34
 344 33 344 33 389 94.5 c 128,-1,35
 434 156 434 156 435 256 c 2,36,-1
 435 276 l 2,37,38
 433 371 433 371 387.5 431.5 c 128,-1,39
 342 492 342 492 274 492 c 0,40,41
 196 492 196 492 153 427.5 c 128,-1,42
 110 363 110 363 110 263 c 0,30,31
496 256 m 2,43,44
 498 154 498 154 543.5 93.5 c 128,-1,45
 589 33 589 33 659 33 c 0,46,47
 730 33 730 33 775.5 95 c 128,-1,48
 821 157 821 157 821 263 c 0,49,50
 821 363 821 363 778.5 427.5 c 128,-1,51
 736 492 736 492 659 492 c 0,52,53
 592 492 592 492 545 432 c 128,-1,54
 498 372 498 372 496 276 c 2,55,-1
 496 256 l 2,43,44
EndSplineSet
EndChar

StartChar: uni023A
Encoding: 570 570 508
Width: 632
GlyphClass: 2
Flags: W
LayerCount: 2
Fore
SplineSet
-2 0 m 1,0,-1
 277 735 l 1,1,-1
 356 735 l 1,2,-1
 419 567 l 1,3,-1
 544 768 l 1,4,-1
 598 768 l 1,5,-1
 440 514 l 1,6,-1
 634 0 l 1,7,-1
 564 0 l 1,8,-1
 484 222 l 1,9,-1
 258 222 l 1,10,-1
 65 -88 l 1,11,-1
 12 -88 l 1,12,-1
 67 0 l 1,13,-1
 -2 0 l 1,0,-1
168 273 m 1,14,-1
 236 273 l 1,15,-1
 380 505 l 1,16,-1
 365 547 l 2,17,18
 346 596 346 596 319 677 c 1,19,-1
 315 677 l 1,20,21
 312 668 312 668 269 547 c 2,22,-1
 168 273 l 1,14,-1
290 273 m 1,23,-1
 465 273 l 1,24,-1
 400 450 l 1,25,-1
 290 273 l 1,23,-1
150 222 m 1,26,-1
 72 9 l 1,27,-1
 205 222 l 1,28,-1
 150 222 l 1,26,-1
EndSplineSet
EndChar

StartChar: uni023B
Encoding: 571 571 509
Width: 642
GlyphClass: 2
Flags: W
LayerCount: 2
Fore
SplineSet
55 368 m 0,0,1
 55 548 55 548 141 651 c 128,-1,2
 227 754 227 754 364 754 c 0,3,4
 424 754 424 754 474 728 c 1,5,-1
 500 795 l 1,6,-1
 549 795 l 1,7,-1
 514 702 l 1,8,9
 565 661 565 661 594 598 c 1,10,-1
 540 578 l 1,11,12
 518 620 518 620 492 645 c 1,13,-1
 270 57 l 1,14,15
 311 37 311 37 363 37 c 0,16,17
 431 37 431 37 481.5 74.5 c 128,-1,18
 532 112 532 112 557 167 c 1,19,-1
 614 148 l 1,20,21
 581 77 581 77 519 29.5 c 128,-1,22
 457 -18 457 -18 364 -18 c 0,23,24
 301 -18 301 -18 250 4 c 1,25,-1
 220 -73 l 1,26,-1
 171 -73 l 1,27,-1
 209 25 l 1,28,29
 137 70 137 70 96 158.5 c 128,-1,30
 55 247 55 247 55 368 c 0,0,1
231 81 m 1,31,-1
 454 675 l 1,32,33
 414 699 414 699 363 699 c 0,34,35
 252 699 252 699 186 608.5 c 128,-1,36
 120 518 120 518 120 368 c 0,37,38
 120 166 120 166 231 81 c 1,31,-1
EndSplineSet
EndChar

StartChar: uni023C
Encoding: 572 572 510
Width: 502
GlyphClass: 2
Flags: W
LayerCount: 2
Fore
SplineSet
48 263 m 0,0,1
 48 385 48 385 109 464 c 128,-1,2
 170 543 170 543 281 543 c 0,3,4
 326 543 326 543 360 526 c 1,5,-1
 385 598 l 1,6,-1
 431 598 l 1,7,-1
 398 503 l 1,8,9
 444 471 444 471 462 414 c 1,10,-1
 410 398 l 1,11,12
 395 430 395 430 379 448 c 1,13,-1
 237 39 l 1,14,15
 256 33 256 33 280 33 c 0,16,17
 329 33 329 33 366.5 63.5 c 128,-1,18
 404 94 404 94 424 134 c 1,19,-1
 476 117 l 1,20,21
 453 63 453 63 402 22.5 c 128,-1,22
 351 -18 351 -18 280 -18 c 0,23,24
 246 -18 246 -18 219 -11 c 1,25,-1
 200 -69 l 1,26,-1
 154 -69 l 1,27,-1
 179 5 l 1,28,29
 117 36 117 36 82.5 105 c 128,-1,30
 48 174 48 174 48 263 c 0,0,1
198 59 m 1,31,-1
 343 475 l 1,32,33
 315 492 315 492 280 492 c 0,34,35
 203 492 203 492 156.5 427.5 c 128,-1,36
 110 363 110 363 110 263 c 0,37,38
 110 192 110 192 133.5 138 c 128,-1,39
 157 84 157 84 198 59 c 1,31,-1
EndSplineSet
EndChar

StartChar: uni023D
Encoding: 573 573 511
Width: 538
GlyphClass: 2
Flags: W
LayerCount: 2
Fore
SplineSet
19 394 m 1,0,-1
 19 444 l 1,1,-1
 110 444 l 1,2,-1
 110 735 l 1,3,-1
 173 735 l 1,4,-1
 173 444 l 1,5,-1
 383 444 l 1,6,-1
 383 394 l 1,7,-1
 173 394 l 1,8,-1
 173 54 l 1,9,-1
 529 54 l 1,10,-1
 529 0 l 1,11,-1
 110 0 l 1,12,-1
 110 394 l 1,13,-1
 19 394 l 1,0,-1
EndSplineSet
EndChar

StartChar: uni023E
Encoding: 574 574 512
Width: 547
GlyphClass: 2
Flags: W
LayerCount: 2
Fore
SplineSet
305 681 m 1,0,-1
 305 450 l 1,1,-1
 432 681 l 1,2,-1
 305 681 l 1,0,-1
15 681 m 1,3,-1
 15 735 l 1,4,-1
 462 735 l 1,5,-1
 495 795 l 1,6,-1
 544 795 l 1,7,-1
 511 735 l 1,8,-1
 533 735 l 1,9,-1
 533 681 l 1,10,-1
 481 681 l 1,11,-1
 305 360 l 1,12,-1
 305 0 l 1,13,-1
 242 0 l 1,14,-1
 242 245 l 1,15,-1
 88 -35 l 1,16,-1
 38 -35 l 1,17,-1
 242 336 l 1,18,-1
 242 681 l 1,19,-1
 15 681 l 1,3,-1
EndSplineSet
EndChar

StartChar: uni023F
Encoding: 575 575 513
Width: 490
GlyphClass: 2
Flags: W
LayerCount: 2
Fore
SplineSet
40 98 m 1,0,-1
 87 125 l 1,1,2
 145 33 145 33 249 33 c 0,3,4
 314 33 314 33 351.5 58.5 c 128,-1,5
 389 84 389 84 389 127 c 0,6,7
 389 146 389 146 379.5 162 c 128,-1,8
 370 178 370 178 359 188 c 128,-1,9
 348 198 348 198 323.5 209 c 128,-1,10
 299 220 299 220 285 224.5 c 128,-1,11
 271 229 271 229 240 239 c 0,12,13
 227 243 227 243 221 245 c 0,14,15
 144 269 144 269 99.5 303 c 128,-1,16
 55 337 55 337 55 399 c 0,17,18
 55 466 55 466 109 504.5 c 128,-1,19
 163 543 163 543 248 543 c 0,20,21
 311 543 311 543 362.5 511.5 c 128,-1,22
 414 480 414 480 439 433 c 1,23,-1
 397 406 l 1,24,25
 373 445 373 445 334.5 468.5 c 128,-1,26
 296 492 296 492 249 492 c 0,27,28
 185 492 185 492 150.5 466 c 128,-1,29
 116 440 116 440 116 398 c 0,30,31
 116 352 116 352 156 326 c 128,-1,32
 196 300 196 300 263 282 c 0,33,34
 302 271 302 271 330.5 259.5 c 128,-1,35
 359 248 359 248 389 230 c 128,-1,36
 419 212 419 212 435 186 c 128,-1,37
 451 160 451 160 451 127 c 0,38,39
 451 66 451 66 398 24 c 128,-1,40
 345 -18 345 -18 249 -18 c 0,41,42
 181 -18 181 -18 133 10 c 1,43,44
 161 -98 161 -98 181 -132 c 0,45,46
 216 -194 216 -194 283 -194 c 0,47,48
 308 -194 308 -194 327 -191 c 1,49,-1
 327 -235 l 1,50,51
 301 -239 301 -239 281 -239 c 0,52,53
 256 -239 256 -239 235 -234.5 c 128,-1,54
 214 -230 214 -230 197.5 -218 c 128,-1,55
 181 -206 181 -206 168.5 -196 c 128,-1,56
 156 -186 156 -186 144 -164 c 128,-1,57
 132 -142 132 -142 125.5 -129 c 128,-1,58
 119 -116 119 -116 110 -86.5 c 128,-1,59
 101 -57 101 -57 97.5 -44.5 c 128,-1,60
 94 -32 94 -32 85 1 c 0,61,62
 70 60 70 60 40 98 c 1,0,-1
EndSplineSet
EndChar

StartChar: uni0240
Encoding: 576 576 514
Width: 476
GlyphClass: 2
Flags: W
LayerCount: 2
Fore
SplineSet
36 0 m 1,0,-1
 36 42 l 1,1,-1
 353 474 l 1,2,-1
 62 474 l 1,3,-1
 62 525 l 1,4,-1
 431 525 l 1,5,-1
 431 485 l 1,6,-1
 106 42 l 1,7,8
 147 39 147 39 181.5 14 c 128,-1,9
 216 -11 216 -11 240.5 -44 c 128,-1,10
 265 -77 265 -77 288 -109.5 c 128,-1,11
 311 -142 311 -142 339 -164.5 c 128,-1,12
 367 -187 367 -187 398 -187 c 0,13,14
 426 -187 426 -187 443 -184 c 1,15,-1
 443 -234 l 1,16,17
 420 -239 420 -239 394 -239 c 0,18,19
 354 -239 354 -239 319.5 -215 c 128,-1,20
 285 -191 285 -191 259.5 -156.5 c 128,-1,21
 234 -122 234 -122 208.5 -87 c 128,-1,22
 183 -52 183 -52 149.5 -27 c 128,-1,23
 116 -2 116 -2 78 0 c 2,24,-1
 36 0 l 1,0,-1
EndSplineSet
EndChar

StartChar: uni0241
Encoding: 577 577 515
Width: 556
GlyphClass: 2
Flags: W
LayerCount: 2
Fore
SplineSet
66 599 m 1,0,1
 93 672 93 672 150 713 c 128,-1,2
 207 754 207 754 279 754 c 0,3,4
 371 754 371 754 425.5 699.5 c 128,-1,5
 480 645 480 645 480 557 c 0,6,7
 480 512 480 512 461.5 475.5 c 128,-1,8
 443 439 443 439 416.5 413 c 128,-1,9
 390 387 390 387 363.5 361.5 c 128,-1,10
 337 336 337 336 318.5 300.5 c 128,-1,11
 300 265 300 265 300 221 c 2,12,-1
 300 0 l 1,13,-1
 236 0 l 1,14,-1
 236 226 l 2,15,16
 236 274 236 274 254.5 313 c 128,-1,17
 273 352 273 352 299.5 378 c 128,-1,18
 326 404 326 404 352 428.5 c 128,-1,19
 378 453 378 453 396.5 486 c 128,-1,20
 415 519 415 519 415 558 c 0,21,22
 415 622 415 622 379 661 c 128,-1,23
 343 700 343 700 280 700 c 0,24,25
 225 700 225 700 185 667 c 128,-1,26
 145 634 145 634 122 581 c 1,27,-1
 66 599 l 1,0,1
EndSplineSet
EndChar

StartChar: uni0250
Encoding: 592 592 516
Width: 555
GlyphClass: 2
Flags: W
LayerCount: 2
Fore
SplineSet
140 237 m 1,0,1
 179 250 179 250 290 267 c 0,2,3
 373 280 373 280 411 311.5 c 128,-1,4
 449 343 449 343 449 395 c 0,5,6
 449 435 449 435 415 463.5 c 128,-1,7
 381 492 381 492 321 492 c 0,8,9
 246 492 246 492 193 443.5 c 128,-1,10
 140 395 140 395 140 320 c 2,11,-1
 140 237 l 1,0,1
79 182 m 2,12,-1
 79 525 l 1,13,-1
 139 525 l 1,14,-1
 139 430 l 1,15,16
 156 476 156 476 208 509.5 c 128,-1,17
 260 543 260 543 329 543 c 0,18,19
 413 543 413 543 462 503.5 c 128,-1,20
 511 464 511 464 511 399 c 0,21,22
 511 327 511 327 458 282.5 c 128,-1,23
 405 238 405 238 289 220 c 0,24,25
 188 205 188 205 139 188 c 0,26,27
 139 184 139 184 139.5 173 c 128,-1,28
 140 162 140 162 140 158 c 0,29,30
 140 103 140 103 179 67.5 c 128,-1,31
 218 32 218 32 287 32 c 0,32,33
 386 32 386 32 453 116 c 1,34,-1
 494 83 l 1,35,36
 459 38 459 38 403.5 10 c 128,-1,37
 348 -18 348 -18 287 -18 c 0,38,39
 182 -18 182 -18 130.5 34.5 c 128,-1,40
 79 87 79 87 79 182 c 2,12,-1
EndSplineSet
EndChar

StartChar: uni0251
Encoding: 593 593 517
Width: 579
GlyphClass: 2
Flags: W
LayerCount: 2
Fore
SplineSet
110 263 m 0,0,1
 110 157 110 157 156.5 95 c 128,-1,2
 203 33 203 33 275 33 c 0,3,4
 340 33 340 33 388 93 c 128,-1,5
 436 153 436 153 436 262 c 0,6,7
 436 367 436 367 388 429.5 c 128,-1,8
 340 492 340 492 273 492 c 0,9,10
 200 492 200 492 155 430 c 128,-1,11
 110 368 110 368 110 263 c 0,0,1
48 263 m 0,12,13
 48 392 48 392 109.5 467.5 c 128,-1,14
 171 543 171 543 267 543 c 0,15,16
 329 543 329 543 375.5 503.5 c 128,-1,17
 422 464 422 464 434 420 c 1,18,-1
 434 525 l 1,19,-1
 495 525 l 1,20,-1
 495 0 l 1,21,-1
 435 0 l 1,22,-1
 435 104 l 1,23,24
 415 53 415 53 370.5 17.5 c 128,-1,25
 326 -18 326 -18 267 -18 c 0,26,27
 179 -18 179 -18 113.5 52.5 c 128,-1,28
 48 123 48 123 48 263 c 0,12,13
EndSplineSet
EndChar

StartChar: uni0252
Encoding: 594 594 518
Width: 580
GlyphClass: 2
Flags: W
LayerCount: 2
Fore
SplineSet
85 0 m 1,0,-1
 85 525 l 1,1,-1
 146 525 l 1,2,-1
 146 419 l 1,3,4
 158 464 158 464 204 503.5 c 128,-1,5
 250 543 250 543 314 543 c 0,6,7
 412 543 412 543 472 467.5 c 128,-1,8
 532 392 532 392 532 263 c 0,9,10
 532 123 532 123 466.5 52.5 c 128,-1,11
 401 -18 401 -18 314 -18 c 0,12,13
 254 -18 254 -18 209 17.5 c 128,-1,14
 164 53 164 53 145 103 c 1,15,-1
 145 0 l 1,16,-1
 85 0 l 1,0,-1
144 262 m 256,17,18
 144 157 144 157 191 95 c 128,-1,19
 238 33 238 33 306 33 c 0,20,21
 379 33 379 33 425 95 c 128,-1,22
 471 157 471 157 471 263 c 0,23,24
 471 368 471 368 425.5 430 c 128,-1,25
 380 492 380 492 307 492 c 0,26,27
 240 492 240 492 192 429.5 c 128,-1,28
 144 367 144 367 144 262 c 256,17,18
EndSplineSet
EndChar

StartChar: uni0253
Encoding: 595 595 519
Width: 583
GlyphClass: 2
Flags: W
LayerCount: 2
Fore
SplineSet
148 262 m 0,0,1
 148 158 148 158 194 95.5 c 128,-1,2
 240 33 240 33 309 33 c 0,3,4
 383 33 383 33 428.5 95.5 c 128,-1,5
 474 158 474 158 474 263 c 0,6,7
 474 366 474 366 429.5 429 c 128,-1,8
 385 492 385 492 310 492 c 0,9,10
 241 492 241 492 194.5 428.5 c 128,-1,11
 148 365 148 365 148 262 c 0,0,1
89 0 m 1,12,-1
 89 532 l 2,13,14
 89 644 89 644 137 707 c 128,-1,15
 185 770 185 770 278 770 c 0,16,17
 331 770 331 770 397 753 c 1,18,-1
 394 701 l 1,19,20
 324 716 324 716 286 716 c 0,21,22
 150 716 150 716 150 523 c 2,23,-1
 150 418 l 1,24,25
 168 469 168 469 212 506 c 128,-1,26
 256 543 256 543 318 543 c 0,27,28
 418 543 418 543 477 466.5 c 128,-1,29
 536 390 536 390 536 263 c 0,30,31
 536 129 536 129 473 55.5 c 128,-1,32
 410 -18 410 -18 317 -18 c 0,33,34
 254 -18 254 -18 211 18.5 c 128,-1,35
 168 55 168 55 149 104 c 1,36,-1
 149 0 l 1,37,-1
 89 0 l 1,12,-1
EndSplineSet
EndChar

StartChar: uni0254
Encoding: 596 596 520
Width: 502
GlyphClass: 2
Flags: W
LayerCount: 2
Fore
SplineSet
27 117 m 1,0,-1
 79 134 l 1,1,2
 97 93 97 93 136.5 63 c 128,-1,3
 176 33 176 33 224 33 c 0,4,5
 298 33 298 33 345.5 95.5 c 128,-1,6
 393 158 393 158 393 262 c 0,7,8
 393 362 393 362 347 427 c 128,-1,9
 301 492 301 492 224 492 c 0,10,11
 179 492 179 492 144 465 c 128,-1,12
 109 438 109 438 93 398 c 1,13,-1
 41 414 l 1,14,15
 59 468 59 468 107.5 505.5 c 128,-1,16
 156 543 156 543 224 543 c 0,17,18
 331 543 331 543 393 464.5 c 128,-1,19
 455 386 455 386 455 262 c 0,20,21
 455 133 455 133 391.5 57.5 c 128,-1,22
 328 -18 328 -18 224 -18 c 0,23,24
 155 -18 155 -18 102 21.5 c 128,-1,25
 49 61 49 61 27 117 c 1,0,-1
EndSplineSet
EndChar

StartChar: uni0255
Encoding: 597 597 521
Width: 503
GlyphClass: 2
Flags: W
LayerCount: 2
Fore
SplineSet
230 45 m 1,0,1
 265 33 265 33 310 33 c 0,2,3
 354 33 354 33 382 51 c 128,-1,4
 410 69 410 69 410 94 c 0,5,6
 410 114 410 114 394.5 127 c 128,-1,7
 379 140 379 140 350 140 c 0,8,9
 309 140 309 140 277.5 111.5 c 128,-1,10
 246 83 246 83 230 45 c 1,0,1
48 266 m 0,11,12
 48 385 48 385 109 464 c 128,-1,13
 170 543 170 543 281 543 c 0,14,15
 349 543 349 543 396.5 504.5 c 128,-1,16
 444 466 444 466 462 414 c 1,17,-1
 410 398 l 1,18,19
 396 435 396 435 361 463.5 c 128,-1,20
 326 492 326 492 281 492 c 0,21,22
 202 492 202 492 156 427.5 c 128,-1,23
 110 363 110 363 110 263 c 0,24,25
 110 135 110 135 182 74 c 1,26,27
 243 191 243 191 352 191 c 0,28,29
 408 191 408 191 439.5 162 c 128,-1,30
 471 133 471 133 471 94 c 0,31,32
 471 46 471 46 426 14 c 128,-1,33
 381 -18 381 -18 307 -18 c 0,34,35
 247 -18 247 -18 208 -4 c 1,36,37
 194 -38 194 -38 189 -65 c 1,38,-1
 135 -52 l 1,39,40
 141 -20 141 -20 158 20 c 1,41,42
 48 93 48 93 48 266 c 0,11,12
EndSplineSet
EndChar

StartChar: uni0256
Encoding: 598 598 522
Width: 585
GlyphClass: 2
Flags: W
LayerCount: 2
Fore
SplineSet
48 263 m 0,0,1
 48 394 48 394 110 468.5 c 128,-1,2
 172 543 172 543 267 543 c 0,3,4
 328 543 328 543 372 506 c 128,-1,5
 416 469 416 469 434 419 c 1,6,-1
 434 764 l 1,7,-1
 495 764 l 1,8,-1
 495 -38 l 2,9,10
 495 -118 495 -118 518.5 -152 c 128,-1,11
 542 -186 542 -186 590 -186 c 0,12,13
 623 -186 623 -186 653 -180 c 1,14,-1
 653 -233 l 1,15,16
 613 -239 613 -239 582 -239 c 0,17,18
 513 -239 513 -239 474.5 -195.5 c 128,-1,19
 436 -152 436 -152 436 -42 c 2,20,-1
 436 105 l 1,21,22
 416 52 416 52 371.5 17 c 128,-1,23
 327 -18 327 -18 266 -18 c 0,24,25
 179 -18 179 -18 113.5 52.5 c 128,-1,26
 48 123 48 123 48 263 c 0,0,1
110 263 m 0,27,28
 110 159 110 159 155.5 96 c 128,-1,29
 201 33 201 33 275 33 c 0,30,31
 342 33 342 33 389 95 c 128,-1,32
 436 157 436 157 436 263 c 0,33,34
 436 368 436 368 388 430 c 128,-1,35
 340 492 340 492 273 492 c 0,36,37
 202 492 202 492 156 430 c 128,-1,38
 110 368 110 368 110 263 c 0,27,28
EndSplineSet
EndChar

StartChar: uni0257
Encoding: 599 599 523
Width: 585
GlyphClass: 2
Flags: W
LayerCount: 2
Fore
SplineSet
48 264 m 0,0,1
 48 395 48 395 110 469 c 128,-1,2
 172 543 172 543 267 543 c 0,3,4
 328 543 328 543 372.5 505.5 c 128,-1,5
 417 468 417 468 434 418 c 1,6,-1
 434 625 l 2,7,8
 434 696 434 696 478.5 732.5 c 128,-1,9
 523 769 523 769 595 769 c 0,10,11
 631 769 631 769 661 766 c 1,12,-1
 661 712 l 1,13,14
 638 715 638 715 605 715 c 0,15,16
 555 715 555 715 525 688.5 c 128,-1,17
 495 662 495 662 495 611 c 2,18,-1
 495 0 l 1,19,-1
 436 0 l 1,20,-1
 436 106 l 1,21,22
 417 54 417 54 372 18 c 128,-1,23
 327 -18 327 -18 266 -18 c 0,24,25
 179 -18 179 -18 113.5 53.5 c 128,-1,26
 48 125 48 125 48 264 c 0,0,1
110 264 m 256,27,28
 110 159 110 159 155.5 96 c 128,-1,29
 201 33 201 33 275 33 c 0,30,31
 342 33 342 33 389 94.5 c 128,-1,32
 436 156 436 156 436 264 c 0,33,34
 436 369 436 369 388 430.5 c 128,-1,35
 340 492 340 492 273 492 c 0,36,37
 201 492 201 492 155.5 430.5 c 128,-1,38
 110 369 110 369 110 264 c 256,27,28
EndSplineSet
EndChar

StartChar: uni0258
Encoding: 600 600 524
Width: 555
GlyphClass: 2
Flags: W
LayerCount: 2
Fore
SplineSet
107 290 m 1,0,-1
 446 290 l 1,1,2
 442 372 442 372 397 432 c 128,-1,3
 352 492 352 492 274 492 c 0,4,5
 198 492 198 492 153 433 c 128,-1,6
 108 374 108 374 107 290 c 1,0,-1
46 243 m 1,7,-1
 46 279 l 2,8,9
 46 394 46 394 108 468.5 c 128,-1,10
 170 543 170 543 274 543 c 0,11,12
 379 543 379 543 443.5 466.5 c 128,-1,13
 508 390 508 390 508 266 c 0,14,15
 508 137 508 137 443 59.5 c 128,-1,16
 378 -18 378 -18 270 -18 c 0,17,18
 191 -18 191 -18 137.5 18 c 128,-1,19
 84 54 84 54 58 109 c 1,20,-1
 111 127 l 1,21,22
 133 85 133 85 174.5 59 c 128,-1,23
 216 33 216 33 270 33 c 0,24,25
 351 33 351 33 398 94 c 128,-1,26
 445 155 445 155 446 243 c 1,27,-1
 46 243 l 1,7,-1
EndSplineSet
EndChar

StartChar: uni025A
Encoding: 602 602 526
Width: 635
GlyphClass: 2
Flags: W
LayerCount: 2
Fore
SplineSet
45 224 m 1,0,-1
 420 393 l 1,1,2
 371 492 371 492 267 492 c 0,3,4
 214 492 214 492 172.5 465.5 c 128,-1,5
 131 439 131 439 110 398 c 1,6,-1
 58 415 l 1,7,8
 85 474 85 474 138.5 508.5 c 128,-1,9
 192 543 192 543 267 543 c 0,10,11
 408 543 408 543 471 417 c 1,12,-1
 545 457 l 1,13,14
 570 391 570 391 630 391 c 0,15,16
 651 391 651 391 663 394 c 1,17,-1
 663 345 l 1,18,19
 641 341 641 341 627 341 c 0,20,21
 593 341 593 341 567 355.5 c 128,-1,22
 541 370 541 370 530 390 c 1,23,-1
 490 368 l 1,24,25
 505 323 505 323 505 261 c 0,26,27
 505 141 505 141 442.5 61.5 c 128,-1,28
 380 -18 380 -18 270 -18 c 0,29,30
 171 -18 171 -18 111 51.5 c 128,-1,31
 51 121 51 121 45 224 c 1,0,-1
109 198 m 1,32,33
 121 120 121 120 165 76.5 c 128,-1,34
 209 33 209 33 270 33 c 0,35,36
 350 33 350 33 396.5 96.5 c 128,-1,37
 443 160 443 160 443 256 c 0,38,39
 443 307 443 307 436 343 c 1,40,-1
 109 198 l 1,32,33
EndSplineSet
EndChar

StartChar: uni025B
Encoding: 603 603 527
Width: 463
GlyphClass: 2
Flags: W
LayerCount: 2
Fore
SplineSet
48 138 m 0,0,1
 48 194 48 194 83 229.5 c 128,-1,2
 118 265 118 265 167 278 c 1,3,-1
 167 279 l 1,4,5
 125 292 125 292 97 323 c 128,-1,6
 69 354 69 354 69 401 c 0,7,8
 69 463 69 463 115 503 c 128,-1,9
 161 543 161 543 246 543 c 0,10,11
 359 543 359 543 420 445 c 1,12,-1
 370 422 l 1,13,14
 324 492 324 492 248 492 c 0,15,16
 190 492 190 492 160.5 466 c 128,-1,17
 131 440 131 440 131 398 c 0,18,19
 131 355 131 355 165.5 327.5 c 128,-1,20
 200 300 200 300 272 300 c 2,21,-1
 307 300 l 1,22,-1
 307 254 l 1,23,-1
 272 254 l 2,24,25
 188 254 188 254 149 220 c 128,-1,26
 110 186 110 186 110 139 c 0,27,28
 110 91 110 91 149 62 c 128,-1,29
 188 33 188 33 250 33 c 0,30,31
 293 33 293 33 331.5 55 c 128,-1,32
 370 77 370 77 390 106 c 1,33,-1
 437 82 l 1,34,35
 408 37 408 37 358 9.5 c 128,-1,36
 308 -18 308 -18 249 -18 c 0,37,38
 159 -18 159 -18 103.5 23.5 c 128,-1,39
 48 65 48 65 48 138 c 0,0,1
EndSplineSet
EndChar

StartChar: uni025C
Encoding: 604 604 528
Width: 464
GlyphClass: 2
Flags: W
LayerCount: 2
Fore
SplineSet
27 82 m 1,0,-1
 74 106 l 1,1,2
 94 77 94 77 132.5 55 c 128,-1,3
 171 33 171 33 214 33 c 0,4,5
 276 33 276 33 315.5 62 c 128,-1,6
 355 91 355 91 355 139 c 0,7,8
 355 186 355 186 316 220 c 128,-1,9
 277 254 277 254 193 254 c 2,10,-1
 156 254 l 1,11,-1
 156 300 l 1,12,-1
 193 300 l 2,13,14
 265 300 265 300 299.5 327.5 c 128,-1,15
 334 355 334 355 334 398 c 0,16,17
 334 440 334 440 304.5 466 c 128,-1,18
 275 492 275 492 217 492 c 0,19,20
 140 492 140 492 94 422 c 1,21,-1
 45 445 l 1,22,23
 106 543 106 543 218 543 c 0,24,25
 303 543 303 543 349.5 503 c 128,-1,26
 396 463 396 463 396 401 c 0,27,28
 396 354 396 354 368 323 c 128,-1,29
 340 292 340 292 297 279 c 1,30,-1
 298 278 l 1,31,32
 347 265 347 265 382 229.5 c 128,-1,33
 417 194 417 194 417 138 c 0,34,35
 417 65 417 65 361.5 23.5 c 128,-1,36
 306 -18 306 -18 216 -18 c 0,37,38
 157 -18 157 -18 106.5 9.5 c 128,-1,39
 56 37 56 37 27 82 c 1,0,-1
EndSplineSet
EndChar

StartChar: uni025D
Encoding: 605 605 529
Width: 511
GlyphClass: 2
Flags: W
LayerCount: 2
Fore
SplineSet
27 82 m 1,0,-1
 74 106 l 1,1,2
 91 80 91 80 131 56.5 c 128,-1,3
 171 33 171 33 212 33 c 0,4,5
 280 33 280 33 317.5 63 c 128,-1,6
 355 93 355 93 355 140 c 256,7,8
 355 187 355 187 315.5 220.5 c 128,-1,9
 276 254 276 254 193 254 c 2,10,-1
 156 254 l 1,11,-1
 156 300 l 1,12,-1
 193 300 l 2,13,14
 265 300 265 300 299.5 327.5 c 128,-1,15
 334 355 334 355 334 398 c 256,16,17
 334 441 334 441 304 466.5 c 128,-1,18
 274 492 274 492 217 492 c 0,19,20
 139 492 139 492 94 422 c 1,21,-1
 45 445 l 1,22,23
 105 543 105 543 218 543 c 0,24,25
 339 543 339 543 381 463 c 1,26,-1
 453 501 l 1,27,28
 465 470 465 470 489 449 c 128,-1,29
 513 428 513 428 543 428 c 0,30,31
 562 428 562 428 574 431 c 1,32,-1
 574 382 l 1,33,34
 552 378 552 378 539 378 c 0,35,36
 503 378 503 378 475.5 395 c 128,-1,37
 448 412 448 412 437 434 c 1,38,-1
 395 412 l 1,39,40
 396 406 396 406 396 400 c 256,41,42
 396 394 396 394 395 387 c 0,43,44
 391 347 391 347 363 318.5 c 128,-1,45
 335 290 335 290 298 279 c 1,46,-1
 298 278 l 1,47,48
 347 265 347 265 382 229.5 c 128,-1,49
 417 194 417 194 417 139 c 0,50,51
 417 65 417 65 362 23.5 c 128,-1,52
 307 -18 307 -18 213 -18 c 0,53,54
 154 -18 154 -18 103.5 11 c 128,-1,55
 53 40 53 40 27 82 c 1,0,-1
EndSplineSet
EndChar

StartChar: uni025E
Encoding: 606 606 530
Width: 554
GlyphClass: 2
Flags: W
LayerCount: 2
Fore
SplineSet
48 265 m 0,0,1
 48 393 48 393 112.5 468 c 128,-1,2
 177 543 177 543 288 543 c 0,3,4
 376 543 376 543 429.5 503.5 c 128,-1,5
 483 464 483 464 483 396 c 0,6,7
 483 348 483 348 457 315.5 c 128,-1,8
 431 283 431 283 394 271 c 1,9,-1
 394 270 l 1,10,11
 440 259 440 259 472.5 224.5 c 128,-1,12
 505 190 505 190 505 136 c 0,13,14
 505 62 505 62 448 22 c 128,-1,15
 391 -18 391 -18 291 -18 c 0,16,17
 186 -18 186 -18 117 54.5 c 128,-1,18
 48 127 48 127 48 265 c 0,0,1
110 265 m 0,19,20
 110 201 110 201 127.5 153.5 c 128,-1,21
 145 106 145 106 173 81 c 128,-1,22
 201 56 201 56 230.5 44.5 c 128,-1,23
 260 33 260 33 291 33 c 0,24,25
 366 33 366 33 404.5 60.5 c 128,-1,26
 443 88 443 88 443 134 c 0,27,28
 443 177 443 177 407.5 210 c 128,-1,29
 372 243 372 243 291 243 c 2,30,-1
 257 243 l 1,31,-1
 257 292 l 1,32,-1
 291 292 l 2,33,34
 361 292 361 292 391.5 321.5 c 128,-1,35
 422 351 422 351 422 391 c 0,36,37
 422 439 422 439 386.5 465.5 c 128,-1,38
 351 492 351 492 289 492 c 0,39,40
 213 492 213 492 161.5 434 c 128,-1,41
 110 376 110 376 110 265 c 0,19,20
EndSplineSet
EndChar

StartChar: uni025F
Encoding: 607 607 531
Width: 278
GlyphClass: 2
Flags: W
LayerCount: 2
Fore
SplineSet
-7 275 m 1,0,-1
 -7 325 l 1,1,-1
 111 325 l 1,2,-1
 111 525 l 1,3,-1
 172 525 l 1,4,-1
 172 325 l 1,5,-1
 279 325 l 1,6,-1
 279 275 l 1,7,-1
 172 275 l 1,8,-1
 172 -59 l 2,9,10
 172 -144 172 -144 134 -188.5 c 128,-1,11
 96 -233 96 -233 28 -233 c 2,12,-1
 -7 -233 l 1,13,-1
 -7 -182 l 1,14,-1
 17 -182 l 2,15,16
 111 -182 111 -182 111 -55 c 2,17,-1
 111 275 l 1,18,-1
 -7 275 l 1,0,-1
EndSplineSet
EndChar

StartChar: uni0260
Encoding: 608 608 532
Width: 574
GlyphClass: 2
Flags: W
LayerCount: 2
Fore
SplineSet
48 273 m 256,0,1
 48 394 48 394 107 468.5 c 128,-1,2
 166 543 166 543 263 543 c 0,3,4
 326 543 326 543 366.5 508 c 128,-1,5
 407 473 407 473 426 427 c 1,6,-1
 426 623 l 2,7,8
 426 692 426 692 471.5 731 c 128,-1,9
 517 770 517 770 587 770 c 0,10,11
 613 770 613 770 651 766 c 1,12,-1
 651 714 l 1,13,14
 636 716 636 716 597 716 c 0,15,16
 549 716 549 716 517.5 688.5 c 128,-1,17
 486 661 486 661 486 609 c 2,18,-1
 486 54 l 2,19,20
 486 -12 486 -12 476.5 -61.5 c 128,-1,21
 467 -111 467 -111 444 -153 c 128,-1,22
 421 -195 421 -195 377 -217 c 128,-1,23
 333 -239 333 -239 269 -239 c 0,24,25
 146 -239 146 -239 79 -147 c 1,26,-1
 122 -118 l 1,27,28
 187 -189 187 -189 271 -189 c 0,29,30
 425 -189 425 -189 425 34 c 2,31,-1
 426 114 l 1,32,33
 406 64 406 64 365.5 32.5 c 128,-1,34
 325 1 325 1 265 1 c 0,35,36
 168 1 168 1 108 76.5 c 128,-1,37
 48 152 48 152 48 273 c 256,0,1
110 272 m 0,38,39
 110 171 110 171 155 111.5 c 128,-1,40
 200 52 200 52 269 52 c 0,41,42
 342 52 342 52 384 111 c 128,-1,43
 426 170 426 170 426 274 c 0,44,45
 426 372 426 372 382.5 432 c 128,-1,46
 339 492 339 492 270 492 c 0,47,48
 198 492 198 492 154 431 c 128,-1,49
 110 370 110 370 110 272 c 0,38,39
EndSplineSet
EndChar

StartChar: uni0262
Encoding: 610 610 534
Width: 581
GlyphClass: 2
Flags: W
LayerCount: 2
Fore
SplineSet
48 262 m 0,0,1
 48 389 48 389 115 466 c 128,-1,2
 182 543 182 543 300 543 c 0,3,4
 427 543 427 543 494 430 c 1,5,-1
 443 408 l 1,6,7
 386 491 386 491 300 491 c 0,8,9
 213 491 213 491 161.5 428.5 c 128,-1,10
 110 366 110 366 110 262 c 0,11,12
 110 157 110 157 161 95.5 c 128,-1,13
 212 34 212 34 298 34 c 0,14,15
 373 34 373 34 415.5 80.5 c 128,-1,16
 458 127 458 127 458 191 c 2,17,-1
 458 231 l 1,18,-1
 288 231 l 1,19,-1
 288 281 l 1,20,-1
 516 281 l 1,21,-1
 516 0 l 1,22,-1
 467 0 l 1,23,-1
 465 78 l 1,24,25
 448 39 448 39 404 10.5 c 128,-1,26
 360 -18 360 -18 295 -18 c 0,27,28
 183 -18 183 -18 115.5 57 c 128,-1,29
 48 132 48 132 48 262 c 0,0,1
EndSplineSet
EndChar

StartChar: uni0263
Encoding: 611 611 535
Width: 489
GlyphClass: 2
Flags: W
LayerCount: 2
Fore
SplineSet
11 525 m 1,0,-1
 78 525 l 1,1,-1
 234 127 l 1,2,-1
 244 96 l 1,3,-1
 245 96 l 1,4,-1
 411 525 l 1,5,-1
 479 525 l 1,6,-1
 286 52 l 1,7,8
 365 -43 365 -43 365 -112 c 0,9,10
 365 -168 365 -168 331.5 -203.5 c 128,-1,11
 298 -239 298 -239 245 -239 c 0,12,13
 194 -239 194 -239 160 -204.5 c 128,-1,14
 126 -170 126 -170 126 -112 c 0,15,16
 126 -71 126 -71 145.5 -34.5 c 128,-1,17
 165 2 165 2 204 51 c 1,18,-1
 11 525 l 1,0,-1
178 -113 m 0,19,20
 178 -147 178 -147 196.5 -171 c 128,-1,21
 215 -195 215 -195 245 -195 c 0,22,23
 276 -195 276 -195 294.5 -171 c 128,-1,24
 313 -147 313 -147 313 -113 c 0,25,26
 313 -78 313 -78 295.5 -46.5 c 128,-1,27
 278 -15 278 -15 245 25 c 1,28,29
 178 -50 178 -50 178 -113 c 0,19,20
EndSplineSet
Substitution2: "'sups' Superscript lookup 5 subtable" uni02E0
Substitution2: "'aalt' Access All Alternates lookup 0 subtable" uni02E0
EndChar

StartChar: uni0264
Encoding: 612 612 536
Width: 477
GlyphClass: 2
Flags: W
LayerCount: 2
Fore
SplineSet
239 355 m 1,0,1
 196 302 196 302 172.5 255 c 128,-1,2
 149 208 149 208 149 147 c 0,3,4
 149 97 149 97 173.5 65.5 c 128,-1,5
 198 34 198 34 241 34 c 0,6,7
 282 34 282 34 306 67 c 128,-1,8
 330 100 330 100 330 147 c 0,9,10
 330 207 330 207 307.5 253.5 c 128,-1,11
 285 300 285 300 239 355 c 1,0,1
35 487 m 1,12,-1
 35 538 l 1,13,14
 58 543 58 543 79 543 c 0,15,16
 127 543 127 543 162.5 518 c 128,-1,17
 198 493 198 493 239 442 c 1,18,19
 280 492 280 492 316.5 517.5 c 128,-1,20
 353 543 353 543 399 543 c 0,21,22
 416 543 416 543 444 538 c 1,23,-1
 444 486 l 1,24,25
 421 491 421 491 401 491 c 0,26,27
 366 491 366 491 337.5 467.5 c 128,-1,28
 309 444 309 444 275 400 c 1,29,30
 335 330 335 330 363 274.5 c 128,-1,31
 391 219 391 219 391 147 c 0,32,33
 391 74 391 74 350.5 28 c 128,-1,34
 310 -18 310 -18 241 -18 c 0,35,36
 168 -18 168 -18 127.5 28 c 128,-1,37
 87 74 87 74 87 147 c 0,38,39
 87 200 87 200 107 250.5 c 128,-1,40
 127 301 127 301 145.5 326.5 c 128,-1,41
 164 352 164 352 203 400 c 1,42,43
 170 446 170 446 141.5 468.5 c 128,-1,44
 113 491 113 491 77 491 c 0,45,46
 63 491 63 491 35 487 c 1,12,-1
EndSplineSet
EndChar

StartChar: uni0265
Encoding: 613 613 537
Width: 574
GlyphClass: 2
Flags: W
LayerCount: 2
Fore
SplineSet
80 185 m 2,0,-1
 80 525 l 1,1,-1
 142 525 l 1,2,-1
 142 196 l 2,3,4
 142 33 142 33 263 33 c 0,5,6
 326 33 326 33 374.5 86 c 128,-1,7
 423 139 423 139 423 210 c 2,8,-1
 423 525 l 1,9,-1
 484 525 l 1,10,-1
 484 -235 l 1,11,-1
 423 -235 l 1,12,-1
 423 93 l 1,13,-1
 422 93 l 1,14,15
 404 50 404 50 358 16 c 128,-1,16
 312 -18 312 -18 250 -18 c 0,17,18
 217 -18 217 -18 190 -9.5 c 128,-1,19
 163 -1 163 -1 136.5 20 c 128,-1,20
 110 41 110 41 95 83 c 128,-1,21
 80 125 80 125 80 185 c 2,0,-1
EndSplineSet
EndChar

StartChar: uni0266
Encoding: 614 614 538
Width: 574
GlyphClass: 2
Flags: W
LayerCount: 2
Fore
SplineSet
91 0 m 1,0,-1
 91 604 l 2,1,2
 91 683 91 683 138 726.5 c 128,-1,3
 185 770 185 770 258 770 c 0,4,5
 301 770 301 770 359 762 c 1,6,-1
 359 710 l 1,7,8
 316 716 316 716 266 716 c 0,9,10
 209 716 209 716 180.5 678.5 c 128,-1,11
 152 641 152 641 152 595 c 2,12,-1
 152 432 l 1,13,-1
 153 432 l 1,14,15
 173 476 173 476 219 509.5 c 128,-1,16
 265 543 265 543 325 543 c 0,17,18
 494 543 494 543 494 340 c 2,19,-1
 494 0 l 1,20,-1
 433 0 l 1,21,-1
 433 329 l 2,22,23
 433 492 433 492 313 492 c 0,24,25
 250 492 250 492 201 440 c 128,-1,26
 152 388 152 388 152 315 c 2,27,-1
 152 0 l 1,28,-1
 91 0 l 1,0,-1
EndSplineSet
Substitution2: "'sups' Superscript lookup 5 subtable" uni02B1
Substitution2: "'aalt' Access All Alternates lookup 0 subtable" uni02B1
EndChar

StartChar: uni0267
Encoding: 615 615 539
Width: 579
GlyphClass: 2
Flags: W
LayerCount: 2
Fore
SplineSet
91 0 m 1,0,-1
 91 603 l 2,1,2
 91 683 91 683 138 726.5 c 128,-1,3
 185 770 185 770 258 770 c 0,4,5
 301 770 301 770 359 762 c 1,6,-1
 359 710 l 1,7,8
 316 716 316 716 266 716 c 0,9,10
 208 716 208 716 180 678.5 c 128,-1,11
 152 641 152 641 152 592 c 2,12,-1
 152 432 l 1,13,-1
 153 432 l 1,14,15
 173 476 173 476 219 509.5 c 128,-1,16
 265 543 265 543 325 543 c 0,17,18
 356 543 356 543 382.5 535 c 128,-1,19
 409 527 409 527 436 506.5 c 128,-1,20
 463 486 463 486 478.5 443.5 c 128,-1,21
 494 401 494 401 494 340 c 2,22,-1
 494 -59 l 2,23,24
 494 -148 494 -148 458.5 -193.5 c 128,-1,25
 423 -239 423 -239 339 -239 c 0,26,27
 338 -239 338 -239 275 -236 c 1,28,-1
 275 -185 l 1,29,30
 311 -187 311 -187 330 -187 c 0,31,32
 383 -187 383 -187 408 -158 c 128,-1,33
 433 -129 433 -129 433 -57 c 2,34,-1
 433 329 l 2,35,36
 433 492 433 492 313 492 c 0,37,38
 250 492 250 492 201 439.5 c 128,-1,39
 152 387 152 387 152 315 c 2,40,-1
 152 0 l 1,41,-1
 91 0 l 1,0,-1
EndSplineSet
EndChar

StartChar: uni0268
Encoding: 616 616 540
Width: 273
GlyphClass: 2
Flags: W
LayerCount: 2
Fore
SplineSet
93 654 m 1,0,-1
 93 746 l 1,1,-1
 181 746 l 1,2,-1
 181 654 l 1,3,-1
 93 654 l 1,0,-1
20 266 m 1,4,-1
 20 316 l 1,5,-1
 107 316 l 1,6,-1
 107 525 l 1,7,-1
 168 525 l 1,8,-1
 168 316 l 1,9,-1
 255 316 l 1,10,-1
 255 266 l 1,11,-1
 168 266 l 1,12,-1
 168 0 l 1,13,-1
 107 0 l 1,14,-1
 107 266 l 1,15,-1
 20 266 l 1,4,-1
EndSplineSet
EndChar

StartChar: uni0269
Encoding: 617 617 541
Width: 328
GlyphClass: 2
Flags: W
LayerCount: 2
Fore
SplineSet
84 140 m 2,0,-1
 84 525 l 1,1,-1
 145 525 l 1,2,-1
 145 143 l 2,3,4
 145 36 145 36 230 36 c 0,5,6
 275 36 275 36 300 40 c 1,7,-1
 300 -12 l 1,8,9
 254 -18 254 -18 220 -18 c 0,10,11
 155 -18 155 -18 119.5 22 c 128,-1,12
 84 62 84 62 84 140 c 2,0,-1
EndSplineSet
EndChar

StartChar: uni026B
Encoding: 619 619 543
Width: 249
GlyphClass: 2
Flags: W
LayerCount: 2
Fore
SplineSet
-13 371 m 1,0,-1
 -13 423 l 1,1,2
 27 438 27 438 59 438 c 0,3,4
 68 438 68 438 93 433 c 1,5,-1
 93 764 l 1,6,-1
 155 764 l 1,7,-1
 155 421 l 1,8,9
 182 416 182 416 198 416 c 0,10,11
 201 416 201 416 203 416 c 0,12,13
 232 417 232 417 262 431 c 1,14,-1
 262 379 l 1,15,16
 232 365 232 365 204 364 c 0,17,18
 202 364 202 364 200 364 c 0,19,20
 187 364 187 364 155 370 c 1,21,-1
 155 0 l 1,22,-1
 93 0 l 1,23,-1
 93 382 l 1,24,25
 73 386 73 386 59 386 c 0,26,27
 27 386 27 386 -13 371 c 1,0,-1
EndSplineSet
EndChar

StartChar: uni026C
Encoding: 620 620 544
Width: 437
GlyphClass: 2
Flags: W
LayerCount: 2
Fore
SplineSet
47 416 m 0,0,1
 47 460 47 460 77.5 491.5 c 128,-1,2
 108 523 108 523 160 523 c 0,3,4
 197 523 197 523 228.5 504 c 128,-1,5
 260 485 260 485 274 462 c 1,6,-1
 274 764 l 1,7,-1
 335 764 l 1,8,-1
 335 341 l 1,9,-1
 443 341 l 1,10,-1
 443 292 l 1,11,-1
 335 292 l 1,12,-1
 335 0 l 1,13,-1
 274 0 l 1,14,-1
 274 292 l 1,15,-1
 205 292 l 2,16,17
 137 292 137 292 92 325 c 128,-1,18
 47 358 47 358 47 416 c 0,0,1
107 416 m 0,19,20
 107 382 107 382 135.5 361.5 c 128,-1,21
 164 341 164 341 205 341 c 2,22,-1
 273 341 l 1,23,-1
 273 367 l 2,24,25
 272 410 272 410 237.5 441 c 128,-1,26
 203 472 203 472 166 472 c 0,27,28
 141 472 141 472 124 455.5 c 128,-1,29
 107 439 107 439 107 416 c 0,19,20
EndSplineSet
EndChar

StartChar: uni026D
Encoding: 621 621 545
Width: 333
GlyphClass: 2
Flags: W
LayerCount: 2
Fore
SplineSet
93 -81 m 2,0,-1
 93 764 l 1,1,-1
 154 764 l 1,2,-1
 154 -79 l 2,3,4
 154 -186 154 -186 238 -186 c 0,5,6
 271 -186 271 -186 309 -180 c 1,7,-1
 309 -233 l 1,8,9
 263 -239 263 -239 229 -239 c 0,10,11
 164 -239 164 -239 128.5 -199 c 128,-1,12
 93 -159 93 -159 93 -81 c 2,0,-1
EndSplineSet
EndChar

StartChar: uni026E
Encoding: 622 622 546
Width: 630
GlyphClass: 2
Flags: W
LayerCount: 2
Fore
SplineSet
143 -157 m 1,0,-1
 193 -135 l 1,1,2
 245 -187 245 -187 323 -187 c 0,3,4
 415 -187 415 -187 465.5 -136 c 128,-1,5
 516 -85 516 -85 516 -5 c 0,6,7
 516 79 516 79 461.5 128.5 c 128,-1,8
 407 178 407 178 305 178 c 2,9,-1
 226 178 l 1,10,-1
 226 220 l 1,11,-1
 465 474 l 1,12,-1
 153 474 l 1,13,-1
 153 0 l 1,14,-1
 91 0 l 1,15,-1
 91 764 l 1,16,-1
 153 764 l 1,17,-1
 153 525 l 1,18,-1
 552 525 l 1,19,-1
 552 485 l 1,20,-1
 303 222 l 1,21,-1
 324 222 l 2,22,23
 437 222 437 222 507.5 161.5 c 128,-1,24
 578 101 578 101 578 -5 c 0,25,26
 578 -109 578 -109 509.5 -174 c 128,-1,27
 441 -239 441 -239 325 -239 c 0,28,29
 205 -239 205 -239 143 -157 c 1,0,-1
EndSplineSet
EndChar

StartChar: uni026F
Encoding: 623 623 547
Width: 842
GlyphClass: 2
Flags: W
LayerCount: 2
Fore
SplineSet
80 184 m 2,0,-1
 80 525 l 1,1,-1
 141 525 l 1,2,-1
 141 191 l 2,3,4
 141 110 141 110 163 71.5 c 128,-1,5
 185 33 185 33 245 33 c 256,6,7
 305 33 305 33 346.5 83 c 128,-1,8
 388 133 388 133 388 211 c 2,9,-1
 388 525 l 1,10,-1
 449 525 l 1,11,-1
 449 190 l 2,12,13
 449 33 449 33 555 33 c 0,14,15
 619 33 619 33 657.5 81 c 128,-1,16
 696 129 696 129 696 206 c 2,17,-1
 696 525 l 1,18,-1
 757 525 l 1,19,-1
 757 0 l 1,20,-1
 698 0 l 1,21,-1
 698 86 l 1,22,-1
 697 86 l 1,23,24
 683 48 683 48 645.5 15 c 128,-1,25
 608 -18 608 -18 543 -18 c 0,26,27
 437 -18 437 -18 404 107 c 1,28,29
 403 98 403 98 392.5 79.5 c 128,-1,30
 382 61 382 61 363 38 c 128,-1,31
 344 15 344 15 308.5 -1.5 c 128,-1,32
 273 -18 273 -18 230 -18 c 0,33,34
 150 -18 150 -18 115 33.5 c 128,-1,35
 80 85 80 85 80 184 c 2,0,-1
EndSplineSet
EndChar

StartChar: uni0270
Encoding: 624 624 548
Width: 861
GlyphClass: 2
Flags: W
LayerCount: 2
Fore
SplineSet
80 184 m 2,0,-1
 80 525 l 1,1,-1
 141 525 l 1,2,-1
 141 191 l 2,3,4
 141 113 141 113 162.5 73 c 128,-1,5
 184 33 184 33 244 33 c 0,6,7
 305 33 305 33 346.5 83.5 c 128,-1,8
 388 134 388 134 388 211 c 2,9,-1
 388 525 l 1,10,-1
 449 525 l 1,11,-1
 449 190 l 2,12,13
 449 33 449 33 555 33 c 0,14,15
 618 33 618 33 657 81.5 c 128,-1,16
 696 130 696 130 696 206 c 2,17,-1
 696 525 l 1,18,-1
 757 525 l 1,19,-1
 757 -235 l 1,20,-1
 698 -235 l 1,21,-1
 698 86 l 1,22,-1
 697 86 l 1,23,24
 681 44 681 44 643 13 c 128,-1,25
 605 -18 605 -18 543 -18 c 0,26,27
 436 -18 436 -18 404 107 c 1,28,29
 400 92 400 92 388.5 73.5 c 128,-1,30
 377 55 377 55 357 33 c 128,-1,31
 337 11 337 11 303.5 -3.5 c 128,-1,32
 270 -18 270 -18 230 -18 c 0,33,34
 150 -18 150 -18 115 34 c 128,-1,35
 80 86 80 86 80 184 c 2,0,-1
EndSplineSet
EndChar

